G04 #@! TF.GenerationSoftware,KiCad,Pcbnew,5.0.2-bee76a0~70~ubuntu18.04.1*
G04 #@! TF.CreationDate,2019-10-12T02:21:46+09:00*
G04 #@! TF.ProjectId,RPi_Hat,5250695f-4861-4742-9e6b-696361645f70,rev?*
G04 #@! TF.SameCoordinates,Original*
G04 #@! TF.FileFunction,Soldermask,Bot*
G04 #@! TF.FilePolarity,Negative*
%FSLAX46Y46*%
G04 Gerber Fmt 4.6, Leading zero omitted, Abs format (unit mm)*
G04 Created by KiCad (PCBNEW 5.0.2-bee76a0~70~ubuntu18.04.1) date 2019年10月12日 02時21分46秒*
%MOMM*%
%LPD*%
G01*
G04 APERTURE LIST*
%ADD10C,0.010000*%
%ADD11C,0.100000*%
G04 APERTURE END LIST*
D10*
G04 #@! TO.C,G\002A\002A\002A*
G36*
X42298736Y-35275925D02*
X42326958Y-35304147D01*
X42355181Y-35275925D01*
X42326958Y-35247703D01*
X42298736Y-35275925D01*
X42298736Y-35275925D01*
G37*
X42298736Y-35275925D02*
X42326958Y-35304147D01*
X42355181Y-35275925D01*
X42326958Y-35247703D01*
X42298736Y-35275925D01*
G36*
X42889967Y-35208972D02*
X42849070Y-35240503D01*
X42761317Y-35322890D01*
X42761698Y-35359665D01*
X42771603Y-35360592D01*
X42818719Y-35322019D01*
X42870381Y-35261814D01*
X42919196Y-35194956D01*
X42889967Y-35208972D01*
X42889967Y-35208972D01*
G37*
X42889967Y-35208972D02*
X42849070Y-35240503D01*
X42761317Y-35322890D01*
X42761698Y-35359665D01*
X42771603Y-35360592D01*
X42818719Y-35322019D01*
X42870381Y-35261814D01*
X42919196Y-35194956D01*
X42889967Y-35208972D01*
G36*
X43596958Y-35783925D02*
X43625181Y-35812147D01*
X43653403Y-35783925D01*
X43625181Y-35755703D01*
X43596958Y-35783925D01*
X43596958Y-35783925D01*
G37*
X43596958Y-35783925D02*
X43625181Y-35812147D01*
X43653403Y-35783925D01*
X43625181Y-35755703D01*
X43596958Y-35783925D01*
G36*
X43992070Y-36630592D02*
X44020292Y-36658814D01*
X44048514Y-36630592D01*
X44020292Y-36602369D01*
X43992070Y-36630592D01*
X43992070Y-36630592D01*
G37*
X43992070Y-36630592D02*
X44020292Y-36658814D01*
X44048514Y-36630592D01*
X44020292Y-36602369D01*
X43992070Y-36630592D01*
G36*
X46983625Y-36969258D02*
X47011847Y-36997480D01*
X47040070Y-36969258D01*
X47011847Y-36941036D01*
X46983625Y-36969258D01*
X46983625Y-36969258D01*
G37*
X46983625Y-36969258D02*
X47011847Y-36997480D01*
X47040070Y-36969258D01*
X47011847Y-36941036D01*
X46983625Y-36969258D01*
G36*
X46644958Y-37138592D02*
X46673181Y-37166814D01*
X46701403Y-37138592D01*
X46673181Y-37110369D01*
X46644958Y-37138592D01*
X46644958Y-37138592D01*
G37*
X46644958Y-37138592D02*
X46673181Y-37166814D01*
X46701403Y-37138592D01*
X46673181Y-37110369D01*
X46644958Y-37138592D01*
G36*
X35920514Y-37872369D02*
X35948736Y-37900592D01*
X35976958Y-37872369D01*
X35948736Y-37844147D01*
X35920514Y-37872369D01*
X35920514Y-37872369D01*
G37*
X35920514Y-37872369D02*
X35948736Y-37900592D01*
X35976958Y-37872369D01*
X35948736Y-37844147D01*
X35920514Y-37872369D01*
G36*
X41169847Y-37985258D02*
X41198070Y-38013480D01*
X41226292Y-37985258D01*
X41198070Y-37957036D01*
X41169847Y-37985258D01*
X41169847Y-37985258D01*
G37*
X41169847Y-37985258D02*
X41198070Y-38013480D01*
X41226292Y-37985258D01*
X41198070Y-37957036D01*
X41169847Y-37985258D01*
G36*
X44443625Y-39283480D02*
X44471847Y-39311703D01*
X44500070Y-39283480D01*
X44471847Y-39255258D01*
X44443625Y-39283480D01*
X44443625Y-39283480D01*
G37*
X44443625Y-39283480D02*
X44471847Y-39311703D01*
X44500070Y-39283480D01*
X44471847Y-39255258D01*
X44443625Y-39283480D01*
G36*
X47679773Y-39499851D02*
X47673018Y-39566837D01*
X47679773Y-39575110D01*
X47713329Y-39567362D01*
X47717403Y-39537480D01*
X47696751Y-39491020D01*
X47679773Y-39499851D01*
X47679773Y-39499851D01*
G37*
X47679773Y-39499851D02*
X47673018Y-39566837D01*
X47679773Y-39575110D01*
X47713329Y-39567362D01*
X47717403Y-39537480D01*
X47696751Y-39491020D01*
X47679773Y-39499851D01*
G36*
X35976958Y-41428369D02*
X36005181Y-41456592D01*
X36033403Y-41428369D01*
X36005181Y-41400147D01*
X35976958Y-41428369D01*
X35976958Y-41428369D01*
G37*
X35976958Y-41428369D02*
X36005181Y-41456592D01*
X36033403Y-41428369D01*
X36005181Y-41400147D01*
X35976958Y-41428369D01*
G36*
X34001403Y-41484814D02*
X34029625Y-41513036D01*
X34057847Y-41484814D01*
X34029625Y-41456592D01*
X34001403Y-41484814D01*
X34001403Y-41484814D01*
G37*
X34001403Y-41484814D02*
X34029625Y-41513036D01*
X34057847Y-41484814D01*
X34029625Y-41456592D01*
X34001403Y-41484814D01*
G36*
X47830292Y-41541258D02*
X47858514Y-41569480D01*
X47886736Y-41541258D01*
X47858514Y-41513036D01*
X47830292Y-41541258D01*
X47830292Y-41541258D01*
G37*
X47830292Y-41541258D02*
X47858514Y-41569480D01*
X47886736Y-41541258D01*
X47858514Y-41513036D01*
X47830292Y-41541258D01*
G36*
X48056070Y-41879925D02*
X48084292Y-41908147D01*
X48112514Y-41879925D01*
X48084292Y-41851703D01*
X48056070Y-41879925D01*
X48056070Y-41879925D01*
G37*
X48056070Y-41879925D02*
X48084292Y-41908147D01*
X48112514Y-41879925D01*
X48084292Y-41851703D01*
X48056070Y-41879925D01*
G36*
X34075586Y-41567320D02*
X34000447Y-41713990D01*
X33969895Y-41827978D01*
X33940844Y-41961576D01*
X33913339Y-42026532D01*
X33903525Y-42068750D01*
X33932337Y-42057059D01*
X34010799Y-42057505D01*
X34029056Y-42076560D01*
X34116279Y-42123781D01*
X34287191Y-42110172D01*
X34396218Y-42083490D01*
X34519670Y-42016911D01*
X34524844Y-41992814D01*
X34283625Y-41992814D01*
X34255403Y-42021036D01*
X34227181Y-41992814D01*
X34255403Y-41964592D01*
X34283625Y-41992814D01*
X34524844Y-41992814D01*
X34542373Y-41911177D01*
X34509171Y-41848028D01*
X34382675Y-41848028D01*
X34374954Y-41851703D01*
X34323444Y-41811967D01*
X34311847Y-41795258D01*
X34297464Y-41742489D01*
X34305185Y-41738814D01*
X34356695Y-41778549D01*
X34368292Y-41795258D01*
X34382675Y-41848028D01*
X34509171Y-41848028D01*
X34464075Y-41762259D01*
X34371690Y-41654147D01*
X34227181Y-41654147D01*
X34198958Y-41682369D01*
X34170736Y-41654147D01*
X34198958Y-41625925D01*
X34227181Y-41654147D01*
X34371690Y-41654147D01*
X34369211Y-41651246D01*
X34166987Y-41436826D01*
X34075586Y-41567320D01*
X34075586Y-41567320D01*
G37*
X34075586Y-41567320D02*
X34000447Y-41713990D01*
X33969895Y-41827978D01*
X33940844Y-41961576D01*
X33913339Y-42026532D01*
X33903525Y-42068750D01*
X33932337Y-42057059D01*
X34010799Y-42057505D01*
X34029056Y-42076560D01*
X34116279Y-42123781D01*
X34287191Y-42110172D01*
X34396218Y-42083490D01*
X34519670Y-42016911D01*
X34524844Y-41992814D01*
X34283625Y-41992814D01*
X34255403Y-42021036D01*
X34227181Y-41992814D01*
X34255403Y-41964592D01*
X34283625Y-41992814D01*
X34524844Y-41992814D01*
X34542373Y-41911177D01*
X34509171Y-41848028D01*
X34382675Y-41848028D01*
X34374954Y-41851703D01*
X34323444Y-41811967D01*
X34311847Y-41795258D01*
X34297464Y-41742489D01*
X34305185Y-41738814D01*
X34356695Y-41778549D01*
X34368292Y-41795258D01*
X34382675Y-41848028D01*
X34509171Y-41848028D01*
X34464075Y-41762259D01*
X34371690Y-41654147D01*
X34227181Y-41654147D01*
X34198958Y-41682369D01*
X34170736Y-41654147D01*
X34198958Y-41625925D01*
X34227181Y-41654147D01*
X34371690Y-41654147D01*
X34369211Y-41651246D01*
X34166987Y-41436826D01*
X34075586Y-41567320D01*
G36*
X48581778Y-42509052D02*
X48592292Y-42529036D01*
X48645475Y-42582941D01*
X48655399Y-42585480D01*
X48659250Y-42549020D01*
X48648736Y-42529036D01*
X48595554Y-42475131D01*
X48585629Y-42472592D01*
X48581778Y-42509052D01*
X48581778Y-42509052D01*
G37*
X48581778Y-42509052D02*
X48592292Y-42529036D01*
X48645475Y-42582941D01*
X48655399Y-42585480D01*
X48659250Y-42549020D01*
X48648736Y-42529036D01*
X48595554Y-42475131D01*
X48585629Y-42472592D01*
X48581778Y-42509052D01*
G36*
X48807561Y-42728028D02*
X48839092Y-42768925D01*
X48921479Y-42856678D01*
X48958254Y-42856296D01*
X48959181Y-42846392D01*
X48920608Y-42799275D01*
X48860403Y-42747614D01*
X48793545Y-42698798D01*
X48807561Y-42728028D01*
X48807561Y-42728028D01*
G37*
X48807561Y-42728028D02*
X48839092Y-42768925D01*
X48921479Y-42856678D01*
X48958254Y-42856296D01*
X48959181Y-42846392D01*
X48920608Y-42799275D01*
X48860403Y-42747614D01*
X48793545Y-42698798D01*
X48807561Y-42728028D01*
G36*
X34283625Y-43178147D02*
X34311847Y-43206369D01*
X34340070Y-43178147D01*
X34311847Y-43149925D01*
X34283625Y-43178147D01*
X34283625Y-43178147D01*
G37*
X34283625Y-43178147D02*
X34311847Y-43206369D01*
X34340070Y-43178147D01*
X34311847Y-43149925D01*
X34283625Y-43178147D01*
G36*
X49297847Y-43234592D02*
X49326070Y-43262814D01*
X49354292Y-43234592D01*
X49326070Y-43206369D01*
X49297847Y-43234592D01*
X49297847Y-43234592D01*
G37*
X49297847Y-43234592D02*
X49326070Y-43262814D01*
X49354292Y-43234592D01*
X49326070Y-43206369D01*
X49297847Y-43234592D01*
G36*
X33922211Y-43173238D02*
X33889110Y-43265031D01*
X33888514Y-43291036D01*
X33922058Y-43405009D01*
X34006847Y-43426487D01*
X34103003Y-43364414D01*
X34167898Y-43254499D01*
X34133282Y-43175319D01*
X34029625Y-43149925D01*
X33922211Y-43173238D01*
X33922211Y-43173238D01*
G37*
X33922211Y-43173238D02*
X33889110Y-43265031D01*
X33888514Y-43291036D01*
X33922058Y-43405009D01*
X34006847Y-43426487D01*
X34103003Y-43364414D01*
X34167898Y-43254499D01*
X34133282Y-43175319D01*
X34029625Y-43149925D01*
X33922211Y-43173238D01*
G36*
X46585473Y-36830494D02*
X46542018Y-36878639D01*
X46586032Y-36937447D01*
X46630847Y-36970868D01*
X46725978Y-37073963D01*
X46757847Y-37166683D01*
X46784969Y-37273713D01*
X46815213Y-37308494D01*
X46847215Y-37377014D01*
X46839239Y-37397890D01*
X46841319Y-37438158D01*
X46858874Y-37436323D01*
X46917173Y-37468758D01*
X47018607Y-37564626D01*
X47139326Y-37696487D01*
X47255483Y-37836906D01*
X47343232Y-37958444D01*
X47378723Y-38033663D01*
X47378736Y-38034445D01*
X47419214Y-38106203D01*
X47472215Y-38154055D01*
X47554604Y-38261606D01*
X47573665Y-38330604D01*
X47602250Y-38459455D01*
X47624743Y-38508547D01*
X47649415Y-38593122D01*
X47679033Y-38760531D01*
X47708708Y-38981146D01*
X47720976Y-39091794D01*
X47741992Y-39418816D01*
X47720846Y-39675765D01*
X47647563Y-39900770D01*
X47512169Y-40131961D01*
X47413278Y-40268113D01*
X47321183Y-40410564D01*
X47269743Y-40530918D01*
X47265847Y-40557787D01*
X47303589Y-40639873D01*
X47404015Y-40774753D01*
X47547927Y-40937507D01*
X47599579Y-40990952D01*
X47774986Y-41182826D01*
X47933019Y-41380563D01*
X48043488Y-41545952D01*
X48054995Y-41567375D01*
X48222143Y-41841435D01*
X48457451Y-42155001D01*
X48737446Y-42481646D01*
X49038656Y-42794941D01*
X49337605Y-43068458D01*
X49509514Y-43204988D01*
X49625914Y-43307373D01*
X49689153Y-43394921D01*
X49692958Y-43412267D01*
X49743034Y-43463460D01*
X49862180Y-43472208D01*
X49983623Y-43459728D01*
X50038546Y-43446301D01*
X50038569Y-43446258D01*
X50051717Y-43403925D01*
X50031625Y-43403925D01*
X50003403Y-43432147D01*
X49975181Y-43403925D01*
X50003403Y-43375703D01*
X50031625Y-43403925D01*
X50051717Y-43403925D01*
X50056838Y-43387439D01*
X50059847Y-43375703D01*
X50084007Y-43309092D01*
X50086862Y-43305147D01*
X50104903Y-43239206D01*
X50117822Y-43110833D01*
X50119813Y-43065258D01*
X49862292Y-43065258D01*
X49834070Y-43093480D01*
X49805847Y-43065258D01*
X49834070Y-43037036D01*
X49862292Y-43065258D01*
X50119813Y-43065258D01*
X50124507Y-42957827D01*
X50123843Y-42817988D01*
X50114717Y-42729116D01*
X50104206Y-42716257D01*
X50081034Y-42678376D01*
X50060914Y-42553400D01*
X50047781Y-42367117D01*
X50046795Y-42339840D01*
X50026829Y-42104130D01*
X49984639Y-41831218D01*
X49971528Y-41767036D01*
X49862292Y-41767036D01*
X49834070Y-41795258D01*
X49805847Y-41767036D01*
X49834070Y-41738814D01*
X49862292Y-41767036D01*
X49971528Y-41767036D01*
X49926553Y-41546880D01*
X49858894Y-41276888D01*
X49787991Y-41047017D01*
X49720168Y-40883042D01*
X49673060Y-40817144D01*
X49615704Y-40723800D01*
X49571239Y-40565633D01*
X49560248Y-40490050D01*
X49510113Y-40253001D01*
X49417625Y-40010201D01*
X49300832Y-39800334D01*
X49177783Y-39662085D01*
X49171978Y-39657878D01*
X49091357Y-39549967D01*
X49090171Y-39474356D01*
X49094415Y-39400353D01*
X49073201Y-39395670D01*
X49006265Y-39384604D01*
X48943080Y-39312907D01*
X48919749Y-39228103D01*
X48927680Y-39204118D01*
X48912509Y-39138370D01*
X48847873Y-39086771D01*
X48757540Y-39013258D01*
X48733403Y-38960571D01*
X48699367Y-38885203D01*
X48611203Y-38756678D01*
X48516987Y-38638002D01*
X48367067Y-38449944D01*
X48196760Y-38222305D01*
X48068844Y-38041703D01*
X47927993Y-37855059D01*
X47754212Y-37652780D01*
X47566467Y-37453697D01*
X47383724Y-37276640D01*
X47224947Y-37140439D01*
X47109103Y-37063924D01*
X47073973Y-37053925D01*
X46976942Y-37014129D01*
X46924623Y-36966177D01*
X46782372Y-36843009D01*
X46645501Y-36809652D01*
X46585473Y-36830494D01*
X46585473Y-36830494D01*
G37*
X46585473Y-36830494D02*
X46542018Y-36878639D01*
X46586032Y-36937447D01*
X46630847Y-36970868D01*
X46725978Y-37073963D01*
X46757847Y-37166683D01*
X46784969Y-37273713D01*
X46815213Y-37308494D01*
X46847215Y-37377014D01*
X46839239Y-37397890D01*
X46841319Y-37438158D01*
X46858874Y-37436323D01*
X46917173Y-37468758D01*
X47018607Y-37564626D01*
X47139326Y-37696487D01*
X47255483Y-37836906D01*
X47343232Y-37958444D01*
X47378723Y-38033663D01*
X47378736Y-38034445D01*
X47419214Y-38106203D01*
X47472215Y-38154055D01*
X47554604Y-38261606D01*
X47573665Y-38330604D01*
X47602250Y-38459455D01*
X47624743Y-38508547D01*
X47649415Y-38593122D01*
X47679033Y-38760531D01*
X47708708Y-38981146D01*
X47720976Y-39091794D01*
X47741992Y-39418816D01*
X47720846Y-39675765D01*
X47647563Y-39900770D01*
X47512169Y-40131961D01*
X47413278Y-40268113D01*
X47321183Y-40410564D01*
X47269743Y-40530918D01*
X47265847Y-40557787D01*
X47303589Y-40639873D01*
X47404015Y-40774753D01*
X47547927Y-40937507D01*
X47599579Y-40990952D01*
X47774986Y-41182826D01*
X47933019Y-41380563D01*
X48043488Y-41545952D01*
X48054995Y-41567375D01*
X48222143Y-41841435D01*
X48457451Y-42155001D01*
X48737446Y-42481646D01*
X49038656Y-42794941D01*
X49337605Y-43068458D01*
X49509514Y-43204988D01*
X49625914Y-43307373D01*
X49689153Y-43394921D01*
X49692958Y-43412267D01*
X49743034Y-43463460D01*
X49862180Y-43472208D01*
X49983623Y-43459728D01*
X50038546Y-43446301D01*
X50038569Y-43446258D01*
X50051717Y-43403925D01*
X50031625Y-43403925D01*
X50003403Y-43432147D01*
X49975181Y-43403925D01*
X50003403Y-43375703D01*
X50031625Y-43403925D01*
X50051717Y-43403925D01*
X50056838Y-43387439D01*
X50059847Y-43375703D01*
X50084007Y-43309092D01*
X50086862Y-43305147D01*
X50104903Y-43239206D01*
X50117822Y-43110833D01*
X50119813Y-43065258D01*
X49862292Y-43065258D01*
X49834070Y-43093480D01*
X49805847Y-43065258D01*
X49834070Y-43037036D01*
X49862292Y-43065258D01*
X50119813Y-43065258D01*
X50124507Y-42957827D01*
X50123843Y-42817988D01*
X50114717Y-42729116D01*
X50104206Y-42716257D01*
X50081034Y-42678376D01*
X50060914Y-42553400D01*
X50047781Y-42367117D01*
X50046795Y-42339840D01*
X50026829Y-42104130D01*
X49984639Y-41831218D01*
X49971528Y-41767036D01*
X49862292Y-41767036D01*
X49834070Y-41795258D01*
X49805847Y-41767036D01*
X49834070Y-41738814D01*
X49862292Y-41767036D01*
X49971528Y-41767036D01*
X49926553Y-41546880D01*
X49858894Y-41276888D01*
X49787991Y-41047017D01*
X49720168Y-40883042D01*
X49673060Y-40817144D01*
X49615704Y-40723800D01*
X49571239Y-40565633D01*
X49560248Y-40490050D01*
X49510113Y-40253001D01*
X49417625Y-40010201D01*
X49300832Y-39800334D01*
X49177783Y-39662085D01*
X49171978Y-39657878D01*
X49091357Y-39549967D01*
X49090171Y-39474356D01*
X49094415Y-39400353D01*
X49073201Y-39395670D01*
X49006265Y-39384604D01*
X48943080Y-39312907D01*
X48919749Y-39228103D01*
X48927680Y-39204118D01*
X48912509Y-39138370D01*
X48847873Y-39086771D01*
X48757540Y-39013258D01*
X48733403Y-38960571D01*
X48699367Y-38885203D01*
X48611203Y-38756678D01*
X48516987Y-38638002D01*
X48367067Y-38449944D01*
X48196760Y-38222305D01*
X48068844Y-38041703D01*
X47927993Y-37855059D01*
X47754212Y-37652780D01*
X47566467Y-37453697D01*
X47383724Y-37276640D01*
X47224947Y-37140439D01*
X47109103Y-37063924D01*
X47073973Y-37053925D01*
X46976942Y-37014129D01*
X46924623Y-36966177D01*
X46782372Y-36843009D01*
X46645501Y-36809652D01*
X46585473Y-36830494D01*
G36*
X49482468Y-43567379D02*
X49499302Y-43593033D01*
X49556551Y-43597024D01*
X49616779Y-43583239D01*
X49590653Y-43562922D01*
X49502437Y-43556193D01*
X49482468Y-43567379D01*
X49482468Y-43567379D01*
G37*
X49482468Y-43567379D02*
X49499302Y-43593033D01*
X49556551Y-43597024D01*
X49616779Y-43583239D01*
X49590653Y-43562922D01*
X49502437Y-43556193D01*
X49482468Y-43567379D01*
G36*
X34114292Y-45718147D02*
X34142514Y-45746369D01*
X34170736Y-45718147D01*
X34142514Y-45689925D01*
X34114292Y-45718147D01*
X34114292Y-45718147D01*
G37*
X34114292Y-45718147D02*
X34142514Y-45746369D01*
X34170736Y-45718147D01*
X34142514Y-45689925D01*
X34114292Y-45718147D01*
G36*
X48564070Y-46000369D02*
X48592292Y-46028592D01*
X48620514Y-46000369D01*
X48592292Y-45972147D01*
X48564070Y-46000369D01*
X48564070Y-46000369D01*
G37*
X48564070Y-46000369D02*
X48592292Y-46028592D01*
X48620514Y-46000369D01*
X48592292Y-45972147D01*
X48564070Y-46000369D01*
G36*
X34283625Y-46282592D02*
X34311847Y-46310814D01*
X34340070Y-46282592D01*
X34311847Y-46254369D01*
X34283625Y-46282592D01*
X34283625Y-46282592D01*
G37*
X34283625Y-46282592D02*
X34311847Y-46310814D01*
X34340070Y-46282592D01*
X34311847Y-46254369D01*
X34283625Y-46282592D01*
G36*
X34340070Y-46395480D02*
X34368292Y-46423703D01*
X34396514Y-46395480D01*
X34368292Y-46367258D01*
X34340070Y-46395480D01*
X34340070Y-46395480D01*
G37*
X34340070Y-46395480D02*
X34368292Y-46423703D01*
X34396514Y-46395480D01*
X34368292Y-46367258D01*
X34340070Y-46395480D01*
G36*
X36446223Y-49451718D02*
X36456736Y-49471703D01*
X36509919Y-49525607D01*
X36519843Y-49528147D01*
X36523694Y-49491687D01*
X36513181Y-49471703D01*
X36459998Y-49417798D01*
X36450074Y-49415258D01*
X36446223Y-49451718D01*
X36446223Y-49451718D01*
G37*
X36446223Y-49451718D02*
X36456736Y-49471703D01*
X36509919Y-49525607D01*
X36519843Y-49528147D01*
X36523694Y-49491687D01*
X36513181Y-49471703D01*
X36459998Y-49417798D01*
X36450074Y-49415258D01*
X36446223Y-49451718D01*
G36*
X37783181Y-50459480D02*
X37811403Y-50487703D01*
X37839625Y-50459480D01*
X37811403Y-50431258D01*
X37783181Y-50459480D01*
X37783181Y-50459480D01*
G37*
X37783181Y-50459480D02*
X37811403Y-50487703D01*
X37839625Y-50459480D01*
X37811403Y-50431258D01*
X37783181Y-50459480D01*
G36*
X40323181Y-51419036D02*
X40351403Y-51447258D01*
X40379625Y-51419036D01*
X40351403Y-51390814D01*
X40323181Y-51419036D01*
X40323181Y-51419036D01*
G37*
X40323181Y-51419036D02*
X40351403Y-51447258D01*
X40379625Y-51419036D01*
X40351403Y-51390814D01*
X40323181Y-51419036D01*
G36*
X41621403Y-35244620D02*
X41552797Y-35254588D01*
X41412506Y-35267768D01*
X41339181Y-35273466D01*
X41134397Y-35295670D01*
X40889558Y-35332070D01*
X40753170Y-35356483D01*
X40572611Y-35386491D01*
X40441243Y-35398898D01*
X40393673Y-35393454D01*
X40337901Y-35404910D01*
X40284207Y-35447946D01*
X40139696Y-35520795D01*
X39912560Y-35544171D01*
X39790983Y-35537746D01*
X39681341Y-35558891D01*
X39642168Y-35592323D01*
X39564322Y-35639933D01*
X39422274Y-35675950D01*
X39385575Y-35680838D01*
X39219101Y-35717373D01*
X39091547Y-35776119D01*
X39078390Y-35786652D01*
X38963683Y-35854354D01*
X38896845Y-35868591D01*
X38796040Y-35900392D01*
X38770033Y-35926533D01*
X38689903Y-35972967D01*
X38667924Y-35971911D01*
X38559796Y-35978569D01*
X38439709Y-36018010D01*
X38358226Y-36070949D01*
X38347625Y-36094074D01*
X38300595Y-36142203D01*
X38181441Y-36215604D01*
X38023067Y-36298159D01*
X37858376Y-36373750D01*
X37720271Y-36426260D01*
X37642070Y-36439692D01*
X37615999Y-36451311D01*
X37627081Y-36465085D01*
X37622509Y-36523112D01*
X37551259Y-36594097D01*
X37450600Y-36646953D01*
X37396973Y-36657019D01*
X37309860Y-36686559D01*
X37203135Y-36753550D01*
X37113373Y-36830173D01*
X37077152Y-36888610D01*
X37080975Y-36897349D01*
X37054342Y-36942880D01*
X36957891Y-37035707D01*
X36812435Y-37155820D01*
X36810950Y-37156977D01*
X36603119Y-37330706D01*
X36379568Y-37535443D01*
X36241157Y-37672949D01*
X36097947Y-37814640D01*
X35980676Y-37916443D01*
X35914030Y-37956989D01*
X35912958Y-37957036D01*
X35845931Y-37999172D01*
X35736176Y-38111604D01*
X35599295Y-38273370D01*
X35450885Y-38463505D01*
X35306548Y-38661048D01*
X35181882Y-38845033D01*
X35092488Y-38994498D01*
X35053964Y-39088481D01*
X35057253Y-39106960D01*
X35046484Y-39166814D01*
X34973963Y-39269452D01*
X34948066Y-39298180D01*
X34750373Y-39557081D01*
X34602355Y-39847602D01*
X34530467Y-40105362D01*
X34524700Y-40266834D01*
X34573416Y-40401005D01*
X34659997Y-40522472D01*
X34772155Y-40643592D01*
X34868131Y-40714841D01*
X34895611Y-40722812D01*
X34990418Y-40755533D01*
X35113180Y-40834362D01*
X35114890Y-40835703D01*
X35241773Y-40915340D01*
X35345719Y-40948591D01*
X35345933Y-40948592D01*
X35447557Y-40984971D01*
X35559867Y-41067345D01*
X35633805Y-41122346D01*
X35733160Y-41160513D01*
X35881937Y-41186701D01*
X36104139Y-41205768D01*
X36297283Y-41216541D01*
X36576591Y-41232993D01*
X36771890Y-41253724D01*
X36912035Y-41285266D01*
X37025886Y-41334149D01*
X37142297Y-41406906D01*
X37144240Y-41408233D01*
X37292338Y-41501388D01*
X37407614Y-41559630D01*
X37443904Y-41569480D01*
X37484615Y-41599627D01*
X37478363Y-41616821D01*
X37504875Y-41669652D01*
X37605576Y-41749092D01*
X37671628Y-41789227D01*
X37829513Y-41886384D01*
X37955384Y-41978192D01*
X37981821Y-42001962D01*
X38069408Y-42078255D01*
X38208827Y-42188385D01*
X38373878Y-42313037D01*
X38538359Y-42432897D01*
X38676071Y-42528652D01*
X38760812Y-42580987D01*
X38773403Y-42585480D01*
X38842228Y-42617740D01*
X38967719Y-42700074D01*
X39119382Y-42810814D01*
X39266721Y-42928295D01*
X39316705Y-42971508D01*
X39442195Y-43055489D01*
X39534109Y-43064396D01*
X39537093Y-43062703D01*
X39580589Y-43051612D01*
X39568321Y-43081927D01*
X39582181Y-43150701D01*
X39658378Y-43211987D01*
X39766508Y-43276829D01*
X39815181Y-43316774D01*
X39884462Y-43381815D01*
X40009491Y-43480407D01*
X40159433Y-43590387D01*
X40303456Y-43689595D01*
X40410726Y-43755868D01*
X40446882Y-43770814D01*
X40516541Y-43808585D01*
X40618072Y-43900652D01*
X40628682Y-43911925D01*
X40732479Y-44007892D01*
X40810126Y-44052615D01*
X40814794Y-44053036D01*
X40889226Y-44091392D01*
X40977655Y-44173984D01*
X41075542Y-44261401D01*
X41238281Y-44384314D01*
X41434448Y-44519273D01*
X41480292Y-44549102D01*
X41701089Y-44697085D01*
X41916315Y-44851220D01*
X42083102Y-44980691D01*
X42097230Y-44992598D01*
X42237943Y-45101132D01*
X42352796Y-45169623D01*
X42393563Y-45181925D01*
X42461917Y-45215514D01*
X42468070Y-45237612D01*
X42515100Y-45293228D01*
X42631560Y-45360775D01*
X42665625Y-45375843D01*
X42793240Y-45442726D01*
X42860232Y-45504298D01*
X42863181Y-45515332D01*
X42907875Y-45574646D01*
X43021737Y-45662230D01*
X43103070Y-45713500D01*
X43273273Y-45831765D01*
X43417658Y-45962199D01*
X43455847Y-46007359D01*
X43561970Y-46125768D01*
X43719602Y-46274036D01*
X43850958Y-46384637D01*
X43994329Y-46508119D01*
X44090403Y-46609028D01*
X44117671Y-46661797D01*
X44137938Y-46688163D01*
X44161567Y-46677601D01*
X44235035Y-46690274D01*
X44345675Y-46766784D01*
X44381874Y-46800406D01*
X44549537Y-46959242D01*
X44685880Y-47066236D01*
X44833644Y-47154742D01*
X44841127Y-47158760D01*
X44973935Y-47242688D01*
X45053270Y-47307506D01*
X45154272Y-47372436D01*
X45203165Y-47383258D01*
X45285899Y-47426291D01*
X45364249Y-47515947D01*
X45401985Y-47582951D01*
X45404422Y-47641585D01*
X45358548Y-47712005D01*
X45251353Y-47814369D01*
X45074408Y-47964988D01*
X44566042Y-48326190D01*
X43981300Y-48626078D01*
X43345680Y-48851978D01*
X43224046Y-48884777D01*
X42966977Y-48931256D01*
X42629040Y-48964701D01*
X42241553Y-48984691D01*
X41835831Y-48990801D01*
X41443189Y-48982608D01*
X41094943Y-48959689D01*
X40822409Y-48921621D01*
X40802958Y-48917502D01*
X40447321Y-48826958D01*
X40089046Y-48714293D01*
X39769765Y-48593521D01*
X39581718Y-48506458D01*
X39428927Y-48437774D01*
X39305933Y-48401134D01*
X39285384Y-48399258D01*
X39206150Y-48376760D01*
X39194292Y-48354984D01*
X39150021Y-48300185D01*
X39044864Y-48223401D01*
X38920308Y-48150229D01*
X38817838Y-48106264D01*
X38786755Y-48103530D01*
X38731954Y-48070407D01*
X38685991Y-48003585D01*
X38610976Y-47913697D01*
X38557306Y-47890011D01*
X38490430Y-47851848D01*
X38365646Y-47751046D01*
X38203189Y-47606434D01*
X38023299Y-47436841D01*
X37846213Y-47261096D01*
X37692168Y-47098027D01*
X37670087Y-47072814D01*
X37218736Y-47072814D01*
X37190514Y-47101036D01*
X37162292Y-47072814D01*
X37190514Y-47044592D01*
X37218736Y-47072814D01*
X37670087Y-47072814D01*
X37631026Y-47028215D01*
X37531591Y-46900479D01*
X37403252Y-46722689D01*
X37306663Y-46582023D01*
X37194092Y-46415862D01*
X37102203Y-46283825D01*
X37056637Y-46221956D01*
X37000436Y-46123714D01*
X36920367Y-45947553D01*
X36827766Y-45722814D01*
X36733965Y-45478839D01*
X36650299Y-45244968D01*
X36588102Y-45050544D01*
X36560456Y-44937452D01*
X36529339Y-44804429D01*
X36493355Y-44775976D01*
X36473314Y-44796341D01*
X36441406Y-44825417D01*
X36454058Y-44753270D01*
X36454096Y-44753133D01*
X36458634Y-44645703D01*
X34396514Y-44645703D01*
X34368292Y-44673925D01*
X34340070Y-44645703D01*
X34368292Y-44617480D01*
X34396514Y-44645703D01*
X36458634Y-44645703D01*
X36459186Y-44632649D01*
X36436233Y-44453392D01*
X36410490Y-44335535D01*
X36388752Y-44250592D01*
X34565847Y-44250592D01*
X34537625Y-44278814D01*
X34509403Y-44250592D01*
X34537625Y-44222369D01*
X34565847Y-44250592D01*
X36388752Y-44250592D01*
X36333906Y-44036284D01*
X35855702Y-43912433D01*
X35512460Y-43842702D01*
X35237983Y-43835981D01*
X35005233Y-43895560D01*
X34787174Y-44024736D01*
X34759573Y-44045964D01*
X34635374Y-44128023D01*
X34539184Y-44165666D01*
X34534045Y-44165925D01*
X34435707Y-44202744D01*
X34381481Y-44245466D01*
X34262905Y-44316923D01*
X34165783Y-44344243D01*
X34081379Y-44368980D01*
X34042349Y-44433123D01*
X34032933Y-44569189D01*
X34033348Y-44617480D01*
X34045602Y-45015353D01*
X34069837Y-45310410D01*
X34107164Y-45512200D01*
X34149321Y-45616412D01*
X34194881Y-45746459D01*
X34189151Y-45836241D01*
X34198358Y-45949347D01*
X34241017Y-45996830D01*
X34297540Y-46075570D01*
X34378557Y-46234828D01*
X34472797Y-46448049D01*
X34568990Y-46688677D01*
X34655866Y-46930155D01*
X34709630Y-47101036D01*
X34758475Y-47224322D01*
X34841265Y-47391559D01*
X34941969Y-47574998D01*
X35044556Y-47746889D01*
X35132994Y-47879482D01*
X35191252Y-47945028D01*
X35198759Y-47947703D01*
X35240884Y-47991943D01*
X35243181Y-48012445D01*
X35280058Y-48095599D01*
X35379760Y-48238373D01*
X35525894Y-48419958D01*
X35702067Y-48619547D01*
X35817725Y-48741705D01*
X35978151Y-48916423D01*
X36138828Y-49106290D01*
X36171229Y-49147147D01*
X36280288Y-49272368D01*
X36369202Y-49348752D01*
X36396331Y-49359637D01*
X36462299Y-49397923D01*
X36581643Y-49498421D01*
X36730652Y-49640873D01*
X36758261Y-49668861D01*
X36930016Y-49827423D01*
X37098919Y-49955140D01*
X37230405Y-50026105D01*
X37238039Y-50028488D01*
X37343968Y-50072913D01*
X37495544Y-50153269D01*
X37670383Y-50255383D01*
X37846100Y-50365085D01*
X38000310Y-50468205D01*
X38110629Y-50550573D01*
X38154672Y-50598017D01*
X38147423Y-50604169D01*
X38151245Y-50625072D01*
X38234736Y-50669377D01*
X38367074Y-50711671D01*
X38450590Y-50718807D01*
X38558560Y-50740610D01*
X38592147Y-50762058D01*
X38700175Y-50823615D01*
X38870034Y-50894780D01*
X39055281Y-50958742D01*
X39209470Y-50998689D01*
X39261637Y-51004394D01*
X39330080Y-51036034D01*
X39328949Y-51076835D01*
X39345271Y-51150287D01*
X39422191Y-51193771D01*
X39507791Y-51186530D01*
X39536246Y-51159716D01*
X39609986Y-51123061D01*
X39640457Y-51133483D01*
X39675788Y-51206476D01*
X39665731Y-51234973D01*
X39667857Y-51273047D01*
X39724562Y-51259797D01*
X39838943Y-51247797D01*
X40005234Y-51263532D01*
X40058377Y-51273661D01*
X40266665Y-51313006D01*
X40503277Y-51349889D01*
X40577181Y-51359634D01*
X40791124Y-51388386D01*
X40995197Y-51419518D01*
X41056958Y-51430102D01*
X41158666Y-51439675D01*
X41342074Y-51448822D01*
X41585172Y-51457176D01*
X41865955Y-51464374D01*
X42162412Y-51470047D01*
X42452535Y-51473832D01*
X42714317Y-51475363D01*
X42925749Y-51474273D01*
X43064823Y-51470197D01*
X43109617Y-51464207D01*
X43167145Y-51450692D01*
X43293518Y-51432263D01*
X43316602Y-51429420D01*
X43475155Y-51403599D01*
X43538494Y-51387139D01*
X43526675Y-51387139D01*
X43518954Y-51390814D01*
X43482370Y-51362592D01*
X43201847Y-51362592D01*
X43173625Y-51390814D01*
X43145403Y-51362592D01*
X43173625Y-51334369D01*
X43201847Y-51362592D01*
X43482370Y-51362592D01*
X43467444Y-51351078D01*
X43455847Y-51334369D01*
X43441464Y-51281600D01*
X43449185Y-51277925D01*
X43500695Y-51317661D01*
X43512292Y-51334369D01*
X43526675Y-51387139D01*
X43538494Y-51387139D01*
X43592625Y-51373072D01*
X43596958Y-51371369D01*
X43734510Y-51324372D01*
X43930226Y-51267889D01*
X44144240Y-51212210D01*
X44336682Y-51167621D01*
X44467686Y-51144412D01*
X44480569Y-51143354D01*
X44566460Y-51123382D01*
X44577901Y-51097532D01*
X44609541Y-51060701D01*
X44717008Y-51015967D01*
X44864790Y-50974052D01*
X45017372Y-50945677D01*
X45101175Y-50939573D01*
X45210029Y-50908728D01*
X45224374Y-50901629D01*
X44424810Y-50901629D01*
X44417062Y-50935185D01*
X44387181Y-50939258D01*
X44340721Y-50918606D01*
X44349551Y-50901629D01*
X44416537Y-50894873D01*
X44424810Y-50901629D01*
X45224374Y-50901629D01*
X45371573Y-50828789D01*
X45524509Y-50734280D01*
X45849680Y-50522512D01*
X46102294Y-50377381D01*
X46277971Y-50301150D01*
X46372328Y-50296079D01*
X46372747Y-50296334D01*
X46410195Y-50301583D01*
X46397881Y-50273126D01*
X46409640Y-50203519D01*
X46489303Y-50127376D01*
X46596825Y-50071184D01*
X46692161Y-50061434D01*
X46707642Y-50068225D01*
X46749444Y-50077432D01*
X46739890Y-50052756D01*
X46766475Y-49996272D01*
X46866012Y-49888241D01*
X47021664Y-49745540D01*
X47168613Y-49623090D01*
X47384365Y-49443282D01*
X47585152Y-49264169D01*
X47742105Y-49112049D01*
X47802070Y-49046075D01*
X47836320Y-49006652D01*
X40863144Y-49006652D01*
X40807662Y-49015691D01*
X40734453Y-49005313D01*
X40733579Y-48986045D01*
X40809124Y-48972571D01*
X40841764Y-48981589D01*
X40863144Y-49006652D01*
X47836320Y-49006652D01*
X47928227Y-48900866D01*
X48097646Y-48715144D01*
X48274124Y-48528579D01*
X48277795Y-48524783D01*
X48457650Y-48318999D01*
X48629554Y-48089288D01*
X48665049Y-48032369D01*
X48056070Y-48032369D01*
X48027847Y-48060592D01*
X47999625Y-48032369D01*
X48027847Y-48004147D01*
X48056070Y-48032369D01*
X48665049Y-48032369D01*
X48742957Y-47907438D01*
X45563415Y-47907438D01*
X45549682Y-47938981D01*
X45492848Y-47999577D01*
X45460175Y-47987147D01*
X45459625Y-47979256D01*
X45499716Y-47931514D01*
X45524791Y-47914090D01*
X45563415Y-47907438D01*
X48742957Y-47907438D01*
X48751047Y-47894466D01*
X48871150Y-47679822D01*
X49000137Y-47465901D01*
X49072265Y-47355036D01*
X49187962Y-47170457D01*
X49216294Y-47119851D01*
X45610144Y-47119851D01*
X45602396Y-47153407D01*
X45572514Y-47157480D01*
X45526054Y-47136828D01*
X45534884Y-47119851D01*
X45601871Y-47113095D01*
X45610144Y-47119851D01*
X49216294Y-47119851D01*
X49315218Y-46943156D01*
X49423215Y-46734147D01*
X44725847Y-46734147D01*
X44697625Y-46762369D01*
X44669403Y-46734147D01*
X44697625Y-46705925D01*
X44725847Y-46734147D01*
X49423215Y-46734147D01*
X49441425Y-46698907D01*
X49451562Y-46677703D01*
X45177403Y-46677703D01*
X45149181Y-46705925D01*
X45120958Y-46677703D01*
X45149181Y-46649480D01*
X45177403Y-46677703D01*
X49451562Y-46677703D01*
X49553974Y-46463484D01*
X49640257Y-46262659D01*
X49687664Y-46122206D01*
X49692958Y-46086289D01*
X49657899Y-45994089D01*
X49581302Y-45976585D01*
X49506037Y-46033511D01*
X49482868Y-46087588D01*
X49409818Y-46189622D01*
X49265609Y-46294046D01*
X49089302Y-46378839D01*
X48919958Y-46421985D01*
X48886602Y-46423703D01*
X48751839Y-46381072D01*
X48660817Y-46310814D01*
X48225403Y-46310814D01*
X48204751Y-46357274D01*
X48187773Y-46348443D01*
X48181018Y-46281457D01*
X48187773Y-46273184D01*
X48221329Y-46280932D01*
X48225403Y-46310814D01*
X48660817Y-46310814D01*
X48618124Y-46277861D01*
X48526030Y-46151088D01*
X48507625Y-46077930D01*
X48543752Y-45975336D01*
X48611930Y-45881475D01*
X48685887Y-45743269D01*
X48679505Y-45718147D01*
X48451181Y-45718147D01*
X48422958Y-45746369D01*
X48394736Y-45718147D01*
X48422958Y-45689925D01*
X48451181Y-45718147D01*
X48679505Y-45718147D01*
X48665165Y-45661703D01*
X47717403Y-45661703D01*
X47689181Y-45689925D01*
X47660958Y-45661703D01*
X47689181Y-45633480D01*
X47717403Y-45661703D01*
X48665165Y-45661703D01*
X48653132Y-45614344D01*
X48519810Y-45506687D01*
X48394523Y-45457415D01*
X48192269Y-45360675D01*
X48048115Y-45227198D01*
X47911149Y-45088830D01*
X47722641Y-44961761D01*
X47526791Y-44871644D01*
X47386576Y-44843258D01*
X47293023Y-44887351D01*
X47203162Y-45027735D01*
X47172661Y-45097047D01*
X47106650Y-45244221D01*
X47054967Y-45335915D01*
X47038782Y-45351047D01*
X46979912Y-45322444D01*
X46855521Y-45247621D01*
X46709300Y-45153703D01*
X46549896Y-45051468D01*
X46430635Y-44980087D01*
X46380634Y-44956147D01*
X46320130Y-44926553D01*
X46208400Y-44853755D01*
X46186002Y-44837988D01*
X46054145Y-44767310D01*
X45948031Y-44748665D01*
X45937479Y-44751519D01*
X45846795Y-44733087D01*
X45717182Y-44642176D01*
X45665589Y-44593903D01*
X45526772Y-44471437D01*
X45399224Y-44385078D01*
X45360279Y-44367779D01*
X45251573Y-44302168D01*
X45212611Y-44248443D01*
X45136830Y-44174718D01*
X45094937Y-44165925D01*
X44987744Y-44126163D01*
X44923583Y-44081258D01*
X41169847Y-44081258D01*
X41141625Y-44109480D01*
X41113403Y-44081258D01*
X41141625Y-44053036D01*
X41169847Y-44081258D01*
X44923583Y-44081258D01*
X44838466Y-44021687D01*
X44677042Y-43874709D01*
X44619468Y-43813147D01*
X44601667Y-43799036D01*
X44556514Y-43799036D01*
X44528292Y-43827258D01*
X44500070Y-43799036D01*
X44528292Y-43770814D01*
X44556514Y-43799036D01*
X44601667Y-43799036D01*
X44520665Y-43734828D01*
X44457532Y-43714369D01*
X44374664Y-43668929D01*
X44351148Y-43629703D01*
X44280080Y-43554687D01*
X44240031Y-43545036D01*
X44141530Y-43508023D01*
X44061981Y-43446258D01*
X43927211Y-43327032D01*
X43761370Y-43200117D01*
X43594687Y-43086302D01*
X43457386Y-43006379D01*
X43384952Y-42980592D01*
X43335583Y-42950102D01*
X43342958Y-42924147D01*
X43340136Y-42872062D01*
X43320976Y-42867703D01*
X43260548Y-42839480D01*
X42750292Y-42839480D01*
X42722070Y-42867703D01*
X42693847Y-42839480D01*
X42722070Y-42811258D01*
X42750292Y-42839480D01*
X43260548Y-42839480D01*
X43245288Y-42832353D01*
X43132650Y-42745402D01*
X43111847Y-42726592D01*
X39250736Y-42726592D01*
X39222514Y-42754814D01*
X39194292Y-42726592D01*
X39222514Y-42698369D01*
X39250736Y-42726592D01*
X43111847Y-42726592D01*
X42991277Y-42632851D01*
X42893618Y-42586532D01*
X42883161Y-42585480D01*
X42813459Y-42554840D01*
X42806736Y-42533640D01*
X42780796Y-42500814D01*
X38742736Y-42500814D01*
X38714514Y-42529036D01*
X38686292Y-42500814D01*
X38714514Y-42472592D01*
X38742736Y-42500814D01*
X42780796Y-42500814D01*
X42763287Y-42478659D01*
X42657536Y-42394785D01*
X42526380Y-42307014D01*
X42406714Y-42240339D01*
X42342157Y-42218922D01*
X42283343Y-42177326D01*
X42207929Y-42085843D01*
X42133195Y-42000912D01*
X42081758Y-42009084D01*
X42066596Y-42029398D01*
X42026786Y-42073955D01*
X42020757Y-42039851D01*
X41715477Y-42039851D01*
X41707729Y-42073407D01*
X41677847Y-42077480D01*
X41631387Y-42056828D01*
X41640218Y-42039851D01*
X41707204Y-42033095D01*
X41715477Y-42039851D01*
X42020757Y-42039851D01*
X42017378Y-42020739D01*
X41973456Y-41955388D01*
X41855042Y-41843282D01*
X41830817Y-41823480D01*
X37952514Y-41823480D01*
X37924292Y-41851703D01*
X37896070Y-41823480D01*
X37924292Y-41795258D01*
X37952514Y-41823480D01*
X41830817Y-41823480D01*
X41681054Y-41701061D01*
X41503963Y-41569184D01*
X41244102Y-41381642D01*
X41076531Y-41259036D01*
X37105847Y-41259036D01*
X37077625Y-41287258D01*
X37049403Y-41259036D01*
X37077625Y-41230814D01*
X37105847Y-41259036D01*
X41076531Y-41259036D01*
X40969741Y-41180902D01*
X40722823Y-40997755D01*
X40614963Y-40916481D01*
X40607574Y-40910962D01*
X35675921Y-40910962D01*
X35668173Y-40944518D01*
X35638292Y-40948592D01*
X35591832Y-40927939D01*
X35600662Y-40910962D01*
X35667649Y-40904207D01*
X35675921Y-40910962D01*
X40607574Y-40910962D01*
X40377004Y-40738766D01*
X40237786Y-40638147D01*
X39928070Y-40638147D01*
X39899847Y-40666369D01*
X39871625Y-40638147D01*
X39899847Y-40609925D01*
X39928070Y-40638147D01*
X40237786Y-40638147D01*
X40147015Y-40572543D01*
X39942792Y-40430068D01*
X39782134Y-40323595D01*
X39682837Y-40265380D01*
X39659958Y-40258838D01*
X39637932Y-40231703D01*
X39637338Y-40228925D01*
X39576204Y-40147433D01*
X39458997Y-40075548D01*
X39349514Y-40047276D01*
X39272938Y-40026262D01*
X39264847Y-40003147D01*
X39253091Y-39958941D01*
X39250736Y-39958599D01*
X39192767Y-39924103D01*
X39090111Y-39843283D01*
X39081403Y-39835888D01*
X38936887Y-39713570D01*
X38815689Y-39612326D01*
X38771800Y-39565703D01*
X38573403Y-39565703D01*
X38545181Y-39593925D01*
X38516958Y-39565703D01*
X38545181Y-39537480D01*
X38573403Y-39565703D01*
X38771800Y-39565703D01*
X38717977Y-39508529D01*
X38674578Y-39425935D01*
X38616389Y-39303075D01*
X38520149Y-39215241D01*
X38464546Y-39198814D01*
X38405080Y-39173435D01*
X38438275Y-39104035D01*
X38557725Y-39000717D01*
X38615736Y-38960397D01*
X38860376Y-38802165D01*
X39051930Y-38687527D01*
X39178996Y-38622668D01*
X39230175Y-38613776D01*
X39225558Y-38629444D01*
X39234324Y-38649651D01*
X39302508Y-38621228D01*
X39398872Y-38562815D01*
X39492177Y-38493051D01*
X39546205Y-38438117D01*
X39584117Y-38415137D01*
X39588539Y-38431451D01*
X39623586Y-38437423D01*
X39698735Y-38383588D01*
X39800702Y-38322147D01*
X39868068Y-38321727D01*
X39922911Y-38327229D01*
X39928070Y-38311129D01*
X39974980Y-38266762D01*
X40026532Y-38255438D01*
X35798527Y-38255438D01*
X35784793Y-38286981D01*
X35727959Y-38347577D01*
X35695286Y-38335147D01*
X35694736Y-38327256D01*
X35734828Y-38279514D01*
X35759902Y-38262090D01*
X35798527Y-38255438D01*
X40026532Y-38255438D01*
X40026847Y-38255369D01*
X40169299Y-38230836D01*
X40350866Y-38183157D01*
X40535622Y-38123990D01*
X40687637Y-38064995D01*
X40770985Y-38017832D01*
X40775368Y-38012458D01*
X40847672Y-37974035D01*
X40994974Y-37937655D01*
X41117656Y-37919427D01*
X41456063Y-37849117D01*
X41756425Y-37708559D01*
X41914203Y-37601621D01*
X42058567Y-37451556D01*
X42097713Y-37364369D01*
X41960070Y-37364369D01*
X41931847Y-37392592D01*
X41903625Y-37364369D01*
X41931847Y-37336147D01*
X41960070Y-37364369D01*
X42097713Y-37364369D01*
X42153484Y-37240158D01*
X42205364Y-36986253D01*
X42251597Y-36787185D01*
X42324620Y-36587283D01*
X42330084Y-36575533D01*
X42399424Y-36320869D01*
X42394262Y-36178572D01*
X42386696Y-36039890D01*
X42409663Y-35955804D01*
X42415342Y-35950961D01*
X42455781Y-35870189D01*
X42467173Y-35728399D01*
X42451909Y-35572994D01*
X42412380Y-35451381D01*
X42407534Y-35445258D01*
X42016514Y-35445258D01*
X41988292Y-35473480D01*
X41960070Y-35445258D01*
X41564958Y-35445258D01*
X41536736Y-35473480D01*
X41508514Y-35445258D01*
X41536736Y-35417036D01*
X41564958Y-35445258D01*
X41960070Y-35445258D01*
X41988292Y-35417036D01*
X42016514Y-35445258D01*
X42407534Y-35445258D01*
X42388627Y-35421372D01*
X42287869Y-35373224D01*
X42123507Y-35326689D01*
X42035849Y-35309374D01*
X41864646Y-35279567D01*
X41738854Y-35255947D01*
X41706070Y-35248821D01*
X41627365Y-35243014D01*
X41621403Y-35244620D01*
X41621403Y-35244620D01*
G37*
X41621403Y-35244620D02*
X41552797Y-35254588D01*
X41412506Y-35267768D01*
X41339181Y-35273466D01*
X41134397Y-35295670D01*
X40889558Y-35332070D01*
X40753170Y-35356483D01*
X40572611Y-35386491D01*
X40441243Y-35398898D01*
X40393673Y-35393454D01*
X40337901Y-35404910D01*
X40284207Y-35447946D01*
X40139696Y-35520795D01*
X39912560Y-35544171D01*
X39790983Y-35537746D01*
X39681341Y-35558891D01*
X39642168Y-35592323D01*
X39564322Y-35639933D01*
X39422274Y-35675950D01*
X39385575Y-35680838D01*
X39219101Y-35717373D01*
X39091547Y-35776119D01*
X39078390Y-35786652D01*
X38963683Y-35854354D01*
X38896845Y-35868591D01*
X38796040Y-35900392D01*
X38770033Y-35926533D01*
X38689903Y-35972967D01*
X38667924Y-35971911D01*
X38559796Y-35978569D01*
X38439709Y-36018010D01*
X38358226Y-36070949D01*
X38347625Y-36094074D01*
X38300595Y-36142203D01*
X38181441Y-36215604D01*
X38023067Y-36298159D01*
X37858376Y-36373750D01*
X37720271Y-36426260D01*
X37642070Y-36439692D01*
X37615999Y-36451311D01*
X37627081Y-36465085D01*
X37622509Y-36523112D01*
X37551259Y-36594097D01*
X37450600Y-36646953D01*
X37396973Y-36657019D01*
X37309860Y-36686559D01*
X37203135Y-36753550D01*
X37113373Y-36830173D01*
X37077152Y-36888610D01*
X37080975Y-36897349D01*
X37054342Y-36942880D01*
X36957891Y-37035707D01*
X36812435Y-37155820D01*
X36810950Y-37156977D01*
X36603119Y-37330706D01*
X36379568Y-37535443D01*
X36241157Y-37672949D01*
X36097947Y-37814640D01*
X35980676Y-37916443D01*
X35914030Y-37956989D01*
X35912958Y-37957036D01*
X35845931Y-37999172D01*
X35736176Y-38111604D01*
X35599295Y-38273370D01*
X35450885Y-38463505D01*
X35306548Y-38661048D01*
X35181882Y-38845033D01*
X35092488Y-38994498D01*
X35053964Y-39088481D01*
X35057253Y-39106960D01*
X35046484Y-39166814D01*
X34973963Y-39269452D01*
X34948066Y-39298180D01*
X34750373Y-39557081D01*
X34602355Y-39847602D01*
X34530467Y-40105362D01*
X34524700Y-40266834D01*
X34573416Y-40401005D01*
X34659997Y-40522472D01*
X34772155Y-40643592D01*
X34868131Y-40714841D01*
X34895611Y-40722812D01*
X34990418Y-40755533D01*
X35113180Y-40834362D01*
X35114890Y-40835703D01*
X35241773Y-40915340D01*
X35345719Y-40948591D01*
X35345933Y-40948592D01*
X35447557Y-40984971D01*
X35559867Y-41067345D01*
X35633805Y-41122346D01*
X35733160Y-41160513D01*
X35881937Y-41186701D01*
X36104139Y-41205768D01*
X36297283Y-41216541D01*
X36576591Y-41232993D01*
X36771890Y-41253724D01*
X36912035Y-41285266D01*
X37025886Y-41334149D01*
X37142297Y-41406906D01*
X37144240Y-41408233D01*
X37292338Y-41501388D01*
X37407614Y-41559630D01*
X37443904Y-41569480D01*
X37484615Y-41599627D01*
X37478363Y-41616821D01*
X37504875Y-41669652D01*
X37605576Y-41749092D01*
X37671628Y-41789227D01*
X37829513Y-41886384D01*
X37955384Y-41978192D01*
X37981821Y-42001962D01*
X38069408Y-42078255D01*
X38208827Y-42188385D01*
X38373878Y-42313037D01*
X38538359Y-42432897D01*
X38676071Y-42528652D01*
X38760812Y-42580987D01*
X38773403Y-42585480D01*
X38842228Y-42617740D01*
X38967719Y-42700074D01*
X39119382Y-42810814D01*
X39266721Y-42928295D01*
X39316705Y-42971508D01*
X39442195Y-43055489D01*
X39534109Y-43064396D01*
X39537093Y-43062703D01*
X39580589Y-43051612D01*
X39568321Y-43081927D01*
X39582181Y-43150701D01*
X39658378Y-43211987D01*
X39766508Y-43276829D01*
X39815181Y-43316774D01*
X39884462Y-43381815D01*
X40009491Y-43480407D01*
X40159433Y-43590387D01*
X40303456Y-43689595D01*
X40410726Y-43755868D01*
X40446882Y-43770814D01*
X40516541Y-43808585D01*
X40618072Y-43900652D01*
X40628682Y-43911925D01*
X40732479Y-44007892D01*
X40810126Y-44052615D01*
X40814794Y-44053036D01*
X40889226Y-44091392D01*
X40977655Y-44173984D01*
X41075542Y-44261401D01*
X41238281Y-44384314D01*
X41434448Y-44519273D01*
X41480292Y-44549102D01*
X41701089Y-44697085D01*
X41916315Y-44851220D01*
X42083102Y-44980691D01*
X42097230Y-44992598D01*
X42237943Y-45101132D01*
X42352796Y-45169623D01*
X42393563Y-45181925D01*
X42461917Y-45215514D01*
X42468070Y-45237612D01*
X42515100Y-45293228D01*
X42631560Y-45360775D01*
X42665625Y-45375843D01*
X42793240Y-45442726D01*
X42860232Y-45504298D01*
X42863181Y-45515332D01*
X42907875Y-45574646D01*
X43021737Y-45662230D01*
X43103070Y-45713500D01*
X43273273Y-45831765D01*
X43417658Y-45962199D01*
X43455847Y-46007359D01*
X43561970Y-46125768D01*
X43719602Y-46274036D01*
X43850958Y-46384637D01*
X43994329Y-46508119D01*
X44090403Y-46609028D01*
X44117671Y-46661797D01*
X44137938Y-46688163D01*
X44161567Y-46677601D01*
X44235035Y-46690274D01*
X44345675Y-46766784D01*
X44381874Y-46800406D01*
X44549537Y-46959242D01*
X44685880Y-47066236D01*
X44833644Y-47154742D01*
X44841127Y-47158760D01*
X44973935Y-47242688D01*
X45053270Y-47307506D01*
X45154272Y-47372436D01*
X45203165Y-47383258D01*
X45285899Y-47426291D01*
X45364249Y-47515947D01*
X45401985Y-47582951D01*
X45404422Y-47641585D01*
X45358548Y-47712005D01*
X45251353Y-47814369D01*
X45074408Y-47964988D01*
X44566042Y-48326190D01*
X43981300Y-48626078D01*
X43345680Y-48851978D01*
X43224046Y-48884777D01*
X42966977Y-48931256D01*
X42629040Y-48964701D01*
X42241553Y-48984691D01*
X41835831Y-48990801D01*
X41443189Y-48982608D01*
X41094943Y-48959689D01*
X40822409Y-48921621D01*
X40802958Y-48917502D01*
X40447321Y-48826958D01*
X40089046Y-48714293D01*
X39769765Y-48593521D01*
X39581718Y-48506458D01*
X39428927Y-48437774D01*
X39305933Y-48401134D01*
X39285384Y-48399258D01*
X39206150Y-48376760D01*
X39194292Y-48354984D01*
X39150021Y-48300185D01*
X39044864Y-48223401D01*
X38920308Y-48150229D01*
X38817838Y-48106264D01*
X38786755Y-48103530D01*
X38731954Y-48070407D01*
X38685991Y-48003585D01*
X38610976Y-47913697D01*
X38557306Y-47890011D01*
X38490430Y-47851848D01*
X38365646Y-47751046D01*
X38203189Y-47606434D01*
X38023299Y-47436841D01*
X37846213Y-47261096D01*
X37692168Y-47098027D01*
X37670087Y-47072814D01*
X37218736Y-47072814D01*
X37190514Y-47101036D01*
X37162292Y-47072814D01*
X37190514Y-47044592D01*
X37218736Y-47072814D01*
X37670087Y-47072814D01*
X37631026Y-47028215D01*
X37531591Y-46900479D01*
X37403252Y-46722689D01*
X37306663Y-46582023D01*
X37194092Y-46415862D01*
X37102203Y-46283825D01*
X37056637Y-46221956D01*
X37000436Y-46123714D01*
X36920367Y-45947553D01*
X36827766Y-45722814D01*
X36733965Y-45478839D01*
X36650299Y-45244968D01*
X36588102Y-45050544D01*
X36560456Y-44937452D01*
X36529339Y-44804429D01*
X36493355Y-44775976D01*
X36473314Y-44796341D01*
X36441406Y-44825417D01*
X36454058Y-44753270D01*
X36454096Y-44753133D01*
X36458634Y-44645703D01*
X34396514Y-44645703D01*
X34368292Y-44673925D01*
X34340070Y-44645703D01*
X34368292Y-44617480D01*
X34396514Y-44645703D01*
X36458634Y-44645703D01*
X36459186Y-44632649D01*
X36436233Y-44453392D01*
X36410490Y-44335535D01*
X36388752Y-44250592D01*
X34565847Y-44250592D01*
X34537625Y-44278814D01*
X34509403Y-44250592D01*
X34537625Y-44222369D01*
X34565847Y-44250592D01*
X36388752Y-44250592D01*
X36333906Y-44036284D01*
X35855702Y-43912433D01*
X35512460Y-43842702D01*
X35237983Y-43835981D01*
X35005233Y-43895560D01*
X34787174Y-44024736D01*
X34759573Y-44045964D01*
X34635374Y-44128023D01*
X34539184Y-44165666D01*
X34534045Y-44165925D01*
X34435707Y-44202744D01*
X34381481Y-44245466D01*
X34262905Y-44316923D01*
X34165783Y-44344243D01*
X34081379Y-44368980D01*
X34042349Y-44433123D01*
X34032933Y-44569189D01*
X34033348Y-44617480D01*
X34045602Y-45015353D01*
X34069837Y-45310410D01*
X34107164Y-45512200D01*
X34149321Y-45616412D01*
X34194881Y-45746459D01*
X34189151Y-45836241D01*
X34198358Y-45949347D01*
X34241017Y-45996830D01*
X34297540Y-46075570D01*
X34378557Y-46234828D01*
X34472797Y-46448049D01*
X34568990Y-46688677D01*
X34655866Y-46930155D01*
X34709630Y-47101036D01*
X34758475Y-47224322D01*
X34841265Y-47391559D01*
X34941969Y-47574998D01*
X35044556Y-47746889D01*
X35132994Y-47879482D01*
X35191252Y-47945028D01*
X35198759Y-47947703D01*
X35240884Y-47991943D01*
X35243181Y-48012445D01*
X35280058Y-48095599D01*
X35379760Y-48238373D01*
X35525894Y-48419958D01*
X35702067Y-48619547D01*
X35817725Y-48741705D01*
X35978151Y-48916423D01*
X36138828Y-49106290D01*
X36171229Y-49147147D01*
X36280288Y-49272368D01*
X36369202Y-49348752D01*
X36396331Y-49359637D01*
X36462299Y-49397923D01*
X36581643Y-49498421D01*
X36730652Y-49640873D01*
X36758261Y-49668861D01*
X36930016Y-49827423D01*
X37098919Y-49955140D01*
X37230405Y-50026105D01*
X37238039Y-50028488D01*
X37343968Y-50072913D01*
X37495544Y-50153269D01*
X37670383Y-50255383D01*
X37846100Y-50365085D01*
X38000310Y-50468205D01*
X38110629Y-50550573D01*
X38154672Y-50598017D01*
X38147423Y-50604169D01*
X38151245Y-50625072D01*
X38234736Y-50669377D01*
X38367074Y-50711671D01*
X38450590Y-50718807D01*
X38558560Y-50740610D01*
X38592147Y-50762058D01*
X38700175Y-50823615D01*
X38870034Y-50894780D01*
X39055281Y-50958742D01*
X39209470Y-50998689D01*
X39261637Y-51004394D01*
X39330080Y-51036034D01*
X39328949Y-51076835D01*
X39345271Y-51150287D01*
X39422191Y-51193771D01*
X39507791Y-51186530D01*
X39536246Y-51159716D01*
X39609986Y-51123061D01*
X39640457Y-51133483D01*
X39675788Y-51206476D01*
X39665731Y-51234973D01*
X39667857Y-51273047D01*
X39724562Y-51259797D01*
X39838943Y-51247797D01*
X40005234Y-51263532D01*
X40058377Y-51273661D01*
X40266665Y-51313006D01*
X40503277Y-51349889D01*
X40577181Y-51359634D01*
X40791124Y-51388386D01*
X40995197Y-51419518D01*
X41056958Y-51430102D01*
X41158666Y-51439675D01*
X41342074Y-51448822D01*
X41585172Y-51457176D01*
X41865955Y-51464374D01*
X42162412Y-51470047D01*
X42452535Y-51473832D01*
X42714317Y-51475363D01*
X42925749Y-51474273D01*
X43064823Y-51470197D01*
X43109617Y-51464207D01*
X43167145Y-51450692D01*
X43293518Y-51432263D01*
X43316602Y-51429420D01*
X43475155Y-51403599D01*
X43538494Y-51387139D01*
X43526675Y-51387139D01*
X43518954Y-51390814D01*
X43482370Y-51362592D01*
X43201847Y-51362592D01*
X43173625Y-51390814D01*
X43145403Y-51362592D01*
X43173625Y-51334369D01*
X43201847Y-51362592D01*
X43482370Y-51362592D01*
X43467444Y-51351078D01*
X43455847Y-51334369D01*
X43441464Y-51281600D01*
X43449185Y-51277925D01*
X43500695Y-51317661D01*
X43512292Y-51334369D01*
X43526675Y-51387139D01*
X43538494Y-51387139D01*
X43592625Y-51373072D01*
X43596958Y-51371369D01*
X43734510Y-51324372D01*
X43930226Y-51267889D01*
X44144240Y-51212210D01*
X44336682Y-51167621D01*
X44467686Y-51144412D01*
X44480569Y-51143354D01*
X44566460Y-51123382D01*
X44577901Y-51097532D01*
X44609541Y-51060701D01*
X44717008Y-51015967D01*
X44864790Y-50974052D01*
X45017372Y-50945677D01*
X45101175Y-50939573D01*
X45210029Y-50908728D01*
X45224374Y-50901629D01*
X44424810Y-50901629D01*
X44417062Y-50935185D01*
X44387181Y-50939258D01*
X44340721Y-50918606D01*
X44349551Y-50901629D01*
X44416537Y-50894873D01*
X44424810Y-50901629D01*
X45224374Y-50901629D01*
X45371573Y-50828789D01*
X45524509Y-50734280D01*
X45849680Y-50522512D01*
X46102294Y-50377381D01*
X46277971Y-50301150D01*
X46372328Y-50296079D01*
X46372747Y-50296334D01*
X46410195Y-50301583D01*
X46397881Y-50273126D01*
X46409640Y-50203519D01*
X46489303Y-50127376D01*
X46596825Y-50071184D01*
X46692161Y-50061434D01*
X46707642Y-50068225D01*
X46749444Y-50077432D01*
X46739890Y-50052756D01*
X46766475Y-49996272D01*
X46866012Y-49888241D01*
X47021664Y-49745540D01*
X47168613Y-49623090D01*
X47384365Y-49443282D01*
X47585152Y-49264169D01*
X47742105Y-49112049D01*
X47802070Y-49046075D01*
X47836320Y-49006652D01*
X40863144Y-49006652D01*
X40807662Y-49015691D01*
X40734453Y-49005313D01*
X40733579Y-48986045D01*
X40809124Y-48972571D01*
X40841764Y-48981589D01*
X40863144Y-49006652D01*
X47836320Y-49006652D01*
X47928227Y-48900866D01*
X48097646Y-48715144D01*
X48274124Y-48528579D01*
X48277795Y-48524783D01*
X48457650Y-48318999D01*
X48629554Y-48089288D01*
X48665049Y-48032369D01*
X48056070Y-48032369D01*
X48027847Y-48060592D01*
X47999625Y-48032369D01*
X48027847Y-48004147D01*
X48056070Y-48032369D01*
X48665049Y-48032369D01*
X48742957Y-47907438D01*
X45563415Y-47907438D01*
X45549682Y-47938981D01*
X45492848Y-47999577D01*
X45460175Y-47987147D01*
X45459625Y-47979256D01*
X45499716Y-47931514D01*
X45524791Y-47914090D01*
X45563415Y-47907438D01*
X48742957Y-47907438D01*
X48751047Y-47894466D01*
X48871150Y-47679822D01*
X49000137Y-47465901D01*
X49072265Y-47355036D01*
X49187962Y-47170457D01*
X49216294Y-47119851D01*
X45610144Y-47119851D01*
X45602396Y-47153407D01*
X45572514Y-47157480D01*
X45526054Y-47136828D01*
X45534884Y-47119851D01*
X45601871Y-47113095D01*
X45610144Y-47119851D01*
X49216294Y-47119851D01*
X49315218Y-46943156D01*
X49423215Y-46734147D01*
X44725847Y-46734147D01*
X44697625Y-46762369D01*
X44669403Y-46734147D01*
X44697625Y-46705925D01*
X44725847Y-46734147D01*
X49423215Y-46734147D01*
X49441425Y-46698907D01*
X49451562Y-46677703D01*
X45177403Y-46677703D01*
X45149181Y-46705925D01*
X45120958Y-46677703D01*
X45149181Y-46649480D01*
X45177403Y-46677703D01*
X49451562Y-46677703D01*
X49553974Y-46463484D01*
X49640257Y-46262659D01*
X49687664Y-46122206D01*
X49692958Y-46086289D01*
X49657899Y-45994089D01*
X49581302Y-45976585D01*
X49506037Y-46033511D01*
X49482868Y-46087588D01*
X49409818Y-46189622D01*
X49265609Y-46294046D01*
X49089302Y-46378839D01*
X48919958Y-46421985D01*
X48886602Y-46423703D01*
X48751839Y-46381072D01*
X48660817Y-46310814D01*
X48225403Y-46310814D01*
X48204751Y-46357274D01*
X48187773Y-46348443D01*
X48181018Y-46281457D01*
X48187773Y-46273184D01*
X48221329Y-46280932D01*
X48225403Y-46310814D01*
X48660817Y-46310814D01*
X48618124Y-46277861D01*
X48526030Y-46151088D01*
X48507625Y-46077930D01*
X48543752Y-45975336D01*
X48611930Y-45881475D01*
X48685887Y-45743269D01*
X48679505Y-45718147D01*
X48451181Y-45718147D01*
X48422958Y-45746369D01*
X48394736Y-45718147D01*
X48422958Y-45689925D01*
X48451181Y-45718147D01*
X48679505Y-45718147D01*
X48665165Y-45661703D01*
X47717403Y-45661703D01*
X47689181Y-45689925D01*
X47660958Y-45661703D01*
X47689181Y-45633480D01*
X47717403Y-45661703D01*
X48665165Y-45661703D01*
X48653132Y-45614344D01*
X48519810Y-45506687D01*
X48394523Y-45457415D01*
X48192269Y-45360675D01*
X48048115Y-45227198D01*
X47911149Y-45088830D01*
X47722641Y-44961761D01*
X47526791Y-44871644D01*
X47386576Y-44843258D01*
X47293023Y-44887351D01*
X47203162Y-45027735D01*
X47172661Y-45097047D01*
X47106650Y-45244221D01*
X47054967Y-45335915D01*
X47038782Y-45351047D01*
X46979912Y-45322444D01*
X46855521Y-45247621D01*
X46709300Y-45153703D01*
X46549896Y-45051468D01*
X46430635Y-44980087D01*
X46380634Y-44956147D01*
X46320130Y-44926553D01*
X46208400Y-44853755D01*
X46186002Y-44837988D01*
X46054145Y-44767310D01*
X45948031Y-44748665D01*
X45937479Y-44751519D01*
X45846795Y-44733087D01*
X45717182Y-44642176D01*
X45665589Y-44593903D01*
X45526772Y-44471437D01*
X45399224Y-44385078D01*
X45360279Y-44367779D01*
X45251573Y-44302168D01*
X45212611Y-44248443D01*
X45136830Y-44174718D01*
X45094937Y-44165925D01*
X44987744Y-44126163D01*
X44923583Y-44081258D01*
X41169847Y-44081258D01*
X41141625Y-44109480D01*
X41113403Y-44081258D01*
X41141625Y-44053036D01*
X41169847Y-44081258D01*
X44923583Y-44081258D01*
X44838466Y-44021687D01*
X44677042Y-43874709D01*
X44619468Y-43813147D01*
X44601667Y-43799036D01*
X44556514Y-43799036D01*
X44528292Y-43827258D01*
X44500070Y-43799036D01*
X44528292Y-43770814D01*
X44556514Y-43799036D01*
X44601667Y-43799036D01*
X44520665Y-43734828D01*
X44457532Y-43714369D01*
X44374664Y-43668929D01*
X44351148Y-43629703D01*
X44280080Y-43554687D01*
X44240031Y-43545036D01*
X44141530Y-43508023D01*
X44061981Y-43446258D01*
X43927211Y-43327032D01*
X43761370Y-43200117D01*
X43594687Y-43086302D01*
X43457386Y-43006379D01*
X43384952Y-42980592D01*
X43335583Y-42950102D01*
X43342958Y-42924147D01*
X43340136Y-42872062D01*
X43320976Y-42867703D01*
X43260548Y-42839480D01*
X42750292Y-42839480D01*
X42722070Y-42867703D01*
X42693847Y-42839480D01*
X42722070Y-42811258D01*
X42750292Y-42839480D01*
X43260548Y-42839480D01*
X43245288Y-42832353D01*
X43132650Y-42745402D01*
X43111847Y-42726592D01*
X39250736Y-42726592D01*
X39222514Y-42754814D01*
X39194292Y-42726592D01*
X39222514Y-42698369D01*
X39250736Y-42726592D01*
X43111847Y-42726592D01*
X42991277Y-42632851D01*
X42893618Y-42586532D01*
X42883161Y-42585480D01*
X42813459Y-42554840D01*
X42806736Y-42533640D01*
X42780796Y-42500814D01*
X38742736Y-42500814D01*
X38714514Y-42529036D01*
X38686292Y-42500814D01*
X38714514Y-42472592D01*
X38742736Y-42500814D01*
X42780796Y-42500814D01*
X42763287Y-42478659D01*
X42657536Y-42394785D01*
X42526380Y-42307014D01*
X42406714Y-42240339D01*
X42342157Y-42218922D01*
X42283343Y-42177326D01*
X42207929Y-42085843D01*
X42133195Y-42000912D01*
X42081758Y-42009084D01*
X42066596Y-42029398D01*
X42026786Y-42073955D01*
X42020757Y-42039851D01*
X41715477Y-42039851D01*
X41707729Y-42073407D01*
X41677847Y-42077480D01*
X41631387Y-42056828D01*
X41640218Y-42039851D01*
X41707204Y-42033095D01*
X41715477Y-42039851D01*
X42020757Y-42039851D01*
X42017378Y-42020739D01*
X41973456Y-41955388D01*
X41855042Y-41843282D01*
X41830817Y-41823480D01*
X37952514Y-41823480D01*
X37924292Y-41851703D01*
X37896070Y-41823480D01*
X37924292Y-41795258D01*
X37952514Y-41823480D01*
X41830817Y-41823480D01*
X41681054Y-41701061D01*
X41503963Y-41569184D01*
X41244102Y-41381642D01*
X41076531Y-41259036D01*
X37105847Y-41259036D01*
X37077625Y-41287258D01*
X37049403Y-41259036D01*
X37077625Y-41230814D01*
X37105847Y-41259036D01*
X41076531Y-41259036D01*
X40969741Y-41180902D01*
X40722823Y-40997755D01*
X40614963Y-40916481D01*
X40607574Y-40910962D01*
X35675921Y-40910962D01*
X35668173Y-40944518D01*
X35638292Y-40948592D01*
X35591832Y-40927939D01*
X35600662Y-40910962D01*
X35667649Y-40904207D01*
X35675921Y-40910962D01*
X40607574Y-40910962D01*
X40377004Y-40738766D01*
X40237786Y-40638147D01*
X39928070Y-40638147D01*
X39899847Y-40666369D01*
X39871625Y-40638147D01*
X39899847Y-40609925D01*
X39928070Y-40638147D01*
X40237786Y-40638147D01*
X40147015Y-40572543D01*
X39942792Y-40430068D01*
X39782134Y-40323595D01*
X39682837Y-40265380D01*
X39659958Y-40258838D01*
X39637932Y-40231703D01*
X39637338Y-40228925D01*
X39576204Y-40147433D01*
X39458997Y-40075548D01*
X39349514Y-40047276D01*
X39272938Y-40026262D01*
X39264847Y-40003147D01*
X39253091Y-39958941D01*
X39250736Y-39958599D01*
X39192767Y-39924103D01*
X39090111Y-39843283D01*
X39081403Y-39835888D01*
X38936887Y-39713570D01*
X38815689Y-39612326D01*
X38771800Y-39565703D01*
X38573403Y-39565703D01*
X38545181Y-39593925D01*
X38516958Y-39565703D01*
X38545181Y-39537480D01*
X38573403Y-39565703D01*
X38771800Y-39565703D01*
X38717977Y-39508529D01*
X38674578Y-39425935D01*
X38616389Y-39303075D01*
X38520149Y-39215241D01*
X38464546Y-39198814D01*
X38405080Y-39173435D01*
X38438275Y-39104035D01*
X38557725Y-39000717D01*
X38615736Y-38960397D01*
X38860376Y-38802165D01*
X39051930Y-38687527D01*
X39178996Y-38622668D01*
X39230175Y-38613776D01*
X39225558Y-38629444D01*
X39234324Y-38649651D01*
X39302508Y-38621228D01*
X39398872Y-38562815D01*
X39492177Y-38493051D01*
X39546205Y-38438117D01*
X39584117Y-38415137D01*
X39588539Y-38431451D01*
X39623586Y-38437423D01*
X39698735Y-38383588D01*
X39800702Y-38322147D01*
X39868068Y-38321727D01*
X39922911Y-38327229D01*
X39928070Y-38311129D01*
X39974980Y-38266762D01*
X40026532Y-38255438D01*
X35798527Y-38255438D01*
X35784793Y-38286981D01*
X35727959Y-38347577D01*
X35695286Y-38335147D01*
X35694736Y-38327256D01*
X35734828Y-38279514D01*
X35759902Y-38262090D01*
X35798527Y-38255438D01*
X40026532Y-38255438D01*
X40026847Y-38255369D01*
X40169299Y-38230836D01*
X40350866Y-38183157D01*
X40535622Y-38123990D01*
X40687637Y-38064995D01*
X40770985Y-38017832D01*
X40775368Y-38012458D01*
X40847672Y-37974035D01*
X40994974Y-37937655D01*
X41117656Y-37919427D01*
X41456063Y-37849117D01*
X41756425Y-37708559D01*
X41914203Y-37601621D01*
X42058567Y-37451556D01*
X42097713Y-37364369D01*
X41960070Y-37364369D01*
X41931847Y-37392592D01*
X41903625Y-37364369D01*
X41931847Y-37336147D01*
X41960070Y-37364369D01*
X42097713Y-37364369D01*
X42153484Y-37240158D01*
X42205364Y-36986253D01*
X42251597Y-36787185D01*
X42324620Y-36587283D01*
X42330084Y-36575533D01*
X42399424Y-36320869D01*
X42394262Y-36178572D01*
X42386696Y-36039890D01*
X42409663Y-35955804D01*
X42415342Y-35950961D01*
X42455781Y-35870189D01*
X42467173Y-35728399D01*
X42451909Y-35572994D01*
X42412380Y-35451381D01*
X42407534Y-35445258D01*
X42016514Y-35445258D01*
X41988292Y-35473480D01*
X41960070Y-35445258D01*
X41564958Y-35445258D01*
X41536736Y-35473480D01*
X41508514Y-35445258D01*
X41536736Y-35417036D01*
X41564958Y-35445258D01*
X41960070Y-35445258D01*
X41988292Y-35417036D01*
X42016514Y-35445258D01*
X42407534Y-35445258D01*
X42388627Y-35421372D01*
X42287869Y-35373224D01*
X42123507Y-35326689D01*
X42035849Y-35309374D01*
X41864646Y-35279567D01*
X41738854Y-35255947D01*
X41706070Y-35248821D01*
X41627365Y-35243014D01*
X41621403Y-35244620D01*
G36*
X41071070Y-51521238D02*
X41053503Y-51537599D01*
X41131551Y-51546506D01*
X41169847Y-51547052D01*
X41272538Y-51541167D01*
X41284640Y-51526515D01*
X41268625Y-51521238D01*
X41125469Y-51512460D01*
X41071070Y-51521238D01*
X41071070Y-51521238D01*
G37*
X41071070Y-51521238D02*
X41053503Y-51537599D01*
X41131551Y-51546506D01*
X41169847Y-51547052D01*
X41272538Y-51541167D01*
X41284640Y-51526515D01*
X41268625Y-51521238D01*
X41125469Y-51512460D01*
X41071070Y-51521238D01*
G36*
X42580958Y-51531925D02*
X42609181Y-51560147D01*
X42637403Y-51531925D01*
X42609181Y-51503703D01*
X42580958Y-51531925D01*
X42580958Y-51531925D01*
G37*
X42580958Y-51531925D02*
X42609181Y-51560147D01*
X42637403Y-51531925D01*
X42609181Y-51503703D01*
X42580958Y-51531925D01*
G36*
X42750292Y-51531925D02*
X42778514Y-51560147D01*
X42806736Y-51531925D01*
X42778514Y-51503703D01*
X42750292Y-51531925D01*
X42750292Y-51531925D01*
G37*
X42750292Y-51531925D02*
X42778514Y-51560147D01*
X42806736Y-51531925D01*
X42778514Y-51503703D01*
X42750292Y-51531925D01*
D11*
G36*
X82524599Y-66489421D02*
X82724237Y-66529131D01*
X83288401Y-66762815D01*
X83796135Y-67102072D01*
X84227928Y-67533865D01*
X84567185Y-68041599D01*
X84800869Y-68605763D01*
X84800869Y-68605764D01*
X84909864Y-69153717D01*
X84920000Y-69204677D01*
X84920000Y-69815323D01*
X84800869Y-70414237D01*
X84567185Y-70978401D01*
X84227928Y-71486135D01*
X83796135Y-71917928D01*
X83288401Y-72257185D01*
X82724237Y-72490869D01*
X82524599Y-72530579D01*
X82125325Y-72610000D01*
X81514675Y-72610000D01*
X81115401Y-72530579D01*
X80915763Y-72490869D01*
X80351599Y-72257185D01*
X79843865Y-71917928D01*
X79412072Y-71486135D01*
X79072815Y-70978401D01*
X78839131Y-70414237D01*
X78720000Y-69815323D01*
X78720000Y-69204677D01*
X78730137Y-69153717D01*
X78839131Y-68605764D01*
X78839131Y-68605763D01*
X79072815Y-68041599D01*
X79412072Y-67533865D01*
X79843865Y-67102072D01*
X80351599Y-66762815D01*
X80915763Y-66529131D01*
X81115401Y-66489421D01*
X81514675Y-66410000D01*
X82125325Y-66410000D01*
X82524599Y-66489421D01*
X82524599Y-66489421D01*
G37*
G36*
X24524599Y-66489421D02*
X24724237Y-66529131D01*
X25288401Y-66762815D01*
X25796135Y-67102072D01*
X26227928Y-67533865D01*
X26567185Y-68041599D01*
X26800869Y-68605763D01*
X26800869Y-68605764D01*
X26909864Y-69153717D01*
X26920000Y-69204677D01*
X26920000Y-69815323D01*
X26800869Y-70414237D01*
X26567185Y-70978401D01*
X26227928Y-71486135D01*
X25796135Y-71917928D01*
X25288401Y-72257185D01*
X24724237Y-72490869D01*
X24524599Y-72530579D01*
X24125325Y-72610000D01*
X23514675Y-72610000D01*
X23115401Y-72530579D01*
X22915763Y-72490869D01*
X22351599Y-72257185D01*
X21843865Y-71917928D01*
X21412072Y-71486135D01*
X21072815Y-70978401D01*
X20839131Y-70414237D01*
X20720000Y-69815323D01*
X20720000Y-69204677D01*
X20730137Y-69153717D01*
X20839131Y-68605764D01*
X20839131Y-68605763D01*
X21072815Y-68041599D01*
X21412072Y-67533865D01*
X21843865Y-67102072D01*
X22351599Y-66762815D01*
X22915763Y-66529131D01*
X23115401Y-66489421D01*
X23514675Y-66410000D01*
X24125325Y-66410000D01*
X24524599Y-66489421D01*
X24524599Y-66489421D01*
G37*
G36*
X32650000Y-69480000D02*
X30850000Y-69480000D01*
X30850000Y-67680000D01*
X32650000Y-67680000D01*
X32650000Y-69480000D01*
X32650000Y-69480000D01*
G37*
G36*
X34552521Y-67714586D02*
X34716309Y-67782429D01*
X34863720Y-67880926D01*
X34989074Y-68006280D01*
X35087571Y-68153691D01*
X35155414Y-68317479D01*
X35190000Y-68491356D01*
X35190000Y-68668644D01*
X35155414Y-68842521D01*
X35087571Y-69006309D01*
X34989074Y-69153720D01*
X34863720Y-69279074D01*
X34716309Y-69377571D01*
X34552521Y-69445414D01*
X34378644Y-69480000D01*
X34201356Y-69480000D01*
X34027479Y-69445414D01*
X33863691Y-69377571D01*
X33716280Y-69279074D01*
X33590926Y-69153720D01*
X33492429Y-69006309D01*
X33424586Y-68842521D01*
X33390000Y-68668644D01*
X33390000Y-68491356D01*
X33424586Y-68317479D01*
X33492429Y-68153691D01*
X33590926Y-68006280D01*
X33716280Y-67880926D01*
X33863691Y-67782429D01*
X34027479Y-67714586D01*
X34201356Y-67680000D01*
X34378644Y-67680000D01*
X34552521Y-67714586D01*
X34552521Y-67714586D01*
G37*
G36*
X39000000Y-69480000D02*
X37200000Y-69480000D01*
X37200000Y-67680000D01*
X39000000Y-67680000D01*
X39000000Y-69480000D01*
X39000000Y-69480000D01*
G37*
G36*
X40902521Y-67714586D02*
X41066309Y-67782429D01*
X41213720Y-67880926D01*
X41339074Y-68006280D01*
X41437571Y-68153691D01*
X41505414Y-68317479D01*
X41540000Y-68491356D01*
X41540000Y-68668644D01*
X41505414Y-68842521D01*
X41437571Y-69006309D01*
X41339074Y-69153720D01*
X41213720Y-69279074D01*
X41066309Y-69377571D01*
X40902521Y-69445414D01*
X40728644Y-69480000D01*
X40551356Y-69480000D01*
X40377479Y-69445414D01*
X40213691Y-69377571D01*
X40066280Y-69279074D01*
X39940926Y-69153720D01*
X39842429Y-69006309D01*
X39774586Y-68842521D01*
X39740000Y-68668644D01*
X39740000Y-68491356D01*
X39774586Y-68317479D01*
X39842429Y-68153691D01*
X39940926Y-68006280D01*
X40066280Y-67880926D01*
X40213691Y-67782429D01*
X40377479Y-67714586D01*
X40551356Y-67680000D01*
X40728644Y-67680000D01*
X40902521Y-67714586D01*
X40902521Y-67714586D01*
G37*
G36*
X44715000Y-69480000D02*
X42915000Y-69480000D01*
X42915000Y-67680000D01*
X44715000Y-67680000D01*
X44715000Y-69480000D01*
X44715000Y-69480000D01*
G37*
G36*
X46617521Y-67714586D02*
X46781309Y-67782429D01*
X46928720Y-67880926D01*
X47054074Y-68006280D01*
X47152571Y-68153691D01*
X47220414Y-68317479D01*
X47255000Y-68491356D01*
X47255000Y-68668644D01*
X47220414Y-68842521D01*
X47152571Y-69006309D01*
X47054074Y-69153720D01*
X46928720Y-69279074D01*
X46781309Y-69377571D01*
X46617521Y-69445414D01*
X46443644Y-69480000D01*
X46266356Y-69480000D01*
X46092479Y-69445414D01*
X45928691Y-69377571D01*
X45781280Y-69279074D01*
X45655926Y-69153720D01*
X45557429Y-69006309D01*
X45489586Y-68842521D01*
X45455000Y-68668644D01*
X45455000Y-68491356D01*
X45489586Y-68317479D01*
X45557429Y-68153691D01*
X45655926Y-68006280D01*
X45781280Y-67880926D01*
X45928691Y-67782429D01*
X46092479Y-67714586D01*
X46266356Y-67680000D01*
X46443644Y-67680000D01*
X46617521Y-67714586D01*
X46617521Y-67714586D01*
G37*
G36*
X51065000Y-69480000D02*
X49265000Y-69480000D01*
X49265000Y-67680000D01*
X51065000Y-67680000D01*
X51065000Y-69480000D01*
X51065000Y-69480000D01*
G37*
G36*
X52967521Y-67714586D02*
X53131309Y-67782429D01*
X53278720Y-67880926D01*
X53404074Y-68006280D01*
X53502571Y-68153691D01*
X53570414Y-68317479D01*
X53605000Y-68491356D01*
X53605000Y-68668644D01*
X53570414Y-68842521D01*
X53502571Y-69006309D01*
X53404074Y-69153720D01*
X53278720Y-69279074D01*
X53131309Y-69377571D01*
X52967521Y-69445414D01*
X52793644Y-69480000D01*
X52616356Y-69480000D01*
X52442479Y-69445414D01*
X52278691Y-69377571D01*
X52131280Y-69279074D01*
X52005926Y-69153720D01*
X51907429Y-69006309D01*
X51839586Y-68842521D01*
X51805000Y-68668644D01*
X51805000Y-68491356D01*
X51839586Y-68317479D01*
X51907429Y-68153691D01*
X52005926Y-68006280D01*
X52131280Y-67880926D01*
X52278691Y-67782429D01*
X52442479Y-67714586D01*
X52616356Y-67680000D01*
X52793644Y-67680000D01*
X52967521Y-67714586D01*
X52967521Y-67714586D01*
G37*
G36*
X57415000Y-69480000D02*
X55615000Y-69480000D01*
X55615000Y-67680000D01*
X57415000Y-67680000D01*
X57415000Y-69480000D01*
X57415000Y-69480000D01*
G37*
G36*
X59317521Y-67714586D02*
X59481309Y-67782429D01*
X59628720Y-67880926D01*
X59754074Y-68006280D01*
X59852571Y-68153691D01*
X59920414Y-68317479D01*
X59955000Y-68491356D01*
X59955000Y-68668644D01*
X59920414Y-68842521D01*
X59852571Y-69006309D01*
X59754074Y-69153720D01*
X59628720Y-69279074D01*
X59481309Y-69377571D01*
X59317521Y-69445414D01*
X59143644Y-69480000D01*
X58966356Y-69480000D01*
X58792479Y-69445414D01*
X58628691Y-69377571D01*
X58481280Y-69279074D01*
X58355926Y-69153720D01*
X58257429Y-69006309D01*
X58189586Y-68842521D01*
X58155000Y-68668644D01*
X58155000Y-68491356D01*
X58189586Y-68317479D01*
X58257429Y-68153691D01*
X58355926Y-68006280D01*
X58481280Y-67880926D01*
X58628691Y-67782429D01*
X58792479Y-67714586D01*
X58966356Y-67680000D01*
X59143644Y-67680000D01*
X59317521Y-67714586D01*
X59317521Y-67714586D01*
G37*
G36*
X32650000Y-63130000D02*
X30850000Y-63130000D01*
X30850000Y-61330000D01*
X32650000Y-61330000D01*
X32650000Y-63130000D01*
X32650000Y-63130000D01*
G37*
G36*
X57415000Y-63130000D02*
X55615000Y-63130000D01*
X55615000Y-61330000D01*
X57415000Y-61330000D01*
X57415000Y-63130000D01*
X57415000Y-63130000D01*
G37*
G36*
X59317521Y-61364586D02*
X59481309Y-61432429D01*
X59628720Y-61530926D01*
X59754074Y-61656280D01*
X59852571Y-61803691D01*
X59920414Y-61967479D01*
X59955000Y-62141356D01*
X59955000Y-62318644D01*
X59920414Y-62492521D01*
X59852571Y-62656309D01*
X59754074Y-62803720D01*
X59628720Y-62929074D01*
X59481309Y-63027571D01*
X59317521Y-63095414D01*
X59143644Y-63130000D01*
X58966356Y-63130000D01*
X58792479Y-63095414D01*
X58628691Y-63027571D01*
X58481280Y-62929074D01*
X58355926Y-62803720D01*
X58257429Y-62656309D01*
X58189586Y-62492521D01*
X58155000Y-62318644D01*
X58155000Y-62141356D01*
X58189586Y-61967479D01*
X58257429Y-61803691D01*
X58355926Y-61656280D01*
X58481280Y-61530926D01*
X58628691Y-61432429D01*
X58792479Y-61364586D01*
X58966356Y-61330000D01*
X59143644Y-61330000D01*
X59317521Y-61364586D01*
X59317521Y-61364586D01*
G37*
G36*
X51065000Y-63130000D02*
X49265000Y-63130000D01*
X49265000Y-61330000D01*
X51065000Y-61330000D01*
X51065000Y-63130000D01*
X51065000Y-63130000D01*
G37*
G36*
X52967521Y-61364586D02*
X53131309Y-61432429D01*
X53278720Y-61530926D01*
X53404074Y-61656280D01*
X53502571Y-61803691D01*
X53570414Y-61967479D01*
X53605000Y-62141356D01*
X53605000Y-62318644D01*
X53570414Y-62492521D01*
X53502571Y-62656309D01*
X53404074Y-62803720D01*
X53278720Y-62929074D01*
X53131309Y-63027571D01*
X52967521Y-63095414D01*
X52793644Y-63130000D01*
X52616356Y-63130000D01*
X52442479Y-63095414D01*
X52278691Y-63027571D01*
X52131280Y-62929074D01*
X52005926Y-62803720D01*
X51907429Y-62656309D01*
X51839586Y-62492521D01*
X51805000Y-62318644D01*
X51805000Y-62141356D01*
X51839586Y-61967479D01*
X51907429Y-61803691D01*
X52005926Y-61656280D01*
X52131280Y-61530926D01*
X52278691Y-61432429D01*
X52442479Y-61364586D01*
X52616356Y-61330000D01*
X52793644Y-61330000D01*
X52967521Y-61364586D01*
X52967521Y-61364586D01*
G37*
G36*
X44715000Y-63130000D02*
X42915000Y-63130000D01*
X42915000Y-61330000D01*
X44715000Y-61330000D01*
X44715000Y-63130000D01*
X44715000Y-63130000D01*
G37*
G36*
X46617521Y-61364586D02*
X46781309Y-61432429D01*
X46928720Y-61530926D01*
X47054074Y-61656280D01*
X47152571Y-61803691D01*
X47220414Y-61967479D01*
X47255000Y-62141356D01*
X47255000Y-62318644D01*
X47220414Y-62492521D01*
X47152571Y-62656309D01*
X47054074Y-62803720D01*
X46928720Y-62929074D01*
X46781309Y-63027571D01*
X46617521Y-63095414D01*
X46443644Y-63130000D01*
X46266356Y-63130000D01*
X46092479Y-63095414D01*
X45928691Y-63027571D01*
X45781280Y-62929074D01*
X45655926Y-62803720D01*
X45557429Y-62656309D01*
X45489586Y-62492521D01*
X45455000Y-62318644D01*
X45455000Y-62141356D01*
X45489586Y-61967479D01*
X45557429Y-61803691D01*
X45655926Y-61656280D01*
X45781280Y-61530926D01*
X45928691Y-61432429D01*
X46092479Y-61364586D01*
X46266356Y-61330000D01*
X46443644Y-61330000D01*
X46617521Y-61364586D01*
X46617521Y-61364586D01*
G37*
G36*
X34552521Y-61364586D02*
X34716309Y-61432429D01*
X34863720Y-61530926D01*
X34989074Y-61656280D01*
X35087571Y-61803691D01*
X35155414Y-61967479D01*
X35190000Y-62141356D01*
X35190000Y-62318644D01*
X35155414Y-62492521D01*
X35087571Y-62656309D01*
X34989074Y-62803720D01*
X34863720Y-62929074D01*
X34716309Y-63027571D01*
X34552521Y-63095414D01*
X34378644Y-63130000D01*
X34201356Y-63130000D01*
X34027479Y-63095414D01*
X33863691Y-63027571D01*
X33716280Y-62929074D01*
X33590926Y-62803720D01*
X33492429Y-62656309D01*
X33424586Y-62492521D01*
X33390000Y-62318644D01*
X33390000Y-62141356D01*
X33424586Y-61967479D01*
X33492429Y-61803691D01*
X33590926Y-61656280D01*
X33716280Y-61530926D01*
X33863691Y-61432429D01*
X34027479Y-61364586D01*
X34201356Y-61330000D01*
X34378644Y-61330000D01*
X34552521Y-61364586D01*
X34552521Y-61364586D01*
G37*
G36*
X39000000Y-63130000D02*
X37200000Y-63130000D01*
X37200000Y-61330000D01*
X39000000Y-61330000D01*
X39000000Y-63130000D01*
X39000000Y-63130000D01*
G37*
G36*
X40902521Y-61364586D02*
X41066309Y-61432429D01*
X41213720Y-61530926D01*
X41339074Y-61656280D01*
X41437571Y-61803691D01*
X41505414Y-61967479D01*
X41540000Y-62141356D01*
X41540000Y-62318644D01*
X41505414Y-62492521D01*
X41437571Y-62656309D01*
X41339074Y-62803720D01*
X41213720Y-62929074D01*
X41066309Y-63027571D01*
X40902521Y-63095414D01*
X40728644Y-63130000D01*
X40551356Y-63130000D01*
X40377479Y-63095414D01*
X40213691Y-63027571D01*
X40066280Y-62929074D01*
X39940926Y-62803720D01*
X39842429Y-62656309D01*
X39774586Y-62492521D01*
X39740000Y-62318644D01*
X39740000Y-62141356D01*
X39774586Y-61967479D01*
X39842429Y-61803691D01*
X39940926Y-61656280D01*
X40066280Y-61530926D01*
X40213691Y-61432429D01*
X40377479Y-61364586D01*
X40551356Y-61330000D01*
X40728644Y-61330000D01*
X40902521Y-61364586D01*
X40902521Y-61364586D01*
G37*
G36*
X45489435Y-52894429D02*
X45586034Y-52913644D01*
X45859017Y-53026717D01*
X46101420Y-53188687D01*
X46104697Y-53190876D01*
X46313624Y-53399803D01*
X46313626Y-53399806D01*
X46477783Y-53645483D01*
X46590856Y-53918466D01*
X46648500Y-54208263D01*
X46648500Y-54503737D01*
X46590856Y-54793534D01*
X46477783Y-55066517D01*
X46315813Y-55308920D01*
X46313624Y-55312197D01*
X46104697Y-55521124D01*
X46104694Y-55521126D01*
X45859017Y-55685283D01*
X45586034Y-55798356D01*
X45489435Y-55817571D01*
X45296239Y-55856000D01*
X45000761Y-55856000D01*
X44807565Y-55817571D01*
X44710966Y-55798356D01*
X44437983Y-55685283D01*
X44192306Y-55521126D01*
X44192303Y-55521124D01*
X43983376Y-55312197D01*
X43981187Y-55308920D01*
X43819217Y-55066517D01*
X43706144Y-54793534D01*
X43648500Y-54503737D01*
X43648500Y-54208263D01*
X43706144Y-53918466D01*
X43819217Y-53645483D01*
X43983374Y-53399806D01*
X43983376Y-53399803D01*
X44192303Y-53190876D01*
X44195580Y-53188687D01*
X44437983Y-53026717D01*
X44710966Y-52913644D01*
X44807565Y-52894429D01*
X45000761Y-52856000D01*
X45296239Y-52856000D01*
X45489435Y-52894429D01*
X45489435Y-52894429D01*
G37*
G36*
X31916630Y-53772299D02*
X32076855Y-53820903D01*
X32224520Y-53899831D01*
X32353949Y-54006051D01*
X32460169Y-54135480D01*
X32539097Y-54283145D01*
X32587701Y-54443370D01*
X32604112Y-54610000D01*
X32587701Y-54776630D01*
X32539097Y-54936855D01*
X32460169Y-55084520D01*
X32353949Y-55213949D01*
X32224520Y-55320169D01*
X32076855Y-55399097D01*
X31916630Y-55447701D01*
X31791752Y-55460000D01*
X31708248Y-55460000D01*
X31583370Y-55447701D01*
X31423145Y-55399097D01*
X31275480Y-55320169D01*
X31146051Y-55213949D01*
X31039831Y-55084520D01*
X30960903Y-54936855D01*
X30912299Y-54776630D01*
X30895888Y-54610000D01*
X30912299Y-54443370D01*
X30960903Y-54283145D01*
X31039831Y-54135480D01*
X31146051Y-54006051D01*
X31275480Y-53899831D01*
X31423145Y-53820903D01*
X31583370Y-53772299D01*
X31708248Y-53760000D01*
X31791752Y-53760000D01*
X31916630Y-53772299D01*
X31916630Y-53772299D01*
G37*
G36*
X31916630Y-51232299D02*
X32076855Y-51280903D01*
X32224520Y-51359831D01*
X32353949Y-51466051D01*
X32460169Y-51595480D01*
X32539097Y-51743145D01*
X32587701Y-51903370D01*
X32604112Y-52070000D01*
X32587701Y-52236630D01*
X32539097Y-52396855D01*
X32460169Y-52544520D01*
X32353949Y-52673949D01*
X32224520Y-52780169D01*
X32076855Y-52859097D01*
X31916630Y-52907701D01*
X31791752Y-52920000D01*
X31708248Y-52920000D01*
X31583370Y-52907701D01*
X31423145Y-52859097D01*
X31275480Y-52780169D01*
X31146051Y-52673949D01*
X31039831Y-52544520D01*
X30960903Y-52396855D01*
X30912299Y-52236630D01*
X30895888Y-52070000D01*
X30912299Y-51903370D01*
X30960903Y-51743145D01*
X31039831Y-51595480D01*
X31146051Y-51466051D01*
X31275480Y-51359831D01*
X31423145Y-51280903D01*
X31583370Y-51232299D01*
X31708248Y-51220000D01*
X31791752Y-51220000D01*
X31916630Y-51232299D01*
X31916630Y-51232299D01*
G37*
G36*
X55352950Y-52812950D02*
X53867050Y-52812950D01*
X53867050Y-51327050D01*
X55352950Y-51327050D01*
X55352950Y-52812950D01*
X55352950Y-52812950D01*
G37*
G36*
X57366711Y-51355600D02*
X57501919Y-51411606D01*
X57623604Y-51492913D01*
X57727087Y-51596396D01*
X57808394Y-51718081D01*
X57864400Y-51853289D01*
X57892950Y-51996824D01*
X57892950Y-52143176D01*
X57864400Y-52286711D01*
X57808394Y-52421919D01*
X57727087Y-52543604D01*
X57623604Y-52647087D01*
X57501919Y-52728394D01*
X57366711Y-52784400D01*
X57223176Y-52812950D01*
X57076824Y-52812950D01*
X56933289Y-52784400D01*
X56798081Y-52728394D01*
X56676396Y-52647087D01*
X56572913Y-52543604D01*
X56491606Y-52421919D01*
X56435600Y-52286711D01*
X56407050Y-52143176D01*
X56407050Y-51996824D01*
X56435600Y-51853289D01*
X56491606Y-51718081D01*
X56572913Y-51596396D01*
X56676396Y-51492913D01*
X56798081Y-51411606D01*
X56933289Y-51355600D01*
X57076824Y-51327050D01*
X57223176Y-51327050D01*
X57366711Y-51355600D01*
X57366711Y-51355600D01*
G37*
G36*
X56096711Y-49577600D02*
X56231919Y-49633606D01*
X56353604Y-49714913D01*
X56457087Y-49818396D01*
X56538394Y-49940081D01*
X56594400Y-50075289D01*
X56622950Y-50218824D01*
X56622950Y-50365176D01*
X56594400Y-50508711D01*
X56538394Y-50643919D01*
X56457087Y-50765604D01*
X56353604Y-50869087D01*
X56231919Y-50950394D01*
X56096711Y-51006400D01*
X55953176Y-51034950D01*
X55806824Y-51034950D01*
X55663289Y-51006400D01*
X55528081Y-50950394D01*
X55406396Y-50869087D01*
X55302913Y-50765604D01*
X55221606Y-50643919D01*
X55165600Y-50508711D01*
X55137050Y-50365176D01*
X55137050Y-50218824D01*
X55165600Y-50075289D01*
X55221606Y-49940081D01*
X55302913Y-49818396D01*
X55406396Y-49714913D01*
X55528081Y-49633606D01*
X55663289Y-49577600D01*
X55806824Y-49549050D01*
X55953176Y-49549050D01*
X56096711Y-49577600D01*
X56096711Y-49577600D01*
G37*
G36*
X31916630Y-48692299D02*
X32076855Y-48740903D01*
X32224520Y-48819831D01*
X32353949Y-48926051D01*
X32460169Y-49055480D01*
X32539097Y-49203145D01*
X32587701Y-49363370D01*
X32604112Y-49530000D01*
X32587701Y-49696630D01*
X32539097Y-49856855D01*
X32460169Y-50004520D01*
X32353949Y-50133949D01*
X32224520Y-50240169D01*
X32076855Y-50319097D01*
X31916630Y-50367701D01*
X31791752Y-50380000D01*
X31708248Y-50380000D01*
X31583370Y-50367701D01*
X31423145Y-50319097D01*
X31275480Y-50240169D01*
X31146051Y-50133949D01*
X31039831Y-50004520D01*
X30960903Y-49856855D01*
X30912299Y-49696630D01*
X30895888Y-49530000D01*
X30912299Y-49363370D01*
X30960903Y-49203145D01*
X31039831Y-49055480D01*
X31146051Y-48926051D01*
X31275480Y-48819831D01*
X31423145Y-48740903D01*
X31583370Y-48692299D01*
X31708248Y-48680000D01*
X31791752Y-48680000D01*
X31916630Y-48692299D01*
X31916630Y-48692299D01*
G37*
G36*
X75780000Y-49110000D02*
X74080000Y-49110000D01*
X74080000Y-47410000D01*
X75780000Y-47410000D01*
X75780000Y-49110000D01*
X75780000Y-49110000D01*
G37*
G36*
X31916630Y-46152299D02*
X32076855Y-46200903D01*
X32224520Y-46279831D01*
X32353949Y-46386051D01*
X32460169Y-46515480D01*
X32539097Y-46663145D01*
X32587701Y-46823370D01*
X32604112Y-46990000D01*
X32587701Y-47156630D01*
X32539097Y-47316855D01*
X32460169Y-47464520D01*
X32353949Y-47593949D01*
X32224520Y-47700169D01*
X32076855Y-47779097D01*
X31916630Y-47827701D01*
X31791752Y-47840000D01*
X31708248Y-47840000D01*
X31583370Y-47827701D01*
X31423145Y-47779097D01*
X31275480Y-47700169D01*
X31146051Y-47593949D01*
X31039831Y-47464520D01*
X30960903Y-47316855D01*
X30912299Y-47156630D01*
X30895888Y-46990000D01*
X30912299Y-46823370D01*
X30960903Y-46663145D01*
X31039831Y-46515480D01*
X31146051Y-46386051D01*
X31275480Y-46279831D01*
X31423145Y-46200903D01*
X31583370Y-46152299D01*
X31708248Y-46140000D01*
X31791752Y-46140000D01*
X31916630Y-46152299D01*
X31916630Y-46152299D01*
G37*
G36*
X66305000Y-47255000D02*
X64505000Y-47255000D01*
X64505000Y-45455000D01*
X66305000Y-45455000D01*
X66305000Y-47255000D01*
X66305000Y-47255000D01*
G37*
G36*
X68207521Y-45489586D02*
X68371309Y-45557429D01*
X68518720Y-45655926D01*
X68644074Y-45781280D01*
X68742571Y-45928691D01*
X68810414Y-46092479D01*
X68845000Y-46266356D01*
X68845000Y-46443644D01*
X68810414Y-46617521D01*
X68742571Y-46781309D01*
X68644074Y-46928720D01*
X68518720Y-47054074D01*
X68371309Y-47152571D01*
X68207521Y-47220414D01*
X68033644Y-47255000D01*
X67856356Y-47255000D01*
X67682479Y-47220414D01*
X67518691Y-47152571D01*
X67371280Y-47054074D01*
X67245926Y-46928720D01*
X67147429Y-46781309D01*
X67079586Y-46617521D01*
X67045000Y-46443644D01*
X67045000Y-46266356D01*
X67079586Y-46092479D01*
X67147429Y-45928691D01*
X67245926Y-45781280D01*
X67371280Y-45655926D01*
X67518691Y-45557429D01*
X67682479Y-45489586D01*
X67856356Y-45455000D01*
X68033644Y-45455000D01*
X68207521Y-45489586D01*
X68207521Y-45489586D01*
G37*
G36*
X75096630Y-44882299D02*
X75256855Y-44930903D01*
X75404520Y-45009831D01*
X75533949Y-45116051D01*
X75640169Y-45245480D01*
X75719097Y-45393145D01*
X75767701Y-45553370D01*
X75784112Y-45720000D01*
X75767701Y-45886630D01*
X75719097Y-46046855D01*
X75640169Y-46194520D01*
X75533949Y-46323949D01*
X75404520Y-46430169D01*
X75256855Y-46509097D01*
X75096630Y-46557701D01*
X74971752Y-46570000D01*
X74888248Y-46570000D01*
X74763370Y-46557701D01*
X74603145Y-46509097D01*
X74455480Y-46430169D01*
X74326051Y-46323949D01*
X74219831Y-46194520D01*
X74140903Y-46046855D01*
X74092299Y-45886630D01*
X74075888Y-45720000D01*
X74092299Y-45553370D01*
X74140903Y-45393145D01*
X74219831Y-45245480D01*
X74326051Y-45116051D01*
X74455480Y-45009831D01*
X74603145Y-44930903D01*
X74763370Y-44882299D01*
X74888248Y-44870000D01*
X74971752Y-44870000D01*
X75096630Y-44882299D01*
X75096630Y-44882299D01*
G37*
G36*
X31916630Y-43612299D02*
X32076855Y-43660903D01*
X32224520Y-43739831D01*
X32353949Y-43846051D01*
X32460169Y-43975480D01*
X32539097Y-44123145D01*
X32587701Y-44283370D01*
X32604112Y-44450000D01*
X32587701Y-44616630D01*
X32539097Y-44776855D01*
X32460169Y-44924520D01*
X32353949Y-45053949D01*
X32224520Y-45160169D01*
X32076855Y-45239097D01*
X31916630Y-45287701D01*
X31791752Y-45300000D01*
X31708248Y-45300000D01*
X31583370Y-45287701D01*
X31423145Y-45239097D01*
X31275480Y-45160169D01*
X31146051Y-45053949D01*
X31039831Y-44924520D01*
X30960903Y-44776855D01*
X30912299Y-44616630D01*
X30895888Y-44450000D01*
X30912299Y-44283370D01*
X30960903Y-44123145D01*
X31039831Y-43975480D01*
X31146051Y-43846051D01*
X31275480Y-43739831D01*
X31423145Y-43660903D01*
X31583370Y-43612299D01*
X31708248Y-43600000D01*
X31791752Y-43600000D01*
X31916630Y-43612299D01*
X31916630Y-43612299D01*
G37*
G36*
X75177934Y-42362664D02*
X75332627Y-42426740D01*
X75471847Y-42519764D01*
X75590236Y-42638153D01*
X75683260Y-42777373D01*
X75747336Y-42932066D01*
X75780000Y-43096281D01*
X75780000Y-43263719D01*
X75747336Y-43427934D01*
X75683260Y-43582627D01*
X75590236Y-43721847D01*
X75471847Y-43840236D01*
X75332627Y-43933260D01*
X75177934Y-43997336D01*
X75013719Y-44030000D01*
X74846281Y-44030000D01*
X74682066Y-43997336D01*
X74527373Y-43933260D01*
X74388153Y-43840236D01*
X74269764Y-43721847D01*
X74176740Y-43582627D01*
X74112664Y-43427934D01*
X74080000Y-43263719D01*
X74080000Y-43096281D01*
X74112664Y-42932066D01*
X74176740Y-42777373D01*
X74269764Y-42638153D01*
X74388153Y-42519764D01*
X74527373Y-42426740D01*
X74682066Y-42362664D01*
X74846281Y-42330000D01*
X75013719Y-42330000D01*
X75177934Y-42362664D01*
X75177934Y-42362664D01*
G37*
G36*
X31916630Y-41072299D02*
X32076855Y-41120903D01*
X32224520Y-41199831D01*
X32353949Y-41306051D01*
X32460169Y-41435480D01*
X32539097Y-41583145D01*
X32587701Y-41743370D01*
X32604112Y-41910000D01*
X32587701Y-42076630D01*
X32539097Y-42236855D01*
X32460169Y-42384520D01*
X32353949Y-42513949D01*
X32224520Y-42620169D01*
X32076855Y-42699097D01*
X31916630Y-42747701D01*
X31791752Y-42760000D01*
X31708248Y-42760000D01*
X31583370Y-42747701D01*
X31423145Y-42699097D01*
X31275480Y-42620169D01*
X31146051Y-42513949D01*
X31039831Y-42384520D01*
X30960903Y-42236855D01*
X30912299Y-42076630D01*
X30895888Y-41910000D01*
X30912299Y-41743370D01*
X30960903Y-41583145D01*
X31039831Y-41435480D01*
X31146051Y-41306051D01*
X31275480Y-41199831D01*
X31423145Y-41120903D01*
X31583370Y-41072299D01*
X31708248Y-41060000D01*
X31791752Y-41060000D01*
X31916630Y-41072299D01*
X31916630Y-41072299D01*
G37*
G36*
X57319180Y-41352289D02*
X57424734Y-41396011D01*
X57519729Y-41459485D01*
X57600515Y-41540271D01*
X57663989Y-41635266D01*
X57707711Y-41740820D01*
X57730000Y-41852874D01*
X57730000Y-41967126D01*
X57707711Y-42079180D01*
X57663989Y-42184734D01*
X57600515Y-42279729D01*
X57519729Y-42360515D01*
X57424734Y-42423989D01*
X57319180Y-42467711D01*
X57207126Y-42490000D01*
X57092874Y-42490000D01*
X56980820Y-42467711D01*
X56875266Y-42423989D01*
X56780271Y-42360515D01*
X56699485Y-42279729D01*
X56636011Y-42184734D01*
X56592289Y-42079180D01*
X56570000Y-41967126D01*
X56570000Y-41852874D01*
X56592289Y-41740820D01*
X56636011Y-41635266D01*
X56699485Y-41540271D01*
X56780271Y-41459485D01*
X56875266Y-41396011D01*
X56980820Y-41352289D01*
X57092874Y-41330000D01*
X57207126Y-41330000D01*
X57319180Y-41352289D01*
X57319180Y-41352289D01*
G37*
G36*
X55190000Y-42490000D02*
X54030000Y-42490000D01*
X54030000Y-41330000D01*
X55190000Y-41330000D01*
X55190000Y-42490000D01*
X55190000Y-42490000D01*
G37*
G36*
X27835066Y-41349685D02*
X27858515Y-41356798D01*
X27882901Y-41359200D01*
X28982849Y-41359200D01*
X28980715Y-41363192D01*
X28973602Y-41386641D01*
X28971200Y-41411027D01*
X28971200Y-42307373D01*
X28973602Y-42331759D01*
X28980715Y-42355208D01*
X28982849Y-42359200D01*
X27955000Y-42359200D01*
X27930614Y-42361602D01*
X27920731Y-42364600D01*
X27877501Y-42364600D01*
X27853115Y-42367002D01*
X27831200Y-42373650D01*
X27809285Y-42367002D01*
X27784899Y-42364600D01*
X26830000Y-42364600D01*
X26830000Y-41364600D01*
X27674773Y-41364600D01*
X27699159Y-41362198D01*
X27709042Y-41359200D01*
X27779499Y-41359200D01*
X27803885Y-41356798D01*
X27827334Y-41349685D01*
X27831200Y-41347619D01*
X27835066Y-41349685D01*
X27835066Y-41349685D01*
G37*
G36*
X56049180Y-39955289D02*
X56154734Y-39999011D01*
X56249729Y-40062485D01*
X56330515Y-40143271D01*
X56393989Y-40238266D01*
X56437711Y-40343820D01*
X56460000Y-40455874D01*
X56460000Y-40570126D01*
X56437711Y-40682180D01*
X56393989Y-40787734D01*
X56330515Y-40882729D01*
X56249729Y-40963515D01*
X56154734Y-41026989D01*
X56049180Y-41070711D01*
X55937126Y-41093000D01*
X55822874Y-41093000D01*
X55710820Y-41070711D01*
X55605266Y-41026989D01*
X55510271Y-40963515D01*
X55429485Y-40882729D01*
X55366011Y-40787734D01*
X55322289Y-40682180D01*
X55300000Y-40570126D01*
X55300000Y-40455874D01*
X55322289Y-40343820D01*
X55366011Y-40238266D01*
X55429485Y-40143271D01*
X55510271Y-40062485D01*
X55605266Y-39999011D01*
X55710820Y-39955289D01*
X55822874Y-39933000D01*
X55937126Y-39933000D01*
X56049180Y-39955289D01*
X56049180Y-39955289D01*
G37*
G36*
X31916630Y-38532299D02*
X32076855Y-38580903D01*
X32224520Y-38659831D01*
X32353949Y-38766051D01*
X32460169Y-38895480D01*
X32539097Y-39043145D01*
X32587701Y-39203370D01*
X32604112Y-39370000D01*
X32587701Y-39536630D01*
X32539097Y-39696855D01*
X32460169Y-39844520D01*
X32353949Y-39973949D01*
X32224520Y-40080169D01*
X32076855Y-40159097D01*
X31916630Y-40207701D01*
X31791752Y-40220000D01*
X31708248Y-40220000D01*
X31583370Y-40207701D01*
X31423145Y-40159097D01*
X31275480Y-40080169D01*
X31146051Y-39973949D01*
X31039831Y-39844520D01*
X30960903Y-39696855D01*
X30912299Y-39536630D01*
X30895888Y-39370000D01*
X30912299Y-39203370D01*
X30960903Y-39043145D01*
X31039831Y-38895480D01*
X31146051Y-38766051D01*
X31275480Y-38659831D01*
X31423145Y-38580903D01*
X31583370Y-38532299D01*
X31708248Y-38520000D01*
X31791752Y-38520000D01*
X31916630Y-38532299D01*
X31916630Y-38532299D01*
G37*
G36*
X31916630Y-35992299D02*
X32076855Y-36040903D01*
X32224520Y-36119831D01*
X32353949Y-36226051D01*
X32460169Y-36355480D01*
X32539097Y-36503145D01*
X32587701Y-36663370D01*
X32604112Y-36830000D01*
X32587701Y-36996630D01*
X32539097Y-37156855D01*
X32460169Y-37304520D01*
X32353949Y-37433949D01*
X32224520Y-37540169D01*
X32076855Y-37619097D01*
X31916630Y-37667701D01*
X31791752Y-37680000D01*
X31708248Y-37680000D01*
X31583370Y-37667701D01*
X31423145Y-37619097D01*
X31275480Y-37540169D01*
X31146051Y-37433949D01*
X31039831Y-37304520D01*
X30960903Y-37156855D01*
X30912299Y-36996630D01*
X30895888Y-36830000D01*
X30912299Y-36663370D01*
X30960903Y-36503145D01*
X31039831Y-36355480D01*
X31146051Y-36226051D01*
X31275480Y-36119831D01*
X31423145Y-36040903D01*
X31583370Y-35992299D01*
X31708248Y-35980000D01*
X31791752Y-35980000D01*
X31916630Y-35992299D01*
X31916630Y-35992299D01*
G37*
G36*
X54776630Y-35357299D02*
X54936855Y-35405903D01*
X55084520Y-35484831D01*
X55213949Y-35591051D01*
X55320169Y-35720480D01*
X55399097Y-35868145D01*
X55447701Y-36028370D01*
X55464112Y-36195000D01*
X55447701Y-36361630D01*
X55399097Y-36521855D01*
X55320169Y-36669520D01*
X55213949Y-36798949D01*
X55084520Y-36905169D01*
X54936855Y-36984097D01*
X54776630Y-37032701D01*
X54651752Y-37045000D01*
X54568248Y-37045000D01*
X54443370Y-37032701D01*
X54283145Y-36984097D01*
X54135480Y-36905169D01*
X54006051Y-36798949D01*
X53899831Y-36669520D01*
X53820903Y-36521855D01*
X53772299Y-36361630D01*
X53755888Y-36195000D01*
X53772299Y-36028370D01*
X53820903Y-35868145D01*
X53899831Y-35720480D01*
X54006051Y-35591051D01*
X54135480Y-35484831D01*
X54283145Y-35405903D01*
X54443370Y-35357299D01*
X54568248Y-35345000D01*
X54651752Y-35345000D01*
X54776630Y-35357299D01*
X54776630Y-35357299D01*
G37*
G36*
X70016630Y-34087299D02*
X70176855Y-34135903D01*
X70324520Y-34214831D01*
X70453949Y-34321051D01*
X70560169Y-34450480D01*
X70639097Y-34598145D01*
X70687701Y-34758370D01*
X70704112Y-34925000D01*
X70687701Y-35091630D01*
X70639097Y-35251855D01*
X70560169Y-35399520D01*
X70453949Y-35528949D01*
X70324520Y-35635169D01*
X70176855Y-35714097D01*
X70016630Y-35762701D01*
X69891752Y-35775000D01*
X69808248Y-35775000D01*
X69683370Y-35762701D01*
X69523145Y-35714097D01*
X69375480Y-35635169D01*
X69246051Y-35528949D01*
X69139831Y-35399520D01*
X69060903Y-35251855D01*
X69012299Y-35091630D01*
X68995888Y-34925000D01*
X69012299Y-34758370D01*
X69060903Y-34598145D01*
X69139831Y-34450480D01*
X69246051Y-34321051D01*
X69375480Y-34214831D01*
X69523145Y-34135903D01*
X69683370Y-34087299D01*
X69808248Y-34075000D01*
X69891752Y-34075000D01*
X70016630Y-34087299D01*
X70016630Y-34087299D01*
G37*
G36*
X62396630Y-34087299D02*
X62556855Y-34135903D01*
X62704520Y-34214831D01*
X62833949Y-34321051D01*
X62940169Y-34450480D01*
X63019097Y-34598145D01*
X63067701Y-34758370D01*
X63084112Y-34925000D01*
X63067701Y-35091630D01*
X63019097Y-35251855D01*
X62940169Y-35399520D01*
X62833949Y-35528949D01*
X62704520Y-35635169D01*
X62556855Y-35714097D01*
X62396630Y-35762701D01*
X62271752Y-35775000D01*
X62188248Y-35775000D01*
X62063370Y-35762701D01*
X61903145Y-35714097D01*
X61755480Y-35635169D01*
X61626051Y-35528949D01*
X61519831Y-35399520D01*
X61440903Y-35251855D01*
X61392299Y-35091630D01*
X61375888Y-34925000D01*
X61392299Y-34758370D01*
X61440903Y-34598145D01*
X61519831Y-34450480D01*
X61626051Y-34321051D01*
X61755480Y-34214831D01*
X61903145Y-34135903D01*
X62063370Y-34087299D01*
X62188248Y-34075000D01*
X62271752Y-34075000D01*
X62396630Y-34087299D01*
X62396630Y-34087299D01*
G37*
G36*
X78320000Y-35775000D02*
X76620000Y-35775000D01*
X76620000Y-34075000D01*
X78320000Y-34075000D01*
X78320000Y-35775000D01*
X78320000Y-35775000D01*
G37*
G36*
X32600000Y-35140000D02*
X30900000Y-35140000D01*
X30900000Y-33440000D01*
X32600000Y-33440000D01*
X32600000Y-35140000D01*
X32600000Y-35140000D01*
G37*
G36*
X54776630Y-32817299D02*
X54936855Y-32865903D01*
X55084520Y-32944831D01*
X55213949Y-33051051D01*
X55320169Y-33180480D01*
X55399097Y-33328145D01*
X55447701Y-33488370D01*
X55464112Y-33655000D01*
X55447701Y-33821630D01*
X55399097Y-33981855D01*
X55320169Y-34129520D01*
X55213949Y-34258949D01*
X55084520Y-34365169D01*
X54936855Y-34444097D01*
X54776630Y-34492701D01*
X54651752Y-34505000D01*
X54568248Y-34505000D01*
X54443370Y-34492701D01*
X54283145Y-34444097D01*
X54135480Y-34365169D01*
X54006051Y-34258949D01*
X53899831Y-34129520D01*
X53820903Y-33981855D01*
X53772299Y-33821630D01*
X53755888Y-33655000D01*
X53772299Y-33488370D01*
X53820903Y-33328145D01*
X53899831Y-33180480D01*
X54006051Y-33051051D01*
X54135480Y-32944831D01*
X54283145Y-32865903D01*
X54443370Y-32817299D01*
X54568248Y-32805000D01*
X54651752Y-32805000D01*
X54776630Y-32817299D01*
X54776630Y-32817299D01*
G37*
G36*
X45489435Y-30542429D02*
X45586034Y-30561644D01*
X45859017Y-30674717D01*
X45889372Y-30695000D01*
X46104697Y-30838876D01*
X46313624Y-31047803D01*
X46313626Y-31047806D01*
X46477783Y-31293483D01*
X46590856Y-31566466D01*
X46595442Y-31589520D01*
X46648500Y-31856261D01*
X46648500Y-32151739D01*
X46610071Y-32344935D01*
X46590856Y-32441534D01*
X46477783Y-32714517D01*
X46323891Y-32944831D01*
X46313624Y-32960197D01*
X46104697Y-33169124D01*
X46104694Y-33169126D01*
X45859017Y-33333283D01*
X45586034Y-33446356D01*
X45489435Y-33465571D01*
X45296239Y-33504000D01*
X45000761Y-33504000D01*
X44807565Y-33465571D01*
X44710966Y-33446356D01*
X44437983Y-33333283D01*
X44192306Y-33169126D01*
X44192303Y-33169124D01*
X43983376Y-32960197D01*
X43973109Y-32944831D01*
X43819217Y-32714517D01*
X43706144Y-32441534D01*
X43686929Y-32344935D01*
X43648500Y-32151739D01*
X43648500Y-31856261D01*
X43701558Y-31589520D01*
X43706144Y-31566466D01*
X43819217Y-31293483D01*
X43983374Y-31047806D01*
X43983376Y-31047803D01*
X44192303Y-30838876D01*
X44407628Y-30695000D01*
X44437983Y-30674717D01*
X44710966Y-30561644D01*
X44807565Y-30542429D01*
X45000761Y-30504000D01*
X45296239Y-30504000D01*
X45489435Y-30542429D01*
X45489435Y-30542429D01*
G37*
G36*
X62396630Y-31547299D02*
X62556855Y-31595903D01*
X62704520Y-31674831D01*
X62833949Y-31781051D01*
X62940169Y-31910480D01*
X63019097Y-32058145D01*
X63067701Y-32218370D01*
X63084112Y-32385000D01*
X63067701Y-32551630D01*
X63019097Y-32711855D01*
X62940169Y-32859520D01*
X62833949Y-32988949D01*
X62704520Y-33095169D01*
X62556855Y-33174097D01*
X62396630Y-33222701D01*
X62271752Y-33235000D01*
X62188248Y-33235000D01*
X62063370Y-33222701D01*
X61903145Y-33174097D01*
X61755480Y-33095169D01*
X61626051Y-32988949D01*
X61519831Y-32859520D01*
X61440903Y-32711855D01*
X61392299Y-32551630D01*
X61375888Y-32385000D01*
X61392299Y-32218370D01*
X61440903Y-32058145D01*
X61519831Y-31910480D01*
X61626051Y-31781051D01*
X61755480Y-31674831D01*
X61903145Y-31595903D01*
X62063370Y-31547299D01*
X62188248Y-31535000D01*
X62271752Y-31535000D01*
X62396630Y-31547299D01*
X62396630Y-31547299D01*
G37*
G36*
X78320000Y-33235000D02*
X76620000Y-33235000D01*
X76620000Y-31535000D01*
X78320000Y-31535000D01*
X78320000Y-33235000D01*
X78320000Y-33235000D01*
G37*
G36*
X70016630Y-31547299D02*
X70176855Y-31595903D01*
X70324520Y-31674831D01*
X70453949Y-31781051D01*
X70560169Y-31910480D01*
X70639097Y-32058145D01*
X70687701Y-32218370D01*
X70704112Y-32385000D01*
X70687701Y-32551630D01*
X70639097Y-32711855D01*
X70560169Y-32859520D01*
X70453949Y-32988949D01*
X70324520Y-33095169D01*
X70176855Y-33174097D01*
X70016630Y-33222701D01*
X69891752Y-33235000D01*
X69808248Y-33235000D01*
X69683370Y-33222701D01*
X69523145Y-33174097D01*
X69375480Y-33095169D01*
X69246051Y-32988949D01*
X69139831Y-32859520D01*
X69060903Y-32711855D01*
X69012299Y-32551630D01*
X68995888Y-32385000D01*
X69012299Y-32218370D01*
X69060903Y-32058145D01*
X69139831Y-31910480D01*
X69246051Y-31781051D01*
X69375480Y-31674831D01*
X69523145Y-31595903D01*
X69683370Y-31547299D01*
X69808248Y-31535000D01*
X69891752Y-31535000D01*
X70016630Y-31547299D01*
X70016630Y-31547299D01*
G37*
G36*
X31997934Y-30932664D02*
X32152627Y-30996740D01*
X32291847Y-31089764D01*
X32410236Y-31208153D01*
X32503260Y-31347373D01*
X32567336Y-31502066D01*
X32600000Y-31666281D01*
X32600000Y-31833719D01*
X32567336Y-31997934D01*
X32503260Y-32152627D01*
X32410236Y-32291847D01*
X32291847Y-32410236D01*
X32152627Y-32503260D01*
X31997934Y-32567336D01*
X31833719Y-32600000D01*
X31666281Y-32600000D01*
X31502066Y-32567336D01*
X31347373Y-32503260D01*
X31208153Y-32410236D01*
X31089764Y-32291847D01*
X30996740Y-32152627D01*
X30932664Y-31997934D01*
X30900000Y-31833719D01*
X30900000Y-31666281D01*
X30932664Y-31502066D01*
X30996740Y-31347373D01*
X31089764Y-31208153D01*
X31208153Y-31089764D01*
X31347373Y-30996740D01*
X31502066Y-30932664D01*
X31666281Y-30900000D01*
X31833719Y-30900000D01*
X31997934Y-30932664D01*
X31997934Y-30932664D01*
G37*
G36*
X54776630Y-30277299D02*
X54936855Y-30325903D01*
X55084520Y-30404831D01*
X55213949Y-30511051D01*
X55320169Y-30640480D01*
X55399097Y-30788145D01*
X55447701Y-30948370D01*
X55464112Y-31115000D01*
X55447701Y-31281630D01*
X55399097Y-31441855D01*
X55320169Y-31589520D01*
X55213949Y-31718949D01*
X55084520Y-31825169D01*
X54936855Y-31904097D01*
X54776630Y-31952701D01*
X54651752Y-31965000D01*
X54568248Y-31965000D01*
X54443370Y-31952701D01*
X54283145Y-31904097D01*
X54135480Y-31825169D01*
X54006051Y-31718949D01*
X53899831Y-31589520D01*
X53820903Y-31441855D01*
X53772299Y-31281630D01*
X53755888Y-31115000D01*
X53772299Y-30948370D01*
X53820903Y-30788145D01*
X53899831Y-30640480D01*
X54006051Y-30511051D01*
X54135480Y-30404831D01*
X54283145Y-30325903D01*
X54443370Y-30277299D01*
X54568248Y-30265000D01*
X54651752Y-30265000D01*
X54776630Y-30277299D01*
X54776630Y-30277299D01*
G37*
G36*
X70097934Y-29027664D02*
X70252627Y-29091740D01*
X70391847Y-29184764D01*
X70510236Y-29303153D01*
X70603260Y-29442373D01*
X70667336Y-29597066D01*
X70700000Y-29761281D01*
X70700000Y-29928719D01*
X70667336Y-30092934D01*
X70603260Y-30247627D01*
X70510236Y-30386847D01*
X70391847Y-30505236D01*
X70252627Y-30598260D01*
X70097934Y-30662336D01*
X69933719Y-30695000D01*
X69766281Y-30695000D01*
X69602066Y-30662336D01*
X69447373Y-30598260D01*
X69308153Y-30505236D01*
X69189764Y-30386847D01*
X69096740Y-30247627D01*
X69032664Y-30092934D01*
X69000000Y-29928719D01*
X69000000Y-29761281D01*
X69032664Y-29597066D01*
X69096740Y-29442373D01*
X69189764Y-29303153D01*
X69308153Y-29184764D01*
X69447373Y-29091740D01*
X69602066Y-29027664D01*
X69766281Y-28995000D01*
X69933719Y-28995000D01*
X70097934Y-29027664D01*
X70097934Y-29027664D01*
G37*
G36*
X62477934Y-29027664D02*
X62632627Y-29091740D01*
X62771847Y-29184764D01*
X62890236Y-29303153D01*
X62983260Y-29442373D01*
X63047336Y-29597066D01*
X63080000Y-29761281D01*
X63080000Y-29928719D01*
X63047336Y-30092934D01*
X62983260Y-30247627D01*
X62890236Y-30386847D01*
X62771847Y-30505236D01*
X62632627Y-30598260D01*
X62477934Y-30662336D01*
X62313719Y-30695000D01*
X62146281Y-30695000D01*
X61982066Y-30662336D01*
X61827373Y-30598260D01*
X61688153Y-30505236D01*
X61569764Y-30386847D01*
X61476740Y-30247627D01*
X61412664Y-30092934D01*
X61380000Y-29928719D01*
X61380000Y-29761281D01*
X61412664Y-29597066D01*
X61476740Y-29442373D01*
X61569764Y-29303153D01*
X61688153Y-29184764D01*
X61827373Y-29091740D01*
X61982066Y-29027664D01*
X62146281Y-28995000D01*
X62313719Y-28995000D01*
X62477934Y-29027664D01*
X62477934Y-29027664D01*
G37*
G36*
X78320000Y-30695000D02*
X76620000Y-30695000D01*
X76620000Y-28995000D01*
X78320000Y-28995000D01*
X78320000Y-30695000D01*
X78320000Y-30695000D01*
G37*
G36*
X55460000Y-29425000D02*
X53760000Y-29425000D01*
X53760000Y-27725000D01*
X55460000Y-27725000D01*
X55460000Y-29425000D01*
X55460000Y-29425000D01*
G37*
G36*
X24524599Y-17489421D02*
X24724237Y-17529131D01*
X25288401Y-17762815D01*
X25796135Y-18102072D01*
X26227928Y-18533865D01*
X26567185Y-19041599D01*
X26786920Y-19572088D01*
X26800869Y-19605764D01*
X26920000Y-20204675D01*
X26920000Y-20815325D01*
X26850169Y-21166388D01*
X26800869Y-21414237D01*
X26567185Y-21978401D01*
X26227928Y-22486135D01*
X25796135Y-22917928D01*
X25288401Y-23257185D01*
X24724237Y-23490869D01*
X24524599Y-23530579D01*
X24125325Y-23610000D01*
X23514675Y-23610000D01*
X23115401Y-23530579D01*
X22915763Y-23490869D01*
X22351599Y-23257185D01*
X21843865Y-22917928D01*
X21412072Y-22486135D01*
X21072815Y-21978401D01*
X20839131Y-21414237D01*
X20789831Y-21166388D01*
X20720000Y-20815325D01*
X20720000Y-20204675D01*
X20839131Y-19605764D01*
X20853080Y-19572088D01*
X21072815Y-19041599D01*
X21412072Y-18533865D01*
X21843865Y-18102072D01*
X22351599Y-17762815D01*
X22915763Y-17529131D01*
X23115401Y-17489421D01*
X23514675Y-17410000D01*
X24125325Y-17410000D01*
X24524599Y-17489421D01*
X24524599Y-17489421D01*
G37*
G36*
X82524599Y-17489421D02*
X82724237Y-17529131D01*
X83288401Y-17762815D01*
X83796135Y-18102072D01*
X84227928Y-18533865D01*
X84567185Y-19041599D01*
X84786920Y-19572088D01*
X84800869Y-19605764D01*
X84920000Y-20204675D01*
X84920000Y-20815325D01*
X84850169Y-21166388D01*
X84800869Y-21414237D01*
X84567185Y-21978401D01*
X84227928Y-22486135D01*
X83796135Y-22917928D01*
X83288401Y-23257185D01*
X82724237Y-23490869D01*
X82524599Y-23530579D01*
X82125325Y-23610000D01*
X81514675Y-23610000D01*
X81115401Y-23530579D01*
X80915763Y-23490869D01*
X80351599Y-23257185D01*
X79843865Y-22917928D01*
X79412072Y-22486135D01*
X79072815Y-21978401D01*
X78839131Y-21414237D01*
X78789831Y-21166388D01*
X78720000Y-20815325D01*
X78720000Y-20204675D01*
X78839131Y-19605764D01*
X78853080Y-19572088D01*
X79072815Y-19041599D01*
X79412072Y-18533865D01*
X79843865Y-18102072D01*
X80351599Y-17762815D01*
X80915763Y-17529131D01*
X81115401Y-17489421D01*
X81514675Y-17410000D01*
X82125325Y-17410000D01*
X82524599Y-17489421D01*
X82524599Y-17489421D01*
G37*
G36*
X44014712Y-20920565D02*
X44099295Y-20928896D01*
X44219727Y-20965429D01*
X44262088Y-20978279D01*
X44412112Y-21058468D01*
X44543612Y-21166388D01*
X44651532Y-21297888D01*
X44731721Y-21447912D01*
X44731722Y-21447916D01*
X44781104Y-21610705D01*
X44797778Y-21780000D01*
X44781104Y-21949295D01*
X44744571Y-22069727D01*
X44731721Y-22112088D01*
X44651532Y-22262112D01*
X44543612Y-22393612D01*
X44412112Y-22501532D01*
X44262088Y-22581721D01*
X44219727Y-22594571D01*
X44099295Y-22631104D01*
X44014712Y-22639435D01*
X43972421Y-22643600D01*
X43887579Y-22643600D01*
X43845288Y-22639435D01*
X43760705Y-22631104D01*
X43640273Y-22594571D01*
X43597912Y-22581721D01*
X43447888Y-22501532D01*
X43316388Y-22393612D01*
X43208468Y-22262112D01*
X43128279Y-22112088D01*
X43115429Y-22069727D01*
X43078896Y-21949295D01*
X43062222Y-21780000D01*
X43078896Y-21610705D01*
X43128278Y-21447916D01*
X43128279Y-21447912D01*
X43208468Y-21297888D01*
X43316388Y-21166388D01*
X43447888Y-21058468D01*
X43597912Y-20978279D01*
X43640273Y-20965429D01*
X43760705Y-20928896D01*
X43845288Y-20920565D01*
X43887579Y-20916400D01*
X43972421Y-20916400D01*
X44014712Y-20920565D01*
X44014712Y-20920565D01*
G37*
G36*
X49094712Y-20920565D02*
X49179295Y-20928896D01*
X49299727Y-20965429D01*
X49342088Y-20978279D01*
X49492112Y-21058468D01*
X49623612Y-21166388D01*
X49731532Y-21297888D01*
X49811721Y-21447912D01*
X49811722Y-21447916D01*
X49861104Y-21610705D01*
X49877778Y-21780000D01*
X49861104Y-21949295D01*
X49824571Y-22069727D01*
X49811721Y-22112088D01*
X49731532Y-22262112D01*
X49623612Y-22393612D01*
X49492112Y-22501532D01*
X49342088Y-22581721D01*
X49299727Y-22594571D01*
X49179295Y-22631104D01*
X49094712Y-22639435D01*
X49052421Y-22643600D01*
X48967579Y-22643600D01*
X48925288Y-22639435D01*
X48840705Y-22631104D01*
X48720273Y-22594571D01*
X48677912Y-22581721D01*
X48527888Y-22501532D01*
X48396388Y-22393612D01*
X48288468Y-22262112D01*
X48208279Y-22112088D01*
X48195429Y-22069727D01*
X48158896Y-21949295D01*
X48142222Y-21780000D01*
X48158896Y-21610705D01*
X48208278Y-21447916D01*
X48208279Y-21447912D01*
X48288468Y-21297888D01*
X48396388Y-21166388D01*
X48527888Y-21058468D01*
X48677912Y-20978279D01*
X48720273Y-20965429D01*
X48840705Y-20928896D01*
X48925288Y-20920565D01*
X48967579Y-20916400D01*
X49052421Y-20916400D01*
X49094712Y-20920565D01*
X49094712Y-20920565D01*
G37*
G36*
X56714712Y-20920565D02*
X56799295Y-20928896D01*
X56919727Y-20965429D01*
X56962088Y-20978279D01*
X57112112Y-21058468D01*
X57243612Y-21166388D01*
X57351532Y-21297888D01*
X57431721Y-21447912D01*
X57431722Y-21447916D01*
X57481104Y-21610705D01*
X57497778Y-21780000D01*
X57481104Y-21949295D01*
X57444571Y-22069727D01*
X57431721Y-22112088D01*
X57351532Y-22262112D01*
X57243612Y-22393612D01*
X57112112Y-22501532D01*
X56962088Y-22581721D01*
X56919727Y-22594571D01*
X56799295Y-22631104D01*
X56714712Y-22639435D01*
X56672421Y-22643600D01*
X56587579Y-22643600D01*
X56545288Y-22639435D01*
X56460705Y-22631104D01*
X56340273Y-22594571D01*
X56297912Y-22581721D01*
X56147888Y-22501532D01*
X56016388Y-22393612D01*
X55908468Y-22262112D01*
X55828279Y-22112088D01*
X55815429Y-22069727D01*
X55778896Y-21949295D01*
X55762222Y-21780000D01*
X55778896Y-21610705D01*
X55828278Y-21447916D01*
X55828279Y-21447912D01*
X55908468Y-21297888D01*
X56016388Y-21166388D01*
X56147888Y-21058468D01*
X56297912Y-20978279D01*
X56340273Y-20965429D01*
X56460705Y-20928896D01*
X56545288Y-20920565D01*
X56587579Y-20916400D01*
X56672421Y-20916400D01*
X56714712Y-20920565D01*
X56714712Y-20920565D01*
G37*
G36*
X54174712Y-20920565D02*
X54259295Y-20928896D01*
X54379727Y-20965429D01*
X54422088Y-20978279D01*
X54572112Y-21058468D01*
X54703612Y-21166388D01*
X54811532Y-21297888D01*
X54891721Y-21447912D01*
X54891722Y-21447916D01*
X54941104Y-21610705D01*
X54957778Y-21780000D01*
X54941104Y-21949295D01*
X54904571Y-22069727D01*
X54891721Y-22112088D01*
X54811532Y-22262112D01*
X54703612Y-22393612D01*
X54572112Y-22501532D01*
X54422088Y-22581721D01*
X54379727Y-22594571D01*
X54259295Y-22631104D01*
X54174712Y-22639435D01*
X54132421Y-22643600D01*
X54047579Y-22643600D01*
X54005288Y-22639435D01*
X53920705Y-22631104D01*
X53800273Y-22594571D01*
X53757912Y-22581721D01*
X53607888Y-22501532D01*
X53476388Y-22393612D01*
X53368468Y-22262112D01*
X53288279Y-22112088D01*
X53275429Y-22069727D01*
X53238896Y-21949295D01*
X53222222Y-21780000D01*
X53238896Y-21610705D01*
X53288278Y-21447916D01*
X53288279Y-21447912D01*
X53368468Y-21297888D01*
X53476388Y-21166388D01*
X53607888Y-21058468D01*
X53757912Y-20978279D01*
X53800273Y-20965429D01*
X53920705Y-20928896D01*
X54005288Y-20920565D01*
X54047579Y-20916400D01*
X54132421Y-20916400D01*
X54174712Y-20920565D01*
X54174712Y-20920565D01*
G37*
G36*
X51634712Y-20920565D02*
X51719295Y-20928896D01*
X51839727Y-20965429D01*
X51882088Y-20978279D01*
X52032112Y-21058468D01*
X52163612Y-21166388D01*
X52271532Y-21297888D01*
X52351721Y-21447912D01*
X52351722Y-21447916D01*
X52401104Y-21610705D01*
X52417778Y-21780000D01*
X52401104Y-21949295D01*
X52364571Y-22069727D01*
X52351721Y-22112088D01*
X52271532Y-22262112D01*
X52163612Y-22393612D01*
X52032112Y-22501532D01*
X51882088Y-22581721D01*
X51839727Y-22594571D01*
X51719295Y-22631104D01*
X51634712Y-22639435D01*
X51592421Y-22643600D01*
X51507579Y-22643600D01*
X51465288Y-22639435D01*
X51380705Y-22631104D01*
X51260273Y-22594571D01*
X51217912Y-22581721D01*
X51067888Y-22501532D01*
X50936388Y-22393612D01*
X50828468Y-22262112D01*
X50748279Y-22112088D01*
X50735429Y-22069727D01*
X50698896Y-21949295D01*
X50682222Y-21780000D01*
X50698896Y-21610705D01*
X50748278Y-21447916D01*
X50748279Y-21447912D01*
X50828468Y-21297888D01*
X50936388Y-21166388D01*
X51067888Y-21058468D01*
X51217912Y-20978279D01*
X51260273Y-20965429D01*
X51380705Y-20928896D01*
X51465288Y-20920565D01*
X51507579Y-20916400D01*
X51592421Y-20916400D01*
X51634712Y-20920565D01*
X51634712Y-20920565D01*
G37*
G36*
X36394712Y-20920565D02*
X36479295Y-20928896D01*
X36599727Y-20965429D01*
X36642088Y-20978279D01*
X36792112Y-21058468D01*
X36923612Y-21166388D01*
X37031532Y-21297888D01*
X37111721Y-21447912D01*
X37111722Y-21447916D01*
X37161104Y-21610705D01*
X37177778Y-21780000D01*
X37161104Y-21949295D01*
X37124571Y-22069727D01*
X37111721Y-22112088D01*
X37031532Y-22262112D01*
X36923612Y-22393612D01*
X36792112Y-22501532D01*
X36642088Y-22581721D01*
X36599727Y-22594571D01*
X36479295Y-22631104D01*
X36394712Y-22639435D01*
X36352421Y-22643600D01*
X36267579Y-22643600D01*
X36225288Y-22639435D01*
X36140705Y-22631104D01*
X36020273Y-22594571D01*
X35977912Y-22581721D01*
X35827888Y-22501532D01*
X35696388Y-22393612D01*
X35588468Y-22262112D01*
X35508279Y-22112088D01*
X35495429Y-22069727D01*
X35458896Y-21949295D01*
X35442222Y-21780000D01*
X35458896Y-21610705D01*
X35508278Y-21447916D01*
X35508279Y-21447912D01*
X35588468Y-21297888D01*
X35696388Y-21166388D01*
X35827888Y-21058468D01*
X35977912Y-20978279D01*
X36020273Y-20965429D01*
X36140705Y-20928896D01*
X36225288Y-20920565D01*
X36267579Y-20916400D01*
X36352421Y-20916400D01*
X36394712Y-20920565D01*
X36394712Y-20920565D01*
G37*
G36*
X46554712Y-20920565D02*
X46639295Y-20928896D01*
X46759727Y-20965429D01*
X46802088Y-20978279D01*
X46952112Y-21058468D01*
X47083612Y-21166388D01*
X47191532Y-21297888D01*
X47271721Y-21447912D01*
X47271722Y-21447916D01*
X47321104Y-21610705D01*
X47337778Y-21780000D01*
X47321104Y-21949295D01*
X47284571Y-22069727D01*
X47271721Y-22112088D01*
X47191532Y-22262112D01*
X47083612Y-22393612D01*
X46952112Y-22501532D01*
X46802088Y-22581721D01*
X46759727Y-22594571D01*
X46639295Y-22631104D01*
X46554712Y-22639435D01*
X46512421Y-22643600D01*
X46427579Y-22643600D01*
X46385288Y-22639435D01*
X46300705Y-22631104D01*
X46180273Y-22594571D01*
X46137912Y-22581721D01*
X45987888Y-22501532D01*
X45856388Y-22393612D01*
X45748468Y-22262112D01*
X45668279Y-22112088D01*
X45655429Y-22069727D01*
X45618896Y-21949295D01*
X45602222Y-21780000D01*
X45618896Y-21610705D01*
X45668278Y-21447916D01*
X45668279Y-21447912D01*
X45748468Y-21297888D01*
X45856388Y-21166388D01*
X45987888Y-21058468D01*
X46137912Y-20978279D01*
X46180273Y-20965429D01*
X46300705Y-20928896D01*
X46385288Y-20920565D01*
X46427579Y-20916400D01*
X46512421Y-20916400D01*
X46554712Y-20920565D01*
X46554712Y-20920565D01*
G37*
G36*
X69414712Y-20920565D02*
X69499295Y-20928896D01*
X69619727Y-20965429D01*
X69662088Y-20978279D01*
X69812112Y-21058468D01*
X69943612Y-21166388D01*
X70051532Y-21297888D01*
X70131721Y-21447912D01*
X70131722Y-21447916D01*
X70181104Y-21610705D01*
X70197778Y-21780000D01*
X70181104Y-21949295D01*
X70144571Y-22069727D01*
X70131721Y-22112088D01*
X70051532Y-22262112D01*
X69943612Y-22393612D01*
X69812112Y-22501532D01*
X69662088Y-22581721D01*
X69619727Y-22594571D01*
X69499295Y-22631104D01*
X69414712Y-22639435D01*
X69372421Y-22643600D01*
X69287579Y-22643600D01*
X69245288Y-22639435D01*
X69160705Y-22631104D01*
X69040273Y-22594571D01*
X68997912Y-22581721D01*
X68847888Y-22501532D01*
X68716388Y-22393612D01*
X68608468Y-22262112D01*
X68528279Y-22112088D01*
X68515429Y-22069727D01*
X68478896Y-21949295D01*
X68462222Y-21780000D01*
X68478896Y-21610705D01*
X68528278Y-21447916D01*
X68528279Y-21447912D01*
X68608468Y-21297888D01*
X68716388Y-21166388D01*
X68847888Y-21058468D01*
X68997912Y-20978279D01*
X69040273Y-20965429D01*
X69160705Y-20928896D01*
X69245288Y-20920565D01*
X69287579Y-20916400D01*
X69372421Y-20916400D01*
X69414712Y-20920565D01*
X69414712Y-20920565D01*
G37*
G36*
X29553600Y-22643600D02*
X27826400Y-22643600D01*
X27826400Y-20916400D01*
X29553600Y-20916400D01*
X29553600Y-22643600D01*
X29553600Y-22643600D01*
G37*
G36*
X31314712Y-20920565D02*
X31399295Y-20928896D01*
X31519727Y-20965429D01*
X31562088Y-20978279D01*
X31712112Y-21058468D01*
X31843612Y-21166388D01*
X31951532Y-21297888D01*
X32031721Y-21447912D01*
X32031722Y-21447916D01*
X32081104Y-21610705D01*
X32097778Y-21780000D01*
X32081104Y-21949295D01*
X32044571Y-22069727D01*
X32031721Y-22112088D01*
X31951532Y-22262112D01*
X31843612Y-22393612D01*
X31712112Y-22501532D01*
X31562088Y-22581721D01*
X31519727Y-22594571D01*
X31399295Y-22631104D01*
X31314712Y-22639435D01*
X31272421Y-22643600D01*
X31187579Y-22643600D01*
X31145288Y-22639435D01*
X31060705Y-22631104D01*
X30940273Y-22594571D01*
X30897912Y-22581721D01*
X30747888Y-22501532D01*
X30616388Y-22393612D01*
X30508468Y-22262112D01*
X30428279Y-22112088D01*
X30415429Y-22069727D01*
X30378896Y-21949295D01*
X30362222Y-21780000D01*
X30378896Y-21610705D01*
X30428278Y-21447916D01*
X30428279Y-21447912D01*
X30508468Y-21297888D01*
X30616388Y-21166388D01*
X30747888Y-21058468D01*
X30897912Y-20978279D01*
X30940273Y-20965429D01*
X31060705Y-20928896D01*
X31145288Y-20920565D01*
X31187579Y-20916400D01*
X31272421Y-20916400D01*
X31314712Y-20920565D01*
X31314712Y-20920565D01*
G37*
G36*
X71954712Y-20920565D02*
X72039295Y-20928896D01*
X72159727Y-20965429D01*
X72202088Y-20978279D01*
X72352112Y-21058468D01*
X72483612Y-21166388D01*
X72591532Y-21297888D01*
X72671721Y-21447912D01*
X72671722Y-21447916D01*
X72721104Y-21610705D01*
X72737778Y-21780000D01*
X72721104Y-21949295D01*
X72684571Y-22069727D01*
X72671721Y-22112088D01*
X72591532Y-22262112D01*
X72483612Y-22393612D01*
X72352112Y-22501532D01*
X72202088Y-22581721D01*
X72159727Y-22594571D01*
X72039295Y-22631104D01*
X71954712Y-22639435D01*
X71912421Y-22643600D01*
X71827579Y-22643600D01*
X71785288Y-22639435D01*
X71700705Y-22631104D01*
X71580273Y-22594571D01*
X71537912Y-22581721D01*
X71387888Y-22501532D01*
X71256388Y-22393612D01*
X71148468Y-22262112D01*
X71068279Y-22112088D01*
X71055429Y-22069727D01*
X71018896Y-21949295D01*
X71002222Y-21780000D01*
X71018896Y-21610705D01*
X71068278Y-21447916D01*
X71068279Y-21447912D01*
X71148468Y-21297888D01*
X71256388Y-21166388D01*
X71387888Y-21058468D01*
X71537912Y-20978279D01*
X71580273Y-20965429D01*
X71700705Y-20928896D01*
X71785288Y-20920565D01*
X71827579Y-20916400D01*
X71912421Y-20916400D01*
X71954712Y-20920565D01*
X71954712Y-20920565D01*
G37*
G36*
X77034712Y-20920565D02*
X77119295Y-20928896D01*
X77239727Y-20965429D01*
X77282088Y-20978279D01*
X77432112Y-21058468D01*
X77563612Y-21166388D01*
X77671532Y-21297888D01*
X77751721Y-21447912D01*
X77751722Y-21447916D01*
X77801104Y-21610705D01*
X77817778Y-21780000D01*
X77801104Y-21949295D01*
X77764571Y-22069727D01*
X77751721Y-22112088D01*
X77671532Y-22262112D01*
X77563612Y-22393612D01*
X77432112Y-22501532D01*
X77282088Y-22581721D01*
X77239727Y-22594571D01*
X77119295Y-22631104D01*
X77034712Y-22639435D01*
X76992421Y-22643600D01*
X76907579Y-22643600D01*
X76865288Y-22639435D01*
X76780705Y-22631104D01*
X76660273Y-22594571D01*
X76617912Y-22581721D01*
X76467888Y-22501532D01*
X76336388Y-22393612D01*
X76228468Y-22262112D01*
X76148279Y-22112088D01*
X76135429Y-22069727D01*
X76098896Y-21949295D01*
X76082222Y-21780000D01*
X76098896Y-21610705D01*
X76148278Y-21447916D01*
X76148279Y-21447912D01*
X76228468Y-21297888D01*
X76336388Y-21166388D01*
X76467888Y-21058468D01*
X76617912Y-20978279D01*
X76660273Y-20965429D01*
X76780705Y-20928896D01*
X76865288Y-20920565D01*
X76907579Y-20916400D01*
X76992421Y-20916400D01*
X77034712Y-20920565D01*
X77034712Y-20920565D01*
G37*
G36*
X59254712Y-20920565D02*
X59339295Y-20928896D01*
X59459727Y-20965429D01*
X59502088Y-20978279D01*
X59652112Y-21058468D01*
X59783612Y-21166388D01*
X59891532Y-21297888D01*
X59971721Y-21447912D01*
X59971722Y-21447916D01*
X60021104Y-21610705D01*
X60037778Y-21780000D01*
X60021104Y-21949295D01*
X59984571Y-22069727D01*
X59971721Y-22112088D01*
X59891532Y-22262112D01*
X59783612Y-22393612D01*
X59652112Y-22501532D01*
X59502088Y-22581721D01*
X59459727Y-22594571D01*
X59339295Y-22631104D01*
X59254712Y-22639435D01*
X59212421Y-22643600D01*
X59127579Y-22643600D01*
X59085288Y-22639435D01*
X59000705Y-22631104D01*
X58880273Y-22594571D01*
X58837912Y-22581721D01*
X58687888Y-22501532D01*
X58556388Y-22393612D01*
X58448468Y-22262112D01*
X58368279Y-22112088D01*
X58355429Y-22069727D01*
X58318896Y-21949295D01*
X58302222Y-21780000D01*
X58318896Y-21610705D01*
X58368278Y-21447916D01*
X58368279Y-21447912D01*
X58448468Y-21297888D01*
X58556388Y-21166388D01*
X58687888Y-21058468D01*
X58837912Y-20978279D01*
X58880273Y-20965429D01*
X59000705Y-20928896D01*
X59085288Y-20920565D01*
X59127579Y-20916400D01*
X59212421Y-20916400D01*
X59254712Y-20920565D01*
X59254712Y-20920565D01*
G37*
G36*
X33854712Y-20920565D02*
X33939295Y-20928896D01*
X34059727Y-20965429D01*
X34102088Y-20978279D01*
X34252112Y-21058468D01*
X34383612Y-21166388D01*
X34491532Y-21297888D01*
X34571721Y-21447912D01*
X34571722Y-21447916D01*
X34621104Y-21610705D01*
X34637778Y-21780000D01*
X34621104Y-21949295D01*
X34584571Y-22069727D01*
X34571721Y-22112088D01*
X34491532Y-22262112D01*
X34383612Y-22393612D01*
X34252112Y-22501532D01*
X34102088Y-22581721D01*
X34059727Y-22594571D01*
X33939295Y-22631104D01*
X33854712Y-22639435D01*
X33812421Y-22643600D01*
X33727579Y-22643600D01*
X33685288Y-22639435D01*
X33600705Y-22631104D01*
X33480273Y-22594571D01*
X33437912Y-22581721D01*
X33287888Y-22501532D01*
X33156388Y-22393612D01*
X33048468Y-22262112D01*
X32968279Y-22112088D01*
X32955429Y-22069727D01*
X32918896Y-21949295D01*
X32902222Y-21780000D01*
X32918896Y-21610705D01*
X32968278Y-21447916D01*
X32968279Y-21447912D01*
X33048468Y-21297888D01*
X33156388Y-21166388D01*
X33287888Y-21058468D01*
X33437912Y-20978279D01*
X33480273Y-20965429D01*
X33600705Y-20928896D01*
X33685288Y-20920565D01*
X33727579Y-20916400D01*
X33812421Y-20916400D01*
X33854712Y-20920565D01*
X33854712Y-20920565D01*
G37*
G36*
X41474712Y-20920565D02*
X41559295Y-20928896D01*
X41679727Y-20965429D01*
X41722088Y-20978279D01*
X41872112Y-21058468D01*
X42003612Y-21166388D01*
X42111532Y-21297888D01*
X42191721Y-21447912D01*
X42191722Y-21447916D01*
X42241104Y-21610705D01*
X42257778Y-21780000D01*
X42241104Y-21949295D01*
X42204571Y-22069727D01*
X42191721Y-22112088D01*
X42111532Y-22262112D01*
X42003612Y-22393612D01*
X41872112Y-22501532D01*
X41722088Y-22581721D01*
X41679727Y-22594571D01*
X41559295Y-22631104D01*
X41474712Y-22639435D01*
X41432421Y-22643600D01*
X41347579Y-22643600D01*
X41305288Y-22639435D01*
X41220705Y-22631104D01*
X41100273Y-22594571D01*
X41057912Y-22581721D01*
X40907888Y-22501532D01*
X40776388Y-22393612D01*
X40668468Y-22262112D01*
X40588279Y-22112088D01*
X40575429Y-22069727D01*
X40538896Y-21949295D01*
X40522222Y-21780000D01*
X40538896Y-21610705D01*
X40588278Y-21447916D01*
X40588279Y-21447912D01*
X40668468Y-21297888D01*
X40776388Y-21166388D01*
X40907888Y-21058468D01*
X41057912Y-20978279D01*
X41100273Y-20965429D01*
X41220705Y-20928896D01*
X41305288Y-20920565D01*
X41347579Y-20916400D01*
X41432421Y-20916400D01*
X41474712Y-20920565D01*
X41474712Y-20920565D01*
G37*
G36*
X61794712Y-20920565D02*
X61879295Y-20928896D01*
X61999727Y-20965429D01*
X62042088Y-20978279D01*
X62192112Y-21058468D01*
X62323612Y-21166388D01*
X62431532Y-21297888D01*
X62511721Y-21447912D01*
X62511722Y-21447916D01*
X62561104Y-21610705D01*
X62577778Y-21780000D01*
X62561104Y-21949295D01*
X62524571Y-22069727D01*
X62511721Y-22112088D01*
X62431532Y-22262112D01*
X62323612Y-22393612D01*
X62192112Y-22501532D01*
X62042088Y-22581721D01*
X61999727Y-22594571D01*
X61879295Y-22631104D01*
X61794712Y-22639435D01*
X61752421Y-22643600D01*
X61667579Y-22643600D01*
X61625288Y-22639435D01*
X61540705Y-22631104D01*
X61420273Y-22594571D01*
X61377912Y-22581721D01*
X61227888Y-22501532D01*
X61096388Y-22393612D01*
X60988468Y-22262112D01*
X60908279Y-22112088D01*
X60895429Y-22069727D01*
X60858896Y-21949295D01*
X60842222Y-21780000D01*
X60858896Y-21610705D01*
X60908278Y-21447916D01*
X60908279Y-21447912D01*
X60988468Y-21297888D01*
X61096388Y-21166388D01*
X61227888Y-21058468D01*
X61377912Y-20978279D01*
X61420273Y-20965429D01*
X61540705Y-20928896D01*
X61625288Y-20920565D01*
X61667579Y-20916400D01*
X61752421Y-20916400D01*
X61794712Y-20920565D01*
X61794712Y-20920565D01*
G37*
G36*
X74494712Y-20920565D02*
X74579295Y-20928896D01*
X74699727Y-20965429D01*
X74742088Y-20978279D01*
X74892112Y-21058468D01*
X75023612Y-21166388D01*
X75131532Y-21297888D01*
X75211721Y-21447912D01*
X75211722Y-21447916D01*
X75261104Y-21610705D01*
X75277778Y-21780000D01*
X75261104Y-21949295D01*
X75224571Y-22069727D01*
X75211721Y-22112088D01*
X75131532Y-22262112D01*
X75023612Y-22393612D01*
X74892112Y-22501532D01*
X74742088Y-22581721D01*
X74699727Y-22594571D01*
X74579295Y-22631104D01*
X74494712Y-22639435D01*
X74452421Y-22643600D01*
X74367579Y-22643600D01*
X74325288Y-22639435D01*
X74240705Y-22631104D01*
X74120273Y-22594571D01*
X74077912Y-22581721D01*
X73927888Y-22501532D01*
X73796388Y-22393612D01*
X73688468Y-22262112D01*
X73608279Y-22112088D01*
X73595429Y-22069727D01*
X73558896Y-21949295D01*
X73542222Y-21780000D01*
X73558896Y-21610705D01*
X73608278Y-21447916D01*
X73608279Y-21447912D01*
X73688468Y-21297888D01*
X73796388Y-21166388D01*
X73927888Y-21058468D01*
X74077912Y-20978279D01*
X74120273Y-20965429D01*
X74240705Y-20928896D01*
X74325288Y-20920565D01*
X74367579Y-20916400D01*
X74452421Y-20916400D01*
X74494712Y-20920565D01*
X74494712Y-20920565D01*
G37*
G36*
X64334712Y-20920565D02*
X64419295Y-20928896D01*
X64539727Y-20965429D01*
X64582088Y-20978279D01*
X64732112Y-21058468D01*
X64863612Y-21166388D01*
X64971532Y-21297888D01*
X65051721Y-21447912D01*
X65051722Y-21447916D01*
X65101104Y-21610705D01*
X65117778Y-21780000D01*
X65101104Y-21949295D01*
X65064571Y-22069727D01*
X65051721Y-22112088D01*
X64971532Y-22262112D01*
X64863612Y-22393612D01*
X64732112Y-22501532D01*
X64582088Y-22581721D01*
X64539727Y-22594571D01*
X64419295Y-22631104D01*
X64334712Y-22639435D01*
X64292421Y-22643600D01*
X64207579Y-22643600D01*
X64165288Y-22639435D01*
X64080705Y-22631104D01*
X63960273Y-22594571D01*
X63917912Y-22581721D01*
X63767888Y-22501532D01*
X63636388Y-22393612D01*
X63528468Y-22262112D01*
X63448279Y-22112088D01*
X63435429Y-22069727D01*
X63398896Y-21949295D01*
X63382222Y-21780000D01*
X63398896Y-21610705D01*
X63448278Y-21447916D01*
X63448279Y-21447912D01*
X63528468Y-21297888D01*
X63636388Y-21166388D01*
X63767888Y-21058468D01*
X63917912Y-20978279D01*
X63960273Y-20965429D01*
X64080705Y-20928896D01*
X64165288Y-20920565D01*
X64207579Y-20916400D01*
X64292421Y-20916400D01*
X64334712Y-20920565D01*
X64334712Y-20920565D01*
G37*
G36*
X38934712Y-20920565D02*
X39019295Y-20928896D01*
X39139727Y-20965429D01*
X39182088Y-20978279D01*
X39332112Y-21058468D01*
X39463612Y-21166388D01*
X39571532Y-21297888D01*
X39651721Y-21447912D01*
X39651722Y-21447916D01*
X39701104Y-21610705D01*
X39717778Y-21780000D01*
X39701104Y-21949295D01*
X39664571Y-22069727D01*
X39651721Y-22112088D01*
X39571532Y-22262112D01*
X39463612Y-22393612D01*
X39332112Y-22501532D01*
X39182088Y-22581721D01*
X39139727Y-22594571D01*
X39019295Y-22631104D01*
X38934712Y-22639435D01*
X38892421Y-22643600D01*
X38807579Y-22643600D01*
X38765288Y-22639435D01*
X38680705Y-22631104D01*
X38560273Y-22594571D01*
X38517912Y-22581721D01*
X38367888Y-22501532D01*
X38236388Y-22393612D01*
X38128468Y-22262112D01*
X38048279Y-22112088D01*
X38035429Y-22069727D01*
X37998896Y-21949295D01*
X37982222Y-21780000D01*
X37998896Y-21610705D01*
X38048278Y-21447916D01*
X38048279Y-21447912D01*
X38128468Y-21297888D01*
X38236388Y-21166388D01*
X38367888Y-21058468D01*
X38517912Y-20978279D01*
X38560273Y-20965429D01*
X38680705Y-20928896D01*
X38765288Y-20920565D01*
X38807579Y-20916400D01*
X38892421Y-20916400D01*
X38934712Y-20920565D01*
X38934712Y-20920565D01*
G37*
G36*
X66874712Y-20920565D02*
X66959295Y-20928896D01*
X67079727Y-20965429D01*
X67122088Y-20978279D01*
X67272112Y-21058468D01*
X67403612Y-21166388D01*
X67511532Y-21297888D01*
X67591721Y-21447912D01*
X67591722Y-21447916D01*
X67641104Y-21610705D01*
X67657778Y-21780000D01*
X67641104Y-21949295D01*
X67604571Y-22069727D01*
X67591721Y-22112088D01*
X67511532Y-22262112D01*
X67403612Y-22393612D01*
X67272112Y-22501532D01*
X67122088Y-22581721D01*
X67079727Y-22594571D01*
X66959295Y-22631104D01*
X66874712Y-22639435D01*
X66832421Y-22643600D01*
X66747579Y-22643600D01*
X66705288Y-22639435D01*
X66620705Y-22631104D01*
X66500273Y-22594571D01*
X66457912Y-22581721D01*
X66307888Y-22501532D01*
X66176388Y-22393612D01*
X66068468Y-22262112D01*
X65988279Y-22112088D01*
X65975429Y-22069727D01*
X65938896Y-21949295D01*
X65922222Y-21780000D01*
X65938896Y-21610705D01*
X65988278Y-21447916D01*
X65988279Y-21447912D01*
X66068468Y-21297888D01*
X66176388Y-21166388D01*
X66307888Y-21058468D01*
X66457912Y-20978279D01*
X66500273Y-20965429D01*
X66620705Y-20928896D01*
X66705288Y-20920565D01*
X66747579Y-20916400D01*
X66832421Y-20916400D01*
X66874712Y-20920565D01*
X66874712Y-20920565D01*
G37*
G36*
X66874712Y-18380565D02*
X66959295Y-18388896D01*
X67079727Y-18425429D01*
X67122088Y-18438279D01*
X67272112Y-18518468D01*
X67403612Y-18626388D01*
X67511532Y-18757888D01*
X67591721Y-18907912D01*
X67591722Y-18907916D01*
X67641104Y-19070705D01*
X67657778Y-19240000D01*
X67641104Y-19409295D01*
X67604571Y-19529727D01*
X67591721Y-19572088D01*
X67511532Y-19722112D01*
X67403612Y-19853612D01*
X67272112Y-19961532D01*
X67122088Y-20041721D01*
X67079727Y-20054571D01*
X66959295Y-20091104D01*
X66874712Y-20099435D01*
X66832421Y-20103600D01*
X66747579Y-20103600D01*
X66705288Y-20099435D01*
X66620705Y-20091104D01*
X66500273Y-20054571D01*
X66457912Y-20041721D01*
X66307888Y-19961532D01*
X66176388Y-19853612D01*
X66068468Y-19722112D01*
X65988279Y-19572088D01*
X65975429Y-19529727D01*
X65938896Y-19409295D01*
X65922222Y-19240000D01*
X65938896Y-19070705D01*
X65988278Y-18907916D01*
X65988279Y-18907912D01*
X66068468Y-18757888D01*
X66176388Y-18626388D01*
X66307888Y-18518468D01*
X66457912Y-18438279D01*
X66500273Y-18425429D01*
X66620705Y-18388896D01*
X66705288Y-18380565D01*
X66747579Y-18376400D01*
X66832421Y-18376400D01*
X66874712Y-18380565D01*
X66874712Y-18380565D01*
G37*
G36*
X64334712Y-18380565D02*
X64419295Y-18388896D01*
X64539727Y-18425429D01*
X64582088Y-18438279D01*
X64732112Y-18518468D01*
X64863612Y-18626388D01*
X64971532Y-18757888D01*
X65051721Y-18907912D01*
X65051722Y-18907916D01*
X65101104Y-19070705D01*
X65117778Y-19240000D01*
X65101104Y-19409295D01*
X65064571Y-19529727D01*
X65051721Y-19572088D01*
X64971532Y-19722112D01*
X64863612Y-19853612D01*
X64732112Y-19961532D01*
X64582088Y-20041721D01*
X64539727Y-20054571D01*
X64419295Y-20091104D01*
X64334712Y-20099435D01*
X64292421Y-20103600D01*
X64207579Y-20103600D01*
X64165288Y-20099435D01*
X64080705Y-20091104D01*
X63960273Y-20054571D01*
X63917912Y-20041721D01*
X63767888Y-19961532D01*
X63636388Y-19853612D01*
X63528468Y-19722112D01*
X63448279Y-19572088D01*
X63435429Y-19529727D01*
X63398896Y-19409295D01*
X63382222Y-19240000D01*
X63398896Y-19070705D01*
X63448278Y-18907916D01*
X63448279Y-18907912D01*
X63528468Y-18757888D01*
X63636388Y-18626388D01*
X63767888Y-18518468D01*
X63917912Y-18438279D01*
X63960273Y-18425429D01*
X64080705Y-18388896D01*
X64165288Y-18380565D01*
X64207579Y-18376400D01*
X64292421Y-18376400D01*
X64334712Y-18380565D01*
X64334712Y-18380565D01*
G37*
G36*
X61794712Y-18380565D02*
X61879295Y-18388896D01*
X61999727Y-18425429D01*
X62042088Y-18438279D01*
X62192112Y-18518468D01*
X62323612Y-18626388D01*
X62431532Y-18757888D01*
X62511721Y-18907912D01*
X62511722Y-18907916D01*
X62561104Y-19070705D01*
X62577778Y-19240000D01*
X62561104Y-19409295D01*
X62524571Y-19529727D01*
X62511721Y-19572088D01*
X62431532Y-19722112D01*
X62323612Y-19853612D01*
X62192112Y-19961532D01*
X62042088Y-20041721D01*
X61999727Y-20054571D01*
X61879295Y-20091104D01*
X61794712Y-20099435D01*
X61752421Y-20103600D01*
X61667579Y-20103600D01*
X61625288Y-20099435D01*
X61540705Y-20091104D01*
X61420273Y-20054571D01*
X61377912Y-20041721D01*
X61227888Y-19961532D01*
X61096388Y-19853612D01*
X60988468Y-19722112D01*
X60908279Y-19572088D01*
X60895429Y-19529727D01*
X60858896Y-19409295D01*
X60842222Y-19240000D01*
X60858896Y-19070705D01*
X60908278Y-18907916D01*
X60908279Y-18907912D01*
X60988468Y-18757888D01*
X61096388Y-18626388D01*
X61227888Y-18518468D01*
X61377912Y-18438279D01*
X61420273Y-18425429D01*
X61540705Y-18388896D01*
X61625288Y-18380565D01*
X61667579Y-18376400D01*
X61752421Y-18376400D01*
X61794712Y-18380565D01*
X61794712Y-18380565D01*
G37*
G36*
X59254712Y-18380565D02*
X59339295Y-18388896D01*
X59459727Y-18425429D01*
X59502088Y-18438279D01*
X59652112Y-18518468D01*
X59783612Y-18626388D01*
X59891532Y-18757888D01*
X59971721Y-18907912D01*
X59971722Y-18907916D01*
X60021104Y-19070705D01*
X60037778Y-19240000D01*
X60021104Y-19409295D01*
X59984571Y-19529727D01*
X59971721Y-19572088D01*
X59891532Y-19722112D01*
X59783612Y-19853612D01*
X59652112Y-19961532D01*
X59502088Y-20041721D01*
X59459727Y-20054571D01*
X59339295Y-20091104D01*
X59254712Y-20099435D01*
X59212421Y-20103600D01*
X59127579Y-20103600D01*
X59085288Y-20099435D01*
X59000705Y-20091104D01*
X58880273Y-20054571D01*
X58837912Y-20041721D01*
X58687888Y-19961532D01*
X58556388Y-19853612D01*
X58448468Y-19722112D01*
X58368279Y-19572088D01*
X58355429Y-19529727D01*
X58318896Y-19409295D01*
X58302222Y-19240000D01*
X58318896Y-19070705D01*
X58368278Y-18907916D01*
X58368279Y-18907912D01*
X58448468Y-18757888D01*
X58556388Y-18626388D01*
X58687888Y-18518468D01*
X58837912Y-18438279D01*
X58880273Y-18425429D01*
X59000705Y-18388896D01*
X59085288Y-18380565D01*
X59127579Y-18376400D01*
X59212421Y-18376400D01*
X59254712Y-18380565D01*
X59254712Y-18380565D01*
G37*
G36*
X56714712Y-18380565D02*
X56799295Y-18388896D01*
X56919727Y-18425429D01*
X56962088Y-18438279D01*
X57112112Y-18518468D01*
X57243612Y-18626388D01*
X57351532Y-18757888D01*
X57431721Y-18907912D01*
X57431722Y-18907916D01*
X57481104Y-19070705D01*
X57497778Y-19240000D01*
X57481104Y-19409295D01*
X57444571Y-19529727D01*
X57431721Y-19572088D01*
X57351532Y-19722112D01*
X57243612Y-19853612D01*
X57112112Y-19961532D01*
X56962088Y-20041721D01*
X56919727Y-20054571D01*
X56799295Y-20091104D01*
X56714712Y-20099435D01*
X56672421Y-20103600D01*
X56587579Y-20103600D01*
X56545288Y-20099435D01*
X56460705Y-20091104D01*
X56340273Y-20054571D01*
X56297912Y-20041721D01*
X56147888Y-19961532D01*
X56016388Y-19853612D01*
X55908468Y-19722112D01*
X55828279Y-19572088D01*
X55815429Y-19529727D01*
X55778896Y-19409295D01*
X55762222Y-19240000D01*
X55778896Y-19070705D01*
X55828278Y-18907916D01*
X55828279Y-18907912D01*
X55908468Y-18757888D01*
X56016388Y-18626388D01*
X56147888Y-18518468D01*
X56297912Y-18438279D01*
X56340273Y-18425429D01*
X56460705Y-18388896D01*
X56545288Y-18380565D01*
X56587579Y-18376400D01*
X56672421Y-18376400D01*
X56714712Y-18380565D01*
X56714712Y-18380565D01*
G37*
G36*
X54174712Y-18380565D02*
X54259295Y-18388896D01*
X54379727Y-18425429D01*
X54422088Y-18438279D01*
X54572112Y-18518468D01*
X54703612Y-18626388D01*
X54811532Y-18757888D01*
X54891721Y-18907912D01*
X54891722Y-18907916D01*
X54941104Y-19070705D01*
X54957778Y-19240000D01*
X54941104Y-19409295D01*
X54904571Y-19529727D01*
X54891721Y-19572088D01*
X54811532Y-19722112D01*
X54703612Y-19853612D01*
X54572112Y-19961532D01*
X54422088Y-20041721D01*
X54379727Y-20054571D01*
X54259295Y-20091104D01*
X54174712Y-20099435D01*
X54132421Y-20103600D01*
X54047579Y-20103600D01*
X54005288Y-20099435D01*
X53920705Y-20091104D01*
X53800273Y-20054571D01*
X53757912Y-20041721D01*
X53607888Y-19961532D01*
X53476388Y-19853612D01*
X53368468Y-19722112D01*
X53288279Y-19572088D01*
X53275429Y-19529727D01*
X53238896Y-19409295D01*
X53222222Y-19240000D01*
X53238896Y-19070705D01*
X53288278Y-18907916D01*
X53288279Y-18907912D01*
X53368468Y-18757888D01*
X53476388Y-18626388D01*
X53607888Y-18518468D01*
X53757912Y-18438279D01*
X53800273Y-18425429D01*
X53920705Y-18388896D01*
X54005288Y-18380565D01*
X54047579Y-18376400D01*
X54132421Y-18376400D01*
X54174712Y-18380565D01*
X54174712Y-18380565D01*
G37*
G36*
X51634712Y-18380565D02*
X51719295Y-18388896D01*
X51839727Y-18425429D01*
X51882088Y-18438279D01*
X52032112Y-18518468D01*
X52163612Y-18626388D01*
X52271532Y-18757888D01*
X52351721Y-18907912D01*
X52351722Y-18907916D01*
X52401104Y-19070705D01*
X52417778Y-19240000D01*
X52401104Y-19409295D01*
X52364571Y-19529727D01*
X52351721Y-19572088D01*
X52271532Y-19722112D01*
X52163612Y-19853612D01*
X52032112Y-19961532D01*
X51882088Y-20041721D01*
X51839727Y-20054571D01*
X51719295Y-20091104D01*
X51634712Y-20099435D01*
X51592421Y-20103600D01*
X51507579Y-20103600D01*
X51465288Y-20099435D01*
X51380705Y-20091104D01*
X51260273Y-20054571D01*
X51217912Y-20041721D01*
X51067888Y-19961532D01*
X50936388Y-19853612D01*
X50828468Y-19722112D01*
X50748279Y-19572088D01*
X50735429Y-19529727D01*
X50698896Y-19409295D01*
X50682222Y-19240000D01*
X50698896Y-19070705D01*
X50748278Y-18907916D01*
X50748279Y-18907912D01*
X50828468Y-18757888D01*
X50936388Y-18626388D01*
X51067888Y-18518468D01*
X51217912Y-18438279D01*
X51260273Y-18425429D01*
X51380705Y-18388896D01*
X51465288Y-18380565D01*
X51507579Y-18376400D01*
X51592421Y-18376400D01*
X51634712Y-18380565D01*
X51634712Y-18380565D01*
G37*
G36*
X49094712Y-18380565D02*
X49179295Y-18388896D01*
X49299727Y-18425429D01*
X49342088Y-18438279D01*
X49492112Y-18518468D01*
X49623612Y-18626388D01*
X49731532Y-18757888D01*
X49811721Y-18907912D01*
X49811722Y-18907916D01*
X49861104Y-19070705D01*
X49877778Y-19240000D01*
X49861104Y-19409295D01*
X49824571Y-19529727D01*
X49811721Y-19572088D01*
X49731532Y-19722112D01*
X49623612Y-19853612D01*
X49492112Y-19961532D01*
X49342088Y-20041721D01*
X49299727Y-20054571D01*
X49179295Y-20091104D01*
X49094712Y-20099435D01*
X49052421Y-20103600D01*
X48967579Y-20103600D01*
X48925288Y-20099435D01*
X48840705Y-20091104D01*
X48720273Y-20054571D01*
X48677912Y-20041721D01*
X48527888Y-19961532D01*
X48396388Y-19853612D01*
X48288468Y-19722112D01*
X48208279Y-19572088D01*
X48195429Y-19529727D01*
X48158896Y-19409295D01*
X48142222Y-19240000D01*
X48158896Y-19070705D01*
X48208278Y-18907916D01*
X48208279Y-18907912D01*
X48288468Y-18757888D01*
X48396388Y-18626388D01*
X48527888Y-18518468D01*
X48677912Y-18438279D01*
X48720273Y-18425429D01*
X48840705Y-18388896D01*
X48925288Y-18380565D01*
X48967579Y-18376400D01*
X49052421Y-18376400D01*
X49094712Y-18380565D01*
X49094712Y-18380565D01*
G37*
G36*
X46554712Y-18380565D02*
X46639295Y-18388896D01*
X46759727Y-18425429D01*
X46802088Y-18438279D01*
X46952112Y-18518468D01*
X47083612Y-18626388D01*
X47191532Y-18757888D01*
X47271721Y-18907912D01*
X47271722Y-18907916D01*
X47321104Y-19070705D01*
X47337778Y-19240000D01*
X47321104Y-19409295D01*
X47284571Y-19529727D01*
X47271721Y-19572088D01*
X47191532Y-19722112D01*
X47083612Y-19853612D01*
X46952112Y-19961532D01*
X46802088Y-20041721D01*
X46759727Y-20054571D01*
X46639295Y-20091104D01*
X46554712Y-20099435D01*
X46512421Y-20103600D01*
X46427579Y-20103600D01*
X46385288Y-20099435D01*
X46300705Y-20091104D01*
X46180273Y-20054571D01*
X46137912Y-20041721D01*
X45987888Y-19961532D01*
X45856388Y-19853612D01*
X45748468Y-19722112D01*
X45668279Y-19572088D01*
X45655429Y-19529727D01*
X45618896Y-19409295D01*
X45602222Y-19240000D01*
X45618896Y-19070705D01*
X45668278Y-18907916D01*
X45668279Y-18907912D01*
X45748468Y-18757888D01*
X45856388Y-18626388D01*
X45987888Y-18518468D01*
X46137912Y-18438279D01*
X46180273Y-18425429D01*
X46300705Y-18388896D01*
X46385288Y-18380565D01*
X46427579Y-18376400D01*
X46512421Y-18376400D01*
X46554712Y-18380565D01*
X46554712Y-18380565D01*
G37*
G36*
X41474712Y-18380565D02*
X41559295Y-18388896D01*
X41679727Y-18425429D01*
X41722088Y-18438279D01*
X41872112Y-18518468D01*
X42003612Y-18626388D01*
X42111532Y-18757888D01*
X42191721Y-18907912D01*
X42191722Y-18907916D01*
X42241104Y-19070705D01*
X42257778Y-19240000D01*
X42241104Y-19409295D01*
X42204571Y-19529727D01*
X42191721Y-19572088D01*
X42111532Y-19722112D01*
X42003612Y-19853612D01*
X41872112Y-19961532D01*
X41722088Y-20041721D01*
X41679727Y-20054571D01*
X41559295Y-20091104D01*
X41474712Y-20099435D01*
X41432421Y-20103600D01*
X41347579Y-20103600D01*
X41305288Y-20099435D01*
X41220705Y-20091104D01*
X41100273Y-20054571D01*
X41057912Y-20041721D01*
X40907888Y-19961532D01*
X40776388Y-19853612D01*
X40668468Y-19722112D01*
X40588279Y-19572088D01*
X40575429Y-19529727D01*
X40538896Y-19409295D01*
X40522222Y-19240000D01*
X40538896Y-19070705D01*
X40588278Y-18907916D01*
X40588279Y-18907912D01*
X40668468Y-18757888D01*
X40776388Y-18626388D01*
X40907888Y-18518468D01*
X41057912Y-18438279D01*
X41100273Y-18425429D01*
X41220705Y-18388896D01*
X41305288Y-18380565D01*
X41347579Y-18376400D01*
X41432421Y-18376400D01*
X41474712Y-18380565D01*
X41474712Y-18380565D01*
G37*
G36*
X38934712Y-18380565D02*
X39019295Y-18388896D01*
X39139727Y-18425429D01*
X39182088Y-18438279D01*
X39332112Y-18518468D01*
X39463612Y-18626388D01*
X39571532Y-18757888D01*
X39651721Y-18907912D01*
X39651722Y-18907916D01*
X39701104Y-19070705D01*
X39717778Y-19240000D01*
X39701104Y-19409295D01*
X39664571Y-19529727D01*
X39651721Y-19572088D01*
X39571532Y-19722112D01*
X39463612Y-19853612D01*
X39332112Y-19961532D01*
X39182088Y-20041721D01*
X39139727Y-20054571D01*
X39019295Y-20091104D01*
X38934712Y-20099435D01*
X38892421Y-20103600D01*
X38807579Y-20103600D01*
X38765288Y-20099435D01*
X38680705Y-20091104D01*
X38560273Y-20054571D01*
X38517912Y-20041721D01*
X38367888Y-19961532D01*
X38236388Y-19853612D01*
X38128468Y-19722112D01*
X38048279Y-19572088D01*
X38035429Y-19529727D01*
X37998896Y-19409295D01*
X37982222Y-19240000D01*
X37998896Y-19070705D01*
X38048278Y-18907916D01*
X38048279Y-18907912D01*
X38128468Y-18757888D01*
X38236388Y-18626388D01*
X38367888Y-18518468D01*
X38517912Y-18438279D01*
X38560273Y-18425429D01*
X38680705Y-18388896D01*
X38765288Y-18380565D01*
X38807579Y-18376400D01*
X38892421Y-18376400D01*
X38934712Y-18380565D01*
X38934712Y-18380565D01*
G37*
G36*
X33854712Y-18380565D02*
X33939295Y-18388896D01*
X34059727Y-18425429D01*
X34102088Y-18438279D01*
X34252112Y-18518468D01*
X34383612Y-18626388D01*
X34491532Y-18757888D01*
X34571721Y-18907912D01*
X34571722Y-18907916D01*
X34621104Y-19070705D01*
X34637778Y-19240000D01*
X34621104Y-19409295D01*
X34584571Y-19529727D01*
X34571721Y-19572088D01*
X34491532Y-19722112D01*
X34383612Y-19853612D01*
X34252112Y-19961532D01*
X34102088Y-20041721D01*
X34059727Y-20054571D01*
X33939295Y-20091104D01*
X33854712Y-20099435D01*
X33812421Y-20103600D01*
X33727579Y-20103600D01*
X33685288Y-20099435D01*
X33600705Y-20091104D01*
X33480273Y-20054571D01*
X33437912Y-20041721D01*
X33287888Y-19961532D01*
X33156388Y-19853612D01*
X33048468Y-19722112D01*
X32968279Y-19572088D01*
X32955429Y-19529727D01*
X32918896Y-19409295D01*
X32902222Y-19240000D01*
X32918896Y-19070705D01*
X32968278Y-18907916D01*
X32968279Y-18907912D01*
X33048468Y-18757888D01*
X33156388Y-18626388D01*
X33287888Y-18518468D01*
X33437912Y-18438279D01*
X33480273Y-18425429D01*
X33600705Y-18388896D01*
X33685288Y-18380565D01*
X33727579Y-18376400D01*
X33812421Y-18376400D01*
X33854712Y-18380565D01*
X33854712Y-18380565D01*
G37*
G36*
X31314712Y-18380565D02*
X31399295Y-18388896D01*
X31519727Y-18425429D01*
X31562088Y-18438279D01*
X31712112Y-18518468D01*
X31843612Y-18626388D01*
X31951532Y-18757888D01*
X32031721Y-18907912D01*
X32031722Y-18907916D01*
X32081104Y-19070705D01*
X32097778Y-19240000D01*
X32081104Y-19409295D01*
X32044571Y-19529727D01*
X32031721Y-19572088D01*
X31951532Y-19722112D01*
X31843612Y-19853612D01*
X31712112Y-19961532D01*
X31562088Y-20041721D01*
X31519727Y-20054571D01*
X31399295Y-20091104D01*
X31314712Y-20099435D01*
X31272421Y-20103600D01*
X31187579Y-20103600D01*
X31145288Y-20099435D01*
X31060705Y-20091104D01*
X30940273Y-20054571D01*
X30897912Y-20041721D01*
X30747888Y-19961532D01*
X30616388Y-19853612D01*
X30508468Y-19722112D01*
X30428279Y-19572088D01*
X30415429Y-19529727D01*
X30378896Y-19409295D01*
X30362222Y-19240000D01*
X30378896Y-19070705D01*
X30428278Y-18907916D01*
X30428279Y-18907912D01*
X30508468Y-18757888D01*
X30616388Y-18626388D01*
X30747888Y-18518468D01*
X30897912Y-18438279D01*
X30940273Y-18425429D01*
X31060705Y-18388896D01*
X31145288Y-18380565D01*
X31187579Y-18376400D01*
X31272421Y-18376400D01*
X31314712Y-18380565D01*
X31314712Y-18380565D01*
G37*
G36*
X28774712Y-18380565D02*
X28859295Y-18388896D01*
X28979727Y-18425429D01*
X29022088Y-18438279D01*
X29172112Y-18518468D01*
X29303612Y-18626388D01*
X29411532Y-18757888D01*
X29491721Y-18907912D01*
X29491722Y-18907916D01*
X29541104Y-19070705D01*
X29557778Y-19240000D01*
X29541104Y-19409295D01*
X29504571Y-19529727D01*
X29491721Y-19572088D01*
X29411532Y-19722112D01*
X29303612Y-19853612D01*
X29172112Y-19961532D01*
X29022088Y-20041721D01*
X28979727Y-20054571D01*
X28859295Y-20091104D01*
X28774712Y-20099435D01*
X28732421Y-20103600D01*
X28647579Y-20103600D01*
X28605288Y-20099435D01*
X28520705Y-20091104D01*
X28400273Y-20054571D01*
X28357912Y-20041721D01*
X28207888Y-19961532D01*
X28076388Y-19853612D01*
X27968468Y-19722112D01*
X27888279Y-19572088D01*
X27875429Y-19529727D01*
X27838896Y-19409295D01*
X27822222Y-19240000D01*
X27838896Y-19070705D01*
X27888278Y-18907916D01*
X27888279Y-18907912D01*
X27968468Y-18757888D01*
X28076388Y-18626388D01*
X28207888Y-18518468D01*
X28357912Y-18438279D01*
X28400273Y-18425429D01*
X28520705Y-18388896D01*
X28605288Y-18380565D01*
X28647579Y-18376400D01*
X28732421Y-18376400D01*
X28774712Y-18380565D01*
X28774712Y-18380565D01*
G37*
G36*
X69414712Y-18380565D02*
X69499295Y-18388896D01*
X69619727Y-18425429D01*
X69662088Y-18438279D01*
X69812112Y-18518468D01*
X69943612Y-18626388D01*
X70051532Y-18757888D01*
X70131721Y-18907912D01*
X70131722Y-18907916D01*
X70181104Y-19070705D01*
X70197778Y-19240000D01*
X70181104Y-19409295D01*
X70144571Y-19529727D01*
X70131721Y-19572088D01*
X70051532Y-19722112D01*
X69943612Y-19853612D01*
X69812112Y-19961532D01*
X69662088Y-20041721D01*
X69619727Y-20054571D01*
X69499295Y-20091104D01*
X69414712Y-20099435D01*
X69372421Y-20103600D01*
X69287579Y-20103600D01*
X69245288Y-20099435D01*
X69160705Y-20091104D01*
X69040273Y-20054571D01*
X68997912Y-20041721D01*
X68847888Y-19961532D01*
X68716388Y-19853612D01*
X68608468Y-19722112D01*
X68528279Y-19572088D01*
X68515429Y-19529727D01*
X68478896Y-19409295D01*
X68462222Y-19240000D01*
X68478896Y-19070705D01*
X68528278Y-18907916D01*
X68528279Y-18907912D01*
X68608468Y-18757888D01*
X68716388Y-18626388D01*
X68847888Y-18518468D01*
X68997912Y-18438279D01*
X69040273Y-18425429D01*
X69160705Y-18388896D01*
X69245288Y-18380565D01*
X69287579Y-18376400D01*
X69372421Y-18376400D01*
X69414712Y-18380565D01*
X69414712Y-18380565D01*
G37*
G36*
X44014712Y-18380565D02*
X44099295Y-18388896D01*
X44219727Y-18425429D01*
X44262088Y-18438279D01*
X44412112Y-18518468D01*
X44543612Y-18626388D01*
X44651532Y-18757888D01*
X44731721Y-18907912D01*
X44731722Y-18907916D01*
X44781104Y-19070705D01*
X44797778Y-19240000D01*
X44781104Y-19409295D01*
X44744571Y-19529727D01*
X44731721Y-19572088D01*
X44651532Y-19722112D01*
X44543612Y-19853612D01*
X44412112Y-19961532D01*
X44262088Y-20041721D01*
X44219727Y-20054571D01*
X44099295Y-20091104D01*
X44014712Y-20099435D01*
X43972421Y-20103600D01*
X43887579Y-20103600D01*
X43845288Y-20099435D01*
X43760705Y-20091104D01*
X43640273Y-20054571D01*
X43597912Y-20041721D01*
X43447888Y-19961532D01*
X43316388Y-19853612D01*
X43208468Y-19722112D01*
X43128279Y-19572088D01*
X43115429Y-19529727D01*
X43078896Y-19409295D01*
X43062222Y-19240000D01*
X43078896Y-19070705D01*
X43128278Y-18907916D01*
X43128279Y-18907912D01*
X43208468Y-18757888D01*
X43316388Y-18626388D01*
X43447888Y-18518468D01*
X43597912Y-18438279D01*
X43640273Y-18425429D01*
X43760705Y-18388896D01*
X43845288Y-18380565D01*
X43887579Y-18376400D01*
X43972421Y-18376400D01*
X44014712Y-18380565D01*
X44014712Y-18380565D01*
G37*
G36*
X36394712Y-18380565D02*
X36479295Y-18388896D01*
X36599727Y-18425429D01*
X36642088Y-18438279D01*
X36792112Y-18518468D01*
X36923612Y-18626388D01*
X37031532Y-18757888D01*
X37111721Y-18907912D01*
X37111722Y-18907916D01*
X37161104Y-19070705D01*
X37177778Y-19240000D01*
X37161104Y-19409295D01*
X37124571Y-19529727D01*
X37111721Y-19572088D01*
X37031532Y-19722112D01*
X36923612Y-19853612D01*
X36792112Y-19961532D01*
X36642088Y-20041721D01*
X36599727Y-20054571D01*
X36479295Y-20091104D01*
X36394712Y-20099435D01*
X36352421Y-20103600D01*
X36267579Y-20103600D01*
X36225288Y-20099435D01*
X36140705Y-20091104D01*
X36020273Y-20054571D01*
X35977912Y-20041721D01*
X35827888Y-19961532D01*
X35696388Y-19853612D01*
X35588468Y-19722112D01*
X35508279Y-19572088D01*
X35495429Y-19529727D01*
X35458896Y-19409295D01*
X35442222Y-19240000D01*
X35458896Y-19070705D01*
X35508278Y-18907916D01*
X35508279Y-18907912D01*
X35588468Y-18757888D01*
X35696388Y-18626388D01*
X35827888Y-18518468D01*
X35977912Y-18438279D01*
X36020273Y-18425429D01*
X36140705Y-18388896D01*
X36225288Y-18380565D01*
X36267579Y-18376400D01*
X36352421Y-18376400D01*
X36394712Y-18380565D01*
X36394712Y-18380565D01*
G37*
G36*
X71954712Y-18380565D02*
X72039295Y-18388896D01*
X72159727Y-18425429D01*
X72202088Y-18438279D01*
X72352112Y-18518468D01*
X72483612Y-18626388D01*
X72591532Y-18757888D01*
X72671721Y-18907912D01*
X72671722Y-18907916D01*
X72721104Y-19070705D01*
X72737778Y-19240000D01*
X72721104Y-19409295D01*
X72684571Y-19529727D01*
X72671721Y-19572088D01*
X72591532Y-19722112D01*
X72483612Y-19853612D01*
X72352112Y-19961532D01*
X72202088Y-20041721D01*
X72159727Y-20054571D01*
X72039295Y-20091104D01*
X71954712Y-20099435D01*
X71912421Y-20103600D01*
X71827579Y-20103600D01*
X71785288Y-20099435D01*
X71700705Y-20091104D01*
X71580273Y-20054571D01*
X71537912Y-20041721D01*
X71387888Y-19961532D01*
X71256388Y-19853612D01*
X71148468Y-19722112D01*
X71068279Y-19572088D01*
X71055429Y-19529727D01*
X71018896Y-19409295D01*
X71002222Y-19240000D01*
X71018896Y-19070705D01*
X71068278Y-18907916D01*
X71068279Y-18907912D01*
X71148468Y-18757888D01*
X71256388Y-18626388D01*
X71387888Y-18518468D01*
X71537912Y-18438279D01*
X71580273Y-18425429D01*
X71700705Y-18388896D01*
X71785288Y-18380565D01*
X71827579Y-18376400D01*
X71912421Y-18376400D01*
X71954712Y-18380565D01*
X71954712Y-18380565D01*
G37*
G36*
X74494712Y-18380565D02*
X74579295Y-18388896D01*
X74699727Y-18425429D01*
X74742088Y-18438279D01*
X74892112Y-18518468D01*
X75023612Y-18626388D01*
X75131532Y-18757888D01*
X75211721Y-18907912D01*
X75211722Y-18907916D01*
X75261104Y-19070705D01*
X75277778Y-19240000D01*
X75261104Y-19409295D01*
X75224571Y-19529727D01*
X75211721Y-19572088D01*
X75131532Y-19722112D01*
X75023612Y-19853612D01*
X74892112Y-19961532D01*
X74742088Y-20041721D01*
X74699727Y-20054571D01*
X74579295Y-20091104D01*
X74494712Y-20099435D01*
X74452421Y-20103600D01*
X74367579Y-20103600D01*
X74325288Y-20099435D01*
X74240705Y-20091104D01*
X74120273Y-20054571D01*
X74077912Y-20041721D01*
X73927888Y-19961532D01*
X73796388Y-19853612D01*
X73688468Y-19722112D01*
X73608279Y-19572088D01*
X73595429Y-19529727D01*
X73558896Y-19409295D01*
X73542222Y-19240000D01*
X73558896Y-19070705D01*
X73608278Y-18907916D01*
X73608279Y-18907912D01*
X73688468Y-18757888D01*
X73796388Y-18626388D01*
X73927888Y-18518468D01*
X74077912Y-18438279D01*
X74120273Y-18425429D01*
X74240705Y-18388896D01*
X74325288Y-18380565D01*
X74367579Y-18376400D01*
X74452421Y-18376400D01*
X74494712Y-18380565D01*
X74494712Y-18380565D01*
G37*
G36*
X77034712Y-18380565D02*
X77119295Y-18388896D01*
X77239727Y-18425429D01*
X77282088Y-18438279D01*
X77432112Y-18518468D01*
X77563612Y-18626388D01*
X77671532Y-18757888D01*
X77751721Y-18907912D01*
X77751722Y-18907916D01*
X77801104Y-19070705D01*
X77817778Y-19240000D01*
X77801104Y-19409295D01*
X77764571Y-19529727D01*
X77751721Y-19572088D01*
X77671532Y-19722112D01*
X77563612Y-19853612D01*
X77432112Y-19961532D01*
X77282088Y-20041721D01*
X77239727Y-20054571D01*
X77119295Y-20091104D01*
X77034712Y-20099435D01*
X76992421Y-20103600D01*
X76907579Y-20103600D01*
X76865288Y-20099435D01*
X76780705Y-20091104D01*
X76660273Y-20054571D01*
X76617912Y-20041721D01*
X76467888Y-19961532D01*
X76336388Y-19853612D01*
X76228468Y-19722112D01*
X76148279Y-19572088D01*
X76135429Y-19529727D01*
X76098896Y-19409295D01*
X76082222Y-19240000D01*
X76098896Y-19070705D01*
X76148278Y-18907916D01*
X76148279Y-18907912D01*
X76228468Y-18757888D01*
X76336388Y-18626388D01*
X76467888Y-18518468D01*
X76617912Y-18438279D01*
X76660273Y-18425429D01*
X76780705Y-18388896D01*
X76865288Y-18380565D01*
X76907579Y-18376400D01*
X76992421Y-18376400D01*
X77034712Y-18380565D01*
X77034712Y-18380565D01*
G37*
M02*
