M48
;DRILL file {KiCad 5.0.2-bee76a0~70~ubuntu18.04.1} date 2019年10月12日 02時21分19秒
;FORMAT={-:-/ absolute / inch / decimal}
FMAT,2
INCH,TZ
T1C0.0059
T2C0.0157
T3C0.0260
T4C0.0354
T5C0.0390
T6C0.0394
T7C0.0400
T8C0.1063
T9C0.1083
T10C0.1102
%
G90
G05
T1
X1.0776Y-1.6482
X1.1303Y-1.6474
T2
X0.85Y-0.805
X0.85Y-2.735
X0.87Y-0.8675
X0.8725Y-0.745
X0.8725Y-2.795
X0.8775Y-2.6725
X0.935Y-0.7175
X0.9375Y-0.8925
X0.9375Y-2.645
X0.94Y-2.825
X0.975Y-1.2
X1.Y-0.7425
X1.0025Y-2.675
X1.005Y-0.8675
X1.005Y-2.795
X1.025Y-0.8075
X1.0275Y-2.7375
X1.1Y-1.525
X1.125Y-1.
X1.15Y-1.825
X1.275Y-1.05
X1.5Y-2.125
X1.525Y-1.5
X1.6Y-1.9
X2.325Y-1.925
X2.375Y-1.75
X2.625Y-1.025
X2.725Y-1.
X3.13Y-0.8075
X3.135Y-2.7375
X3.1575Y-0.7475
X3.1575Y-2.675
X3.1575Y-2.8
X3.16Y-0.87
X3.22Y-0.7175
X3.22Y-2.6475
X3.2225Y-0.8975
X3.2225Y-2.825
X3.2825Y-2.8
X3.285Y-0.8725
X3.2875Y-0.7475
X3.2875Y-2.675
X3.3125Y-0.81
X3.3125Y-2.74
T3
X2.15Y-1.65
X2.2Y-1.595
X2.25Y-1.65
T4
X1.725Y-2.45
X1.825Y-2.45
X2.225Y-2.7
X2.325Y-2.7
X2.575Y-1.825
X2.675Y-1.825
X1.5Y-2.45
X1.6Y-2.45
X1.5Y-2.7
X1.6Y-2.7
X1.25Y-2.45
X1.35Y-2.45
X1.25Y-2.7
X1.35Y-2.7
X1.975Y-2.7
X2.075Y-2.7
X1.725Y-2.7
X1.825Y-2.7
X2.225Y-2.45
X2.325Y-2.45
X1.975Y-2.45
X2.075Y-2.45
T5
X2.15Y-2.05
X2.2Y-1.98
X2.25Y-2.05
T6
X2.75Y-1.175
X2.75Y-1.275
X2.75Y-1.375
X2.95Y-1.7
X2.95Y-1.8
X2.95Y-1.9
X1.25Y-1.25
X1.25Y-1.35
X1.25Y-1.45
X1.25Y-1.55
X1.25Y-1.65
X1.25Y-1.75
X1.25Y-1.85
X1.25Y-1.95
X1.25Y-2.05
X1.25Y-2.15
X2.45Y-1.175
X2.45Y-1.275
X2.45Y-1.375
X2.15Y-1.125
X2.15Y-1.225
X2.15Y-1.325
X2.15Y-1.425
X3.05Y-1.175
X3.05Y-1.275
X3.05Y-1.375
T7
X1.1295Y-0.7575
X1.1295Y-0.8575
X1.2295Y-0.7575
X1.2295Y-0.8575
X1.3295Y-0.7575
X1.3295Y-0.8575
X1.4295Y-0.7575
X1.4295Y-0.8575
X1.5295Y-0.7575
X1.5295Y-0.8575
X1.6295Y-0.7575
X1.6295Y-0.8575
X1.7295Y-0.7575
X1.7295Y-0.8575
X1.8295Y-0.7575
X1.8295Y-0.8575
X1.9295Y-0.7575
X1.9295Y-0.8575
X2.0295Y-0.7575
X2.0295Y-0.8575
X2.1295Y-0.7575
X2.1295Y-0.8575
X2.2295Y-0.7575
X2.2295Y-0.8575
X2.3295Y-0.7575
X2.3295Y-0.8575
X2.4295Y-0.7575
X2.4295Y-0.8575
X2.5295Y-0.7575
X2.5295Y-0.8575
X2.6295Y-0.7575
X2.6295Y-0.8575
X2.7295Y-0.7575
X2.7295Y-0.8575
X2.8295Y-0.7575
X2.8295Y-0.8575
X2.9295Y-0.7575
X2.9295Y-0.8575
X3.0295Y-0.7575
X3.0295Y-0.8575
T8
X3.2213Y-2.7366
T9
X0.9378Y-2.7366
X0.9378Y-0.8075
X3.2213Y-0.8075
T10
X1.7775Y-1.26
X1.7775Y-2.14
T0
M30
