G04 #@! TF.GenerationSoftware,KiCad,Pcbnew,5.0.2-bee76a0~70~ubuntu18.04.1*
G04 #@! TF.CreationDate,2019-10-12T02:21:46+09:00*
G04 #@! TF.ProjectId,RPi_Hat,5250695f-4861-4742-9e6b-696361645f70,rev?*
G04 #@! TF.SameCoordinates,Original*
G04 #@! TF.FileFunction,Legend,Bot*
G04 #@! TF.FilePolarity,Positive*
%FSLAX46Y46*%
G04 Gerber Fmt 4.6, Leading zero omitted, Abs format (unit mm)*
G04 Created by KiCad (PCBNEW 5.0.2-bee76a0~70~ubuntu18.04.1) date 2019年10月12日 02時21分46秒*
%MOMM*%
%LPD*%
G01*
G04 APERTURE LIST*
%ADD10C,0.150000*%
%ADD11C,0.200000*%
%ADD12C,0.010000*%
G04 APERTURE END LIST*
D10*
X80279404Y-54620880D02*
X80612738Y-54144690D01*
X80850833Y-54620880D02*
X80850833Y-53620880D01*
X80469880Y-53620880D01*
X80374642Y-53668500D01*
X80327023Y-53716119D01*
X80279404Y-53811357D01*
X80279404Y-53954214D01*
X80327023Y-54049452D01*
X80374642Y-54097071D01*
X80469880Y-54144690D01*
X80850833Y-54144690D01*
X79946071Y-53954214D02*
X79707976Y-54620880D01*
X79469880Y-53954214D02*
X79707976Y-54620880D01*
X79803214Y-54858976D01*
X79850833Y-54906595D01*
X79946071Y-54954214D01*
X78946071Y-54620880D02*
X79041309Y-54573261D01*
X79088928Y-54525642D01*
X79136547Y-54430404D01*
X79136547Y-54144690D01*
X79088928Y-54049452D01*
X79041309Y-54001833D01*
X78946071Y-53954214D01*
X78803214Y-53954214D01*
X78707976Y-54001833D01*
X78660357Y-54049452D01*
X78612738Y-54144690D01*
X78612738Y-54430404D01*
X78660357Y-54525642D01*
X78707976Y-54573261D01*
X78803214Y-54620880D01*
X78946071Y-54620880D01*
X77088928Y-54097071D02*
X77422261Y-54097071D01*
X77422261Y-54620880D02*
X77422261Y-53620880D01*
X76946071Y-53620880D01*
X76136547Y-53954214D02*
X76136547Y-54620880D01*
X76565119Y-53954214D02*
X76565119Y-54478023D01*
X76517500Y-54573261D01*
X76422261Y-54620880D01*
X76279404Y-54620880D01*
X76184166Y-54573261D01*
X76136547Y-54525642D01*
X75660357Y-54620880D02*
X75660357Y-53620880D01*
X75565119Y-54239928D02*
X75279404Y-54620880D01*
X75279404Y-53954214D02*
X75660357Y-54335166D01*
X74422261Y-53954214D02*
X74422261Y-54620880D01*
X74850833Y-53954214D02*
X74850833Y-54478023D01*
X74803214Y-54573261D01*
X74707976Y-54620880D01*
X74565119Y-54620880D01*
X74469880Y-54573261D01*
X74422261Y-54525642D01*
X73517500Y-54573261D02*
X73612738Y-54620880D01*
X73803214Y-54620880D01*
X73898452Y-54573261D01*
X73946071Y-54525642D01*
X73993690Y-54430404D01*
X73993690Y-54144690D01*
X73946071Y-54049452D01*
X73898452Y-54001833D01*
X73803214Y-53954214D01*
X73612738Y-53954214D01*
X73517500Y-54001833D01*
X73088928Y-54620880D02*
X73088928Y-53620880D01*
X72660357Y-54620880D02*
X72660357Y-54097071D01*
X72707976Y-54001833D01*
X72803214Y-53954214D01*
X72946071Y-53954214D01*
X73041309Y-54001833D01*
X73088928Y-54049452D01*
X72184166Y-54620880D02*
X72184166Y-53954214D01*
X72184166Y-53620880D02*
X72231785Y-53668500D01*
X72184166Y-53716119D01*
X72136547Y-53668500D01*
X72184166Y-53620880D01*
X72184166Y-53716119D01*
X81541309Y-57920880D02*
X81541309Y-56920880D01*
X81303214Y-56920880D01*
X81160357Y-56968500D01*
X81065119Y-57063738D01*
X81017500Y-57158976D01*
X80969880Y-57349452D01*
X80969880Y-57492309D01*
X81017500Y-57682785D01*
X81065119Y-57778023D01*
X81160357Y-57873261D01*
X81303214Y-57920880D01*
X81541309Y-57920880D01*
X80112738Y-57920880D02*
X80112738Y-57397071D01*
X80160357Y-57301833D01*
X80255595Y-57254214D01*
X80446071Y-57254214D01*
X80541309Y-57301833D01*
X80112738Y-57873261D02*
X80207976Y-57920880D01*
X80446071Y-57920880D01*
X80541309Y-57873261D01*
X80588928Y-57778023D01*
X80588928Y-57682785D01*
X80541309Y-57587547D01*
X80446071Y-57539928D01*
X80207976Y-57539928D01*
X80112738Y-57492309D01*
X79636547Y-57920880D02*
X79636547Y-57254214D01*
X79636547Y-56920880D02*
X79684166Y-56968500D01*
X79636547Y-57016119D01*
X79588928Y-56968500D01*
X79636547Y-56920880D01*
X79636547Y-57016119D01*
X78731785Y-57873261D02*
X78827023Y-57920880D01*
X79017500Y-57920880D01*
X79112738Y-57873261D01*
X79160357Y-57825642D01*
X79207976Y-57730404D01*
X79207976Y-57444690D01*
X79160357Y-57349452D01*
X79112738Y-57301833D01*
X79017500Y-57254214D01*
X78827023Y-57254214D01*
X78731785Y-57301833D01*
X78303214Y-57920880D02*
X78303214Y-56920880D01*
X77874642Y-57920880D02*
X77874642Y-57397071D01*
X77922261Y-57301833D01*
X78017500Y-57254214D01*
X78160357Y-57254214D01*
X78255595Y-57301833D01*
X78303214Y-57349452D01*
X77398452Y-57920880D02*
X77398452Y-57254214D01*
X77398452Y-56920880D02*
X77446071Y-56968500D01*
X77398452Y-57016119D01*
X77350833Y-56968500D01*
X77398452Y-56920880D01*
X77398452Y-57016119D01*
X76303214Y-56920880D02*
X75731785Y-56920880D01*
X76017500Y-57920880D02*
X76017500Y-56920880D01*
X75017500Y-57873261D02*
X75112738Y-57920880D01*
X75303214Y-57920880D01*
X75398452Y-57873261D01*
X75446071Y-57778023D01*
X75446071Y-57397071D01*
X75398452Y-57301833D01*
X75303214Y-57254214D01*
X75112738Y-57254214D01*
X75017500Y-57301833D01*
X74969880Y-57397071D01*
X74969880Y-57492309D01*
X75446071Y-57587547D01*
X74112738Y-57920880D02*
X74112738Y-56920880D01*
X74112738Y-57873261D02*
X74207976Y-57920880D01*
X74398452Y-57920880D01*
X74493690Y-57873261D01*
X74541309Y-57825642D01*
X74588928Y-57730404D01*
X74588928Y-57444690D01*
X74541309Y-57349452D01*
X74493690Y-57301833D01*
X74398452Y-57254214D01*
X74207976Y-57254214D01*
X74112738Y-57301833D01*
X73207976Y-57254214D02*
X73207976Y-57920880D01*
X73636547Y-57254214D02*
X73636547Y-57778023D01*
X73588928Y-57873261D01*
X73493690Y-57920880D01*
X73350833Y-57920880D01*
X73255595Y-57873261D01*
X73207976Y-57825642D01*
X72731785Y-57920880D02*
X72731785Y-56920880D01*
X72636547Y-57539928D02*
X72350833Y-57920880D01*
X72350833Y-57254214D02*
X72731785Y-57635166D01*
X71493690Y-57920880D02*
X71493690Y-57397071D01*
X71541309Y-57301833D01*
X71636547Y-57254214D01*
X71827023Y-57254214D01*
X71922261Y-57301833D01*
X71493690Y-57873261D02*
X71588928Y-57920880D01*
X71827023Y-57920880D01*
X71922261Y-57873261D01*
X71969880Y-57778023D01*
X71969880Y-57682785D01*
X71922261Y-57587547D01*
X71827023Y-57539928D01*
X71588928Y-57539928D01*
X71493690Y-57492309D01*
X80636547Y-60697071D02*
X80969880Y-60697071D01*
X80969880Y-61220880D02*
X80969880Y-60220880D01*
X80493690Y-60220880D01*
X79684166Y-60554214D02*
X79684166Y-61220880D01*
X80112738Y-60554214D02*
X80112738Y-61078023D01*
X80065119Y-61173261D01*
X79969880Y-61220880D01*
X79827023Y-61220880D01*
X79731785Y-61173261D01*
X79684166Y-61125642D01*
X79207976Y-61220880D02*
X79207976Y-60554214D01*
X79207976Y-60649452D02*
X79160357Y-60601833D01*
X79065119Y-60554214D01*
X78922261Y-60554214D01*
X78827023Y-60601833D01*
X78779404Y-60697071D01*
X78779404Y-61220880D01*
X78779404Y-60697071D02*
X78731785Y-60601833D01*
X78636547Y-60554214D01*
X78493690Y-60554214D01*
X78398452Y-60601833D01*
X78350833Y-60697071D01*
X78350833Y-61220880D01*
X77874642Y-61220880D02*
X77874642Y-60554214D01*
X77874642Y-60220880D02*
X77922261Y-60268500D01*
X77874642Y-60316119D01*
X77827023Y-60268500D01*
X77874642Y-60220880D01*
X77874642Y-60316119D01*
X77398452Y-61220880D02*
X77398452Y-60220880D01*
X77303214Y-60839928D02*
X77017500Y-61220880D01*
X77017500Y-60554214D02*
X77398452Y-60935166D01*
X76160357Y-61220880D02*
X76160357Y-60697071D01*
X76207976Y-60601833D01*
X76303214Y-60554214D01*
X76493690Y-60554214D01*
X76588928Y-60601833D01*
X76160357Y-61173261D02*
X76255595Y-61220880D01*
X76493690Y-61220880D01*
X76588928Y-61173261D01*
X76636547Y-61078023D01*
X76636547Y-60982785D01*
X76588928Y-60887547D01*
X76493690Y-60839928D01*
X76255595Y-60839928D01*
X76160357Y-60792309D01*
X74922261Y-61220880D02*
X74922261Y-60220880D01*
X74922261Y-60697071D02*
X74350833Y-60697071D01*
X74350833Y-61220880D02*
X74350833Y-60220880D01*
X73731785Y-61220880D02*
X73827023Y-61173261D01*
X73874642Y-61125642D01*
X73922261Y-61030404D01*
X73922261Y-60744690D01*
X73874642Y-60649452D01*
X73827023Y-60601833D01*
X73731785Y-60554214D01*
X73588928Y-60554214D01*
X73493690Y-60601833D01*
X73446071Y-60649452D01*
X73398452Y-60744690D01*
X73398452Y-61030404D01*
X73446071Y-61125642D01*
X73493690Y-61173261D01*
X73588928Y-61220880D01*
X73731785Y-61220880D01*
X72969880Y-60554214D02*
X72969880Y-61411357D01*
X73017500Y-61506595D01*
X73112738Y-61554214D01*
X73160357Y-61554214D01*
X72969880Y-60220880D02*
X73017500Y-60268500D01*
X72969880Y-60316119D01*
X72922261Y-60268500D01*
X72969880Y-60220880D01*
X72969880Y-60316119D01*
X72350833Y-61220880D02*
X72446071Y-61173261D01*
X72493690Y-61125642D01*
X72541309Y-61030404D01*
X72541309Y-60744690D01*
X72493690Y-60649452D01*
X72446071Y-60601833D01*
X72350833Y-60554214D01*
X72207976Y-60554214D01*
X72112738Y-60601833D01*
X72065119Y-60649452D01*
X72017500Y-60744690D01*
X72017500Y-61030404D01*
X72065119Y-61125642D01*
X72112738Y-61173261D01*
X72207976Y-61220880D01*
X72350833Y-61220880D01*
X82827023Y-63520880D02*
X82255595Y-63520880D01*
X82541309Y-64520880D02*
X82541309Y-63520880D01*
X81493690Y-64520880D02*
X81493690Y-63997071D01*
X81541309Y-63901833D01*
X81636547Y-63854214D01*
X81827023Y-63854214D01*
X81922261Y-63901833D01*
X81493690Y-64473261D02*
X81588928Y-64520880D01*
X81827023Y-64520880D01*
X81922261Y-64473261D01*
X81969880Y-64378023D01*
X81969880Y-64282785D01*
X81922261Y-64187547D01*
X81827023Y-64139928D01*
X81588928Y-64139928D01*
X81493690Y-64092309D01*
X81017500Y-64520880D02*
X81017500Y-63520880D01*
X80922261Y-64139928D02*
X80636547Y-64520880D01*
X80636547Y-63854214D02*
X81017500Y-64235166D01*
X79779404Y-63854214D02*
X79779404Y-64520880D01*
X80207976Y-63854214D02*
X80207976Y-64378023D01*
X80160357Y-64473261D01*
X80065119Y-64520880D01*
X79922261Y-64520880D01*
X79827023Y-64473261D01*
X79779404Y-64425642D01*
X79303214Y-64520880D02*
X79303214Y-63854214D01*
X79303214Y-63949452D02*
X79255595Y-63901833D01*
X79160357Y-63854214D01*
X79017500Y-63854214D01*
X78922261Y-63901833D01*
X78874642Y-63997071D01*
X78874642Y-64520880D01*
X78874642Y-63997071D02*
X78827023Y-63901833D01*
X78731785Y-63854214D01*
X78588928Y-63854214D01*
X78493690Y-63901833D01*
X78446071Y-63997071D01*
X78446071Y-64520880D01*
X77541309Y-64520880D02*
X77541309Y-63997071D01*
X77588928Y-63901833D01*
X77684166Y-63854214D01*
X77874642Y-63854214D01*
X77969880Y-63901833D01*
X77541309Y-64473261D02*
X77636547Y-64520880D01*
X77874642Y-64520880D01*
X77969880Y-64473261D01*
X78017500Y-64378023D01*
X78017500Y-64282785D01*
X77969880Y-64187547D01*
X77874642Y-64139928D01*
X77636547Y-64139928D01*
X77541309Y-64092309D01*
X76350833Y-64473261D02*
X76207976Y-64520880D01*
X75969880Y-64520880D01*
X75874642Y-64473261D01*
X75827023Y-64425642D01*
X75779404Y-64330404D01*
X75779404Y-64235166D01*
X75827023Y-64139928D01*
X75874642Y-64092309D01*
X75969880Y-64044690D01*
X76160357Y-63997071D01*
X76255595Y-63949452D01*
X76303214Y-63901833D01*
X76350833Y-63806595D01*
X76350833Y-63711357D01*
X76303214Y-63616119D01*
X76255595Y-63568500D01*
X76160357Y-63520880D01*
X75922261Y-63520880D01*
X75779404Y-63568500D01*
X75350833Y-64520880D02*
X75350833Y-63520880D01*
X74922261Y-64520880D02*
X74922261Y-63997071D01*
X74969880Y-63901833D01*
X75065119Y-63854214D01*
X75207976Y-63854214D01*
X75303214Y-63901833D01*
X75350833Y-63949452D01*
X74446071Y-64520880D02*
X74446071Y-63854214D01*
X74446071Y-63520880D02*
X74493690Y-63568500D01*
X74446071Y-63616119D01*
X74398452Y-63568500D01*
X74446071Y-63520880D01*
X74446071Y-63616119D01*
X73969880Y-64520880D02*
X73969880Y-63854214D01*
X73969880Y-64044690D02*
X73922261Y-63949452D01*
X73874642Y-63901833D01*
X73779404Y-63854214D01*
X73684166Y-63854214D01*
X73207976Y-64520880D02*
X73303214Y-64473261D01*
X73350833Y-64425642D01*
X73398452Y-64330404D01*
X73398452Y-64044690D01*
X73350833Y-63949452D01*
X73303214Y-63901833D01*
X73207976Y-63854214D01*
X73065119Y-63854214D01*
X72969880Y-63901833D01*
X72922261Y-63949452D01*
X72874642Y-64044690D01*
X72874642Y-64330404D01*
X72922261Y-64425642D01*
X72969880Y-64473261D01*
X73065119Y-64520880D01*
X73207976Y-64520880D01*
X72588928Y-63854214D02*
X72207976Y-63854214D01*
X72446071Y-63520880D02*
X72446071Y-64378023D01*
X72398452Y-64473261D01*
X72303214Y-64520880D01*
X72207976Y-64520880D01*
X71731785Y-64520880D02*
X71827023Y-64473261D01*
X71874642Y-64425642D01*
X71922261Y-64330404D01*
X71922261Y-64044690D01*
X71874642Y-63949452D01*
X71827023Y-63901833D01*
X71731785Y-63854214D01*
X71588928Y-63854214D01*
X71493690Y-63901833D01*
X71446071Y-63949452D01*
X71398452Y-64044690D01*
X71398452Y-64330404D01*
X71446071Y-64425642D01*
X71493690Y-64473261D01*
X71588928Y-64520880D01*
X71731785Y-64520880D01*
X70969880Y-64520880D02*
X70969880Y-63854214D01*
X70969880Y-64044690D02*
X70922261Y-63949452D01*
X70874642Y-63901833D01*
X70779404Y-63854214D01*
X70684166Y-63854214D01*
X70350833Y-64520880D02*
X70350833Y-63854214D01*
X70350833Y-63520880D02*
X70398452Y-63568500D01*
X70350833Y-63616119D01*
X70303214Y-63568500D01*
X70350833Y-63520880D01*
X70350833Y-63616119D01*
D11*
G04 #@! TO.C,JP1*
X26590000Y-42646600D02*
X26590000Y-41122600D01*
X26590000Y-41122600D02*
X29190000Y-41122600D01*
X29190000Y-42646600D02*
X26590000Y-42646600D01*
X29190000Y-41122600D02*
X29190000Y-42646600D01*
D12*
G04 #@! TO.C,G\002A\002A\002A*
G36*
X33521006Y-40328216D02*
X33453923Y-40411969D01*
X33453566Y-40509508D01*
X33526978Y-40634500D01*
X33681202Y-40800612D01*
X33840484Y-40948200D01*
X34135414Y-41238203D01*
X34372871Y-41524270D01*
X34546631Y-41794278D01*
X34650468Y-42036101D01*
X34678158Y-42237616D01*
X34623476Y-42386696D01*
X34594104Y-42416118D01*
X34540149Y-42448965D01*
X34528990Y-42406033D01*
X34546494Y-42301247D01*
X34564889Y-42177946D01*
X34538637Y-42137635D01*
X34449800Y-42153622D01*
X34447682Y-42154215D01*
X34338225Y-42176932D01*
X34145554Y-42209347D01*
X33898433Y-42246852D01*
X33667900Y-42279174D01*
X33253651Y-42347371D01*
X32945670Y-42427293D01*
X32737673Y-42521963D01*
X32623374Y-42634408D01*
X32596489Y-42767651D01*
X32600242Y-42793018D01*
X32651671Y-42900149D01*
X32765953Y-42971655D01*
X32955870Y-43010656D01*
X33234200Y-43020269D01*
X33493403Y-43010915D01*
X33766781Y-42998328D01*
X33955040Y-42998020D01*
X34085563Y-43012903D01*
X34185732Y-43045894D01*
X34273295Y-43093927D01*
X34460520Y-43209308D01*
X34273295Y-43372251D01*
X34114311Y-43504876D01*
X33922892Y-43656897D01*
X33832070Y-43726431D01*
X33662416Y-43875545D01*
X33585704Y-44002123D01*
X33578070Y-44055908D01*
X33594678Y-44149838D01*
X33665908Y-44194639D01*
X33785770Y-44211429D01*
X33927447Y-44206781D01*
X34089509Y-44164747D01*
X34290459Y-44077551D01*
X34548800Y-43937418D01*
X34812334Y-43780071D01*
X35140671Y-43623632D01*
X35454216Y-43573462D01*
X35773866Y-43628734D01*
X36017415Y-43732266D01*
X36339791Y-43854756D01*
X36567749Y-43883703D01*
X36744945Y-43871530D01*
X36814810Y-43836686D01*
X36775738Y-43781676D01*
X36668403Y-43726296D01*
X36573934Y-43683814D01*
X36572273Y-43669847D01*
X36671831Y-43677668D01*
X36722259Y-43683209D01*
X36869155Y-43724039D01*
X37074258Y-43812471D01*
X37302339Y-43932760D01*
X37370105Y-43972782D01*
X37721820Y-44161007D01*
X38007533Y-44258704D01*
X38226865Y-44265790D01*
X38371825Y-44190106D01*
X38445212Y-44043897D01*
X38454498Y-43841375D01*
X38404188Y-43615875D01*
X38298791Y-43400732D01*
X38257362Y-43343516D01*
X38105327Y-43148861D01*
X38013834Y-43019586D01*
X37971354Y-42934184D01*
X37966357Y-42871146D01*
X37980041Y-42826176D01*
X38014472Y-42765492D01*
X38047420Y-42800915D01*
X38070532Y-42857092D01*
X38109293Y-42940720D01*
X38158973Y-42955676D01*
X38257837Y-42906784D01*
X38294444Y-42885314D01*
X38471483Y-42774208D01*
X38564217Y-42685290D01*
X38570448Y-42599137D01*
X38487977Y-42496324D01*
X38314609Y-42357427D01*
X38227483Y-42293363D01*
X37825167Y-42000892D01*
X37504436Y-41769915D01*
X37256395Y-41594421D01*
X37072148Y-41468396D01*
X36942800Y-41385827D01*
X36859456Y-41340701D01*
X36813222Y-41327005D01*
X36801888Y-41329650D01*
X36807082Y-41373994D01*
X36886555Y-41434413D01*
X36962733Y-41489247D01*
X36932146Y-41509833D01*
X36795590Y-41496188D01*
X36553864Y-41448328D01*
X36453603Y-41425598D01*
X36228619Y-41380181D01*
X36090945Y-41366697D01*
X36046566Y-41383774D01*
X36101469Y-41430043D01*
X36208306Y-41481738D01*
X36306351Y-41534102D01*
X36319715Y-41564450D01*
X36302120Y-41567271D01*
X36124380Y-41535720D01*
X35882955Y-41441972D01*
X35600354Y-41296732D01*
X35299087Y-41110704D01*
X35202545Y-41044399D01*
X34803575Y-40778845D01*
X34438019Y-40566132D01*
X34116223Y-40410665D01*
X33848534Y-40316852D01*
X33645298Y-40289099D01*
X33521006Y-40328216D01*
X33521006Y-40328216D01*
G37*
X33521006Y-40328216D02*
X33453923Y-40411969D01*
X33453566Y-40509508D01*
X33526978Y-40634500D01*
X33681202Y-40800612D01*
X33840484Y-40948200D01*
X34135414Y-41238203D01*
X34372871Y-41524270D01*
X34546631Y-41794278D01*
X34650468Y-42036101D01*
X34678158Y-42237616D01*
X34623476Y-42386696D01*
X34594104Y-42416118D01*
X34540149Y-42448965D01*
X34528990Y-42406033D01*
X34546494Y-42301247D01*
X34564889Y-42177946D01*
X34538637Y-42137635D01*
X34449800Y-42153622D01*
X34447682Y-42154215D01*
X34338225Y-42176932D01*
X34145554Y-42209347D01*
X33898433Y-42246852D01*
X33667900Y-42279174D01*
X33253651Y-42347371D01*
X32945670Y-42427293D01*
X32737673Y-42521963D01*
X32623374Y-42634408D01*
X32596489Y-42767651D01*
X32600242Y-42793018D01*
X32651671Y-42900149D01*
X32765953Y-42971655D01*
X32955870Y-43010656D01*
X33234200Y-43020269D01*
X33493403Y-43010915D01*
X33766781Y-42998328D01*
X33955040Y-42998020D01*
X34085563Y-43012903D01*
X34185732Y-43045894D01*
X34273295Y-43093927D01*
X34460520Y-43209308D01*
X34273295Y-43372251D01*
X34114311Y-43504876D01*
X33922892Y-43656897D01*
X33832070Y-43726431D01*
X33662416Y-43875545D01*
X33585704Y-44002123D01*
X33578070Y-44055908D01*
X33594678Y-44149838D01*
X33665908Y-44194639D01*
X33785770Y-44211429D01*
X33927447Y-44206781D01*
X34089509Y-44164747D01*
X34290459Y-44077551D01*
X34548800Y-43937418D01*
X34812334Y-43780071D01*
X35140671Y-43623632D01*
X35454216Y-43573462D01*
X35773866Y-43628734D01*
X36017415Y-43732266D01*
X36339791Y-43854756D01*
X36567749Y-43883703D01*
X36744945Y-43871530D01*
X36814810Y-43836686D01*
X36775738Y-43781676D01*
X36668403Y-43726296D01*
X36573934Y-43683814D01*
X36572273Y-43669847D01*
X36671831Y-43677668D01*
X36722259Y-43683209D01*
X36869155Y-43724039D01*
X37074258Y-43812471D01*
X37302339Y-43932760D01*
X37370105Y-43972782D01*
X37721820Y-44161007D01*
X38007533Y-44258704D01*
X38226865Y-44265790D01*
X38371825Y-44190106D01*
X38445212Y-44043897D01*
X38454498Y-43841375D01*
X38404188Y-43615875D01*
X38298791Y-43400732D01*
X38257362Y-43343516D01*
X38105327Y-43148861D01*
X38013834Y-43019586D01*
X37971354Y-42934184D01*
X37966357Y-42871146D01*
X37980041Y-42826176D01*
X38014472Y-42765492D01*
X38047420Y-42800915D01*
X38070532Y-42857092D01*
X38109293Y-42940720D01*
X38158973Y-42955676D01*
X38257837Y-42906784D01*
X38294444Y-42885314D01*
X38471483Y-42774208D01*
X38564217Y-42685290D01*
X38570448Y-42599137D01*
X38487977Y-42496324D01*
X38314609Y-42357427D01*
X38227483Y-42293363D01*
X37825167Y-42000892D01*
X37504436Y-41769915D01*
X37256395Y-41594421D01*
X37072148Y-41468396D01*
X36942800Y-41385827D01*
X36859456Y-41340701D01*
X36813222Y-41327005D01*
X36801888Y-41329650D01*
X36807082Y-41373994D01*
X36886555Y-41434413D01*
X36962733Y-41489247D01*
X36932146Y-41509833D01*
X36795590Y-41496188D01*
X36553864Y-41448328D01*
X36453603Y-41425598D01*
X36228619Y-41380181D01*
X36090945Y-41366697D01*
X36046566Y-41383774D01*
X36101469Y-41430043D01*
X36208306Y-41481738D01*
X36306351Y-41534102D01*
X36319715Y-41564450D01*
X36302120Y-41567271D01*
X36124380Y-41535720D01*
X35882955Y-41441972D01*
X35600354Y-41296732D01*
X35299087Y-41110704D01*
X35202545Y-41044399D01*
X34803575Y-40778845D01*
X34438019Y-40566132D01*
X34116223Y-40410665D01*
X33848534Y-40316852D01*
X33645298Y-40289099D01*
X33521006Y-40328216D01*
G36*
X42837408Y-33812002D02*
X42726566Y-33891346D01*
X42607453Y-34039549D01*
X42492695Y-34212911D01*
X42276752Y-34479015D01*
X42070116Y-34628264D01*
X41929858Y-34697373D01*
X41867040Y-34715152D01*
X41859123Y-34682704D01*
X41871871Y-34637943D01*
X41870467Y-34548224D01*
X41783480Y-34479447D01*
X41736746Y-34458497D01*
X41549518Y-34410973D01*
X41436160Y-34443118D01*
X41405702Y-34542195D01*
X41467172Y-34695465D01*
X41517991Y-34767153D01*
X41716615Y-34938938D01*
X41973987Y-35049170D01*
X42186600Y-35078369D01*
X42385115Y-35132237D01*
X42505253Y-35223311D01*
X42604799Y-35315886D01*
X42669449Y-35334152D01*
X42743530Y-35284221D01*
X42770799Y-35259930D01*
X42923135Y-35131954D01*
X43000993Y-35087167D01*
X43004118Y-35123701D01*
X42932256Y-35239688D01*
X42793048Y-35423343D01*
X42609861Y-35740762D01*
X42499775Y-36134715D01*
X42466227Y-36540784D01*
X42429375Y-36938125D01*
X42315815Y-37309391D01*
X42114795Y-37685104D01*
X42007006Y-37844147D01*
X41775903Y-38214917D01*
X41634979Y-38564286D01*
X41574357Y-38923131D01*
X41574426Y-39196712D01*
X41593772Y-39404469D01*
X41633238Y-39588018D01*
X41704324Y-39784229D01*
X41818529Y-40029969D01*
X41860602Y-40114267D01*
X42124534Y-40638147D01*
X41915302Y-40406769D01*
X41639158Y-40024665D01*
X41439538Y-39586107D01*
X41365276Y-39313371D01*
X41324688Y-39135890D01*
X41278414Y-39037834D01*
X41201206Y-38987451D01*
X41081052Y-38955882D01*
X40850366Y-38930641D01*
X40551591Y-38933375D01*
X40225175Y-38961007D01*
X39911562Y-39010463D01*
X39708153Y-39060304D01*
X39487337Y-39134709D01*
X39264229Y-39223411D01*
X39062753Y-39315093D01*
X38906830Y-39398435D01*
X38820384Y-39462121D01*
X38811132Y-39484698D01*
X38860006Y-39529992D01*
X38986680Y-39629899D01*
X39176907Y-39773674D01*
X39416443Y-39950570D01*
X39691043Y-40149843D01*
X39730514Y-40178226D01*
X40018779Y-40385585D01*
X40283895Y-40576861D01*
X40508984Y-40739831D01*
X40677167Y-40862274D01*
X40771566Y-40931968D01*
X40774736Y-40934374D01*
X40856129Y-40994639D01*
X41015746Y-41111297D01*
X41243397Y-41276981D01*
X41528892Y-41484320D01*
X41862040Y-41725947D01*
X42232650Y-41994492D01*
X42630532Y-42282588D01*
X43045495Y-42582866D01*
X43467349Y-42887956D01*
X43885903Y-43190490D01*
X44290966Y-43483101D01*
X44672349Y-43758418D01*
X45019860Y-44009074D01*
X45323308Y-44227699D01*
X45572504Y-44406926D01*
X45757257Y-44539385D01*
X45867375Y-44617708D01*
X45894042Y-44636060D01*
X45968691Y-44619324D01*
X46073150Y-44510983D01*
X46107186Y-44463718D01*
X46252800Y-44250592D01*
X46124324Y-44143532D01*
X45995847Y-44036472D01*
X46249847Y-44074215D01*
X46590360Y-44169413D01*
X46980891Y-44359776D01*
X47415782Y-44642260D01*
X47684150Y-44845551D01*
X47961394Y-45061310D01*
X48174922Y-45215618D01*
X48345599Y-45321786D01*
X48494294Y-45393126D01*
X48602409Y-45431310D01*
X48693751Y-45440763D01*
X48735659Y-45374426D01*
X48746742Y-45311461D01*
X48768068Y-45153703D01*
X48836098Y-45314428D01*
X48867630Y-45416648D01*
X48862933Y-45521816D01*
X48816012Y-45665420D01*
X48751493Y-45815268D01*
X48671613Y-45998386D01*
X48635950Y-46107518D01*
X48641343Y-46171142D01*
X48684633Y-46217740D01*
X48705141Y-46233098D01*
X48815473Y-46296339D01*
X48921412Y-46298742D01*
X49068013Y-46239121D01*
X49100292Y-46222694D01*
X49229864Y-46137641D01*
X49399197Y-46002899D01*
X49551847Y-45866020D01*
X49782918Y-45658171D01*
X49971486Y-45514018D01*
X50107593Y-45439983D01*
X50181276Y-45442487D01*
X50188666Y-45455491D01*
X50262182Y-45513336D01*
X50411920Y-45514473D01*
X50619484Y-45463769D01*
X50866480Y-45366093D01*
X51134513Y-45226311D01*
X51197563Y-45188495D01*
X51391246Y-45078494D01*
X51526403Y-45020238D01*
X51591834Y-45016704D01*
X51576342Y-45070869D01*
X51559796Y-45092233D01*
X51525378Y-45142340D01*
X51532298Y-45182915D01*
X51597944Y-45227517D01*
X51739702Y-45289704D01*
X51889594Y-45349406D01*
X52128795Y-45422341D01*
X52298073Y-45427776D01*
X52388805Y-45366457D01*
X52402106Y-45305121D01*
X52370208Y-45214494D01*
X52286539Y-45066170D01*
X52168833Y-44891404D01*
X52162217Y-44882319D01*
X52031968Y-44711201D01*
X51939755Y-44616326D01*
X51861314Y-44579798D01*
X51772382Y-44583721D01*
X51760409Y-44585951D01*
X51653806Y-44599798D01*
X51638677Y-44573873D01*
X51666147Y-44535666D01*
X51817881Y-44430046D01*
X52047218Y-44365854D01*
X52324346Y-44349787D01*
X52450951Y-44359362D01*
X52715747Y-44389421D01*
X52888823Y-44404477D01*
X52990574Y-44402680D01*
X53041401Y-44382181D01*
X53061701Y-44341130D01*
X53068066Y-44303411D01*
X53046174Y-44214589D01*
X52952990Y-44089538D01*
X52779226Y-43916763D01*
X52691870Y-43837744D01*
X52513531Y-43684948D01*
X52362611Y-43566108D01*
X52261255Y-43498174D01*
X52235776Y-43488592D01*
X52146855Y-43516622D01*
X52020923Y-43584137D01*
X52019306Y-43585154D01*
X51866070Y-43681716D01*
X51978958Y-43544954D01*
X52167427Y-43354324D01*
X52396163Y-43178227D01*
X52634462Y-43035750D01*
X52851616Y-42945979D01*
X52976816Y-42924698D01*
X53091439Y-42886471D01*
X53162208Y-42833500D01*
X53218578Y-42730905D01*
X53177995Y-42646141D01*
X53055641Y-42584020D01*
X52866700Y-42549353D01*
X52626353Y-42546952D01*
X52360888Y-42579554D01*
X52090245Y-42642906D01*
X51776068Y-42743041D01*
X51404703Y-42885158D01*
X50962498Y-43074460D01*
X50471594Y-43299344D01*
X50082214Y-43470763D01*
X49771183Y-43582046D01*
X49524555Y-43638061D01*
X49489156Y-43642322D01*
X49302676Y-43655490D01*
X49213720Y-43644545D01*
X49207741Y-43610282D01*
X49292442Y-43555311D01*
X49357623Y-43545036D01*
X49447597Y-43526276D01*
X49467181Y-43501526D01*
X49429199Y-43447592D01*
X49325423Y-43331446D01*
X49171104Y-43169456D01*
X48981495Y-42977995D01*
X48954441Y-42951192D01*
X48543907Y-42526747D01*
X48215133Y-42143509D01*
X47953628Y-41783696D01*
X47805666Y-41541258D01*
X47662710Y-41320287D01*
X47489993Y-41100405D01*
X47314108Y-40912239D01*
X47161644Y-40786417D01*
X47138164Y-40772438D01*
X47044885Y-40755524D01*
X46924467Y-40809523D01*
X46841831Y-40868273D01*
X46723957Y-40951840D01*
X46653640Y-40989449D01*
X46644958Y-40986798D01*
X46679532Y-40932207D01*
X46771029Y-40816473D01*
X46799582Y-40782696D01*
X44782450Y-40782696D01*
X44739258Y-40849770D01*
X44683514Y-40887626D01*
X44486979Y-40943304D01*
X44276309Y-40913210D01*
X44173962Y-40860724D01*
X44080114Y-40767438D01*
X44048514Y-40691391D01*
X44061305Y-40623944D01*
X44115027Y-40623472D01*
X44232704Y-40691074D01*
X44247806Y-40700920D01*
X44427481Y-40764779D01*
X44584487Y-40754807D01*
X44727617Y-40746692D01*
X44782450Y-40782696D01*
X46799582Y-40782696D01*
X46901110Y-40662594D01*
X46928979Y-40630595D01*
X47103093Y-40408633D01*
X47273254Y-40154297D01*
X47387839Y-39950879D01*
X47477150Y-39758579D01*
X47526880Y-39605954D01*
X47542328Y-39474511D01*
X44888544Y-39474511D01*
X44878598Y-39602597D01*
X44817582Y-39811308D01*
X44710508Y-39962586D01*
X44577568Y-40043283D01*
X44438953Y-40040250D01*
X44329951Y-39959867D01*
X44277643Y-39830192D01*
X44261225Y-39643652D01*
X44281140Y-39450559D01*
X44324333Y-39323667D01*
X44422996Y-39200531D01*
X44501741Y-39141475D01*
X44594137Y-39115963D01*
X44687221Y-39161164D01*
X44761304Y-39229139D01*
X44858608Y-39349224D01*
X44888544Y-39474511D01*
X47542328Y-39474511D01*
X47545526Y-39447303D01*
X47541588Y-39236924D01*
X47536850Y-39149555D01*
X47500073Y-38833681D01*
X47421061Y-38547742D01*
X47287787Y-38264957D01*
X47268334Y-38235088D01*
X44785082Y-38235088D01*
X44730256Y-38310590D01*
X44655292Y-38350388D01*
X44533988Y-38394526D01*
X44457199Y-38391485D01*
X44364428Y-38335512D01*
X44343296Y-38320724D01*
X44248518Y-38213282D01*
X44217847Y-38114420D01*
X44224266Y-38034044D01*
X44262668Y-38039573D01*
X44328510Y-38096132D01*
X44493995Y-38172560D01*
X44610732Y-38171100D01*
X44742868Y-38179047D01*
X44785082Y-38235088D01*
X47268334Y-38235088D01*
X47088222Y-37958544D01*
X46880367Y-37687854D01*
X46690703Y-37438904D01*
X46540834Y-37205335D01*
X46415219Y-36956094D01*
X46298312Y-36660131D01*
X46294291Y-36647984D01*
X45344370Y-36647984D01*
X45330489Y-36813339D01*
X45279236Y-36929465D01*
X45277356Y-36931394D01*
X45169382Y-36995811D01*
X45089170Y-36957383D01*
X45048356Y-36831288D01*
X44095212Y-36831288D01*
X44054077Y-36966252D01*
X44037225Y-36986192D01*
X43974548Y-37043290D01*
X43919563Y-37043580D01*
X43855575Y-37019664D01*
X43789006Y-36940853D01*
X43764690Y-36766189D01*
X43764497Y-36751553D01*
X43760072Y-36609412D01*
X43742555Y-36564173D01*
X43701070Y-36599871D01*
X43679830Y-36627269D01*
X43618460Y-36699531D01*
X43598456Y-36681467D01*
X43596958Y-36637669D01*
X43627189Y-36491441D01*
X43700389Y-36371402D01*
X43790320Y-36320177D01*
X43792403Y-36320147D01*
X43911292Y-36370400D01*
X44010362Y-36496749D01*
X44076154Y-36662583D01*
X44095212Y-36831288D01*
X45048356Y-36831288D01*
X45046213Y-36824668D01*
X45041796Y-36719063D01*
X45041427Y-36572813D01*
X45026167Y-36523139D01*
X44988168Y-36553949D01*
X44971824Y-36575574D01*
X44894455Y-36646360D01*
X44855775Y-36624607D01*
X44875451Y-36529052D01*
X44890548Y-36498137D01*
X44998213Y-36383297D01*
X45136861Y-36338494D01*
X45263184Y-36377533D01*
X45264778Y-36378839D01*
X45322069Y-36485713D01*
X45344370Y-36647984D01*
X46294291Y-36647984D01*
X46174573Y-36286395D01*
X46167490Y-36263703D01*
X46085837Y-36056291D01*
X45496781Y-36056291D01*
X45484351Y-36100027D01*
X45423409Y-36128205D01*
X45363821Y-36079887D01*
X45346736Y-36013983D01*
X45314063Y-35921891D01*
X45234682Y-35797942D01*
X45227412Y-35788564D01*
X45144926Y-35664895D01*
X45143371Y-35612644D01*
X45219917Y-35637423D01*
X45283149Y-35678030D01*
X45392974Y-35789795D01*
X45470941Y-35930052D01*
X45496781Y-36056291D01*
X46085837Y-36056291D01*
X45980918Y-35789781D01*
X45840832Y-35555989D01*
X44009848Y-35555989D01*
X43989747Y-35607385D01*
X43892456Y-35689738D01*
X43815632Y-35745240D01*
X43639271Y-35863859D01*
X43535337Y-35915909D01*
X43489591Y-35907163D01*
X43484070Y-35879664D01*
X43521356Y-35816746D01*
X43615934Y-35708785D01*
X43676217Y-35648055D01*
X43809636Y-35534069D01*
X43903523Y-35498445D01*
X43965446Y-35516147D01*
X44009848Y-35555989D01*
X45840832Y-35555989D01*
X45743515Y-35393576D01*
X45463644Y-35087918D01*
X45338596Y-34991773D01*
X45076263Y-34852241D01*
X44749652Y-34735388D01*
X44407060Y-34655493D01*
X44104138Y-34626814D01*
X43959818Y-34615027D01*
X43904118Y-34583118D01*
X43907403Y-34570369D01*
X43981410Y-34534290D01*
X44121790Y-34514956D01*
X44164734Y-34513925D01*
X44304904Y-34502942D01*
X44382019Y-34475553D01*
X44387181Y-34465106D01*
X44342012Y-34416940D01*
X44220200Y-34325994D01*
X44042288Y-34206924D01*
X43899839Y-34117427D01*
X43617756Y-33954893D01*
X43395599Y-33853328D01*
X43206659Y-33801328D01*
X43138131Y-33792204D01*
X42965942Y-33784596D01*
X42837408Y-33812002D01*
X42837408Y-33812002D01*
G37*
X42837408Y-33812002D02*
X42726566Y-33891346D01*
X42607453Y-34039549D01*
X42492695Y-34212911D01*
X42276752Y-34479015D01*
X42070116Y-34628264D01*
X41929858Y-34697373D01*
X41867040Y-34715152D01*
X41859123Y-34682704D01*
X41871871Y-34637943D01*
X41870467Y-34548224D01*
X41783480Y-34479447D01*
X41736746Y-34458497D01*
X41549518Y-34410973D01*
X41436160Y-34443118D01*
X41405702Y-34542195D01*
X41467172Y-34695465D01*
X41517991Y-34767153D01*
X41716615Y-34938938D01*
X41973987Y-35049170D01*
X42186600Y-35078369D01*
X42385115Y-35132237D01*
X42505253Y-35223311D01*
X42604799Y-35315886D01*
X42669449Y-35334152D01*
X42743530Y-35284221D01*
X42770799Y-35259930D01*
X42923135Y-35131954D01*
X43000993Y-35087167D01*
X43004118Y-35123701D01*
X42932256Y-35239688D01*
X42793048Y-35423343D01*
X42609861Y-35740762D01*
X42499775Y-36134715D01*
X42466227Y-36540784D01*
X42429375Y-36938125D01*
X42315815Y-37309391D01*
X42114795Y-37685104D01*
X42007006Y-37844147D01*
X41775903Y-38214917D01*
X41634979Y-38564286D01*
X41574357Y-38923131D01*
X41574426Y-39196712D01*
X41593772Y-39404469D01*
X41633238Y-39588018D01*
X41704324Y-39784229D01*
X41818529Y-40029969D01*
X41860602Y-40114267D01*
X42124534Y-40638147D01*
X41915302Y-40406769D01*
X41639158Y-40024665D01*
X41439538Y-39586107D01*
X41365276Y-39313371D01*
X41324688Y-39135890D01*
X41278414Y-39037834D01*
X41201206Y-38987451D01*
X41081052Y-38955882D01*
X40850366Y-38930641D01*
X40551591Y-38933375D01*
X40225175Y-38961007D01*
X39911562Y-39010463D01*
X39708153Y-39060304D01*
X39487337Y-39134709D01*
X39264229Y-39223411D01*
X39062753Y-39315093D01*
X38906830Y-39398435D01*
X38820384Y-39462121D01*
X38811132Y-39484698D01*
X38860006Y-39529992D01*
X38986680Y-39629899D01*
X39176907Y-39773674D01*
X39416443Y-39950570D01*
X39691043Y-40149843D01*
X39730514Y-40178226D01*
X40018779Y-40385585D01*
X40283895Y-40576861D01*
X40508984Y-40739831D01*
X40677167Y-40862274D01*
X40771566Y-40931968D01*
X40774736Y-40934374D01*
X40856129Y-40994639D01*
X41015746Y-41111297D01*
X41243397Y-41276981D01*
X41528892Y-41484320D01*
X41862040Y-41725947D01*
X42232650Y-41994492D01*
X42630532Y-42282588D01*
X43045495Y-42582866D01*
X43467349Y-42887956D01*
X43885903Y-43190490D01*
X44290966Y-43483101D01*
X44672349Y-43758418D01*
X45019860Y-44009074D01*
X45323308Y-44227699D01*
X45572504Y-44406926D01*
X45757257Y-44539385D01*
X45867375Y-44617708D01*
X45894042Y-44636060D01*
X45968691Y-44619324D01*
X46073150Y-44510983D01*
X46107186Y-44463718D01*
X46252800Y-44250592D01*
X46124324Y-44143532D01*
X45995847Y-44036472D01*
X46249847Y-44074215D01*
X46590360Y-44169413D01*
X46980891Y-44359776D01*
X47415782Y-44642260D01*
X47684150Y-44845551D01*
X47961394Y-45061310D01*
X48174922Y-45215618D01*
X48345599Y-45321786D01*
X48494294Y-45393126D01*
X48602409Y-45431310D01*
X48693751Y-45440763D01*
X48735659Y-45374426D01*
X48746742Y-45311461D01*
X48768068Y-45153703D01*
X48836098Y-45314428D01*
X48867630Y-45416648D01*
X48862933Y-45521816D01*
X48816012Y-45665420D01*
X48751493Y-45815268D01*
X48671613Y-45998386D01*
X48635950Y-46107518D01*
X48641343Y-46171142D01*
X48684633Y-46217740D01*
X48705141Y-46233098D01*
X48815473Y-46296339D01*
X48921412Y-46298742D01*
X49068013Y-46239121D01*
X49100292Y-46222694D01*
X49229864Y-46137641D01*
X49399197Y-46002899D01*
X49551847Y-45866020D01*
X49782918Y-45658171D01*
X49971486Y-45514018D01*
X50107593Y-45439983D01*
X50181276Y-45442487D01*
X50188666Y-45455491D01*
X50262182Y-45513336D01*
X50411920Y-45514473D01*
X50619484Y-45463769D01*
X50866480Y-45366093D01*
X51134513Y-45226311D01*
X51197563Y-45188495D01*
X51391246Y-45078494D01*
X51526403Y-45020238D01*
X51591834Y-45016704D01*
X51576342Y-45070869D01*
X51559796Y-45092233D01*
X51525378Y-45142340D01*
X51532298Y-45182915D01*
X51597944Y-45227517D01*
X51739702Y-45289704D01*
X51889594Y-45349406D01*
X52128795Y-45422341D01*
X52298073Y-45427776D01*
X52388805Y-45366457D01*
X52402106Y-45305121D01*
X52370208Y-45214494D01*
X52286539Y-45066170D01*
X52168833Y-44891404D01*
X52162217Y-44882319D01*
X52031968Y-44711201D01*
X51939755Y-44616326D01*
X51861314Y-44579798D01*
X51772382Y-44583721D01*
X51760409Y-44585951D01*
X51653806Y-44599798D01*
X51638677Y-44573873D01*
X51666147Y-44535666D01*
X51817881Y-44430046D01*
X52047218Y-44365854D01*
X52324346Y-44349787D01*
X52450951Y-44359362D01*
X52715747Y-44389421D01*
X52888823Y-44404477D01*
X52990574Y-44402680D01*
X53041401Y-44382181D01*
X53061701Y-44341130D01*
X53068066Y-44303411D01*
X53046174Y-44214589D01*
X52952990Y-44089538D01*
X52779226Y-43916763D01*
X52691870Y-43837744D01*
X52513531Y-43684948D01*
X52362611Y-43566108D01*
X52261255Y-43498174D01*
X52235776Y-43488592D01*
X52146855Y-43516622D01*
X52020923Y-43584137D01*
X52019306Y-43585154D01*
X51866070Y-43681716D01*
X51978958Y-43544954D01*
X52167427Y-43354324D01*
X52396163Y-43178227D01*
X52634462Y-43035750D01*
X52851616Y-42945979D01*
X52976816Y-42924698D01*
X53091439Y-42886471D01*
X53162208Y-42833500D01*
X53218578Y-42730905D01*
X53177995Y-42646141D01*
X53055641Y-42584020D01*
X52866700Y-42549353D01*
X52626353Y-42546952D01*
X52360888Y-42579554D01*
X52090245Y-42642906D01*
X51776068Y-42743041D01*
X51404703Y-42885158D01*
X50962498Y-43074460D01*
X50471594Y-43299344D01*
X50082214Y-43470763D01*
X49771183Y-43582046D01*
X49524555Y-43638061D01*
X49489156Y-43642322D01*
X49302676Y-43655490D01*
X49213720Y-43644545D01*
X49207741Y-43610282D01*
X49292442Y-43555311D01*
X49357623Y-43545036D01*
X49447597Y-43526276D01*
X49467181Y-43501526D01*
X49429199Y-43447592D01*
X49325423Y-43331446D01*
X49171104Y-43169456D01*
X48981495Y-42977995D01*
X48954441Y-42951192D01*
X48543907Y-42526747D01*
X48215133Y-42143509D01*
X47953628Y-41783696D01*
X47805666Y-41541258D01*
X47662710Y-41320287D01*
X47489993Y-41100405D01*
X47314108Y-40912239D01*
X47161644Y-40786417D01*
X47138164Y-40772438D01*
X47044885Y-40755524D01*
X46924467Y-40809523D01*
X46841831Y-40868273D01*
X46723957Y-40951840D01*
X46653640Y-40989449D01*
X46644958Y-40986798D01*
X46679532Y-40932207D01*
X46771029Y-40816473D01*
X46799582Y-40782696D01*
X44782450Y-40782696D01*
X44739258Y-40849770D01*
X44683514Y-40887626D01*
X44486979Y-40943304D01*
X44276309Y-40913210D01*
X44173962Y-40860724D01*
X44080114Y-40767438D01*
X44048514Y-40691391D01*
X44061305Y-40623944D01*
X44115027Y-40623472D01*
X44232704Y-40691074D01*
X44247806Y-40700920D01*
X44427481Y-40764779D01*
X44584487Y-40754807D01*
X44727617Y-40746692D01*
X44782450Y-40782696D01*
X46799582Y-40782696D01*
X46901110Y-40662594D01*
X46928979Y-40630595D01*
X47103093Y-40408633D01*
X47273254Y-40154297D01*
X47387839Y-39950879D01*
X47477150Y-39758579D01*
X47526880Y-39605954D01*
X47542328Y-39474511D01*
X44888544Y-39474511D01*
X44878598Y-39602597D01*
X44817582Y-39811308D01*
X44710508Y-39962586D01*
X44577568Y-40043283D01*
X44438953Y-40040250D01*
X44329951Y-39959867D01*
X44277643Y-39830192D01*
X44261225Y-39643652D01*
X44281140Y-39450559D01*
X44324333Y-39323667D01*
X44422996Y-39200531D01*
X44501741Y-39141475D01*
X44594137Y-39115963D01*
X44687221Y-39161164D01*
X44761304Y-39229139D01*
X44858608Y-39349224D01*
X44888544Y-39474511D01*
X47542328Y-39474511D01*
X47545526Y-39447303D01*
X47541588Y-39236924D01*
X47536850Y-39149555D01*
X47500073Y-38833681D01*
X47421061Y-38547742D01*
X47287787Y-38264957D01*
X47268334Y-38235088D01*
X44785082Y-38235088D01*
X44730256Y-38310590D01*
X44655292Y-38350388D01*
X44533988Y-38394526D01*
X44457199Y-38391485D01*
X44364428Y-38335512D01*
X44343296Y-38320724D01*
X44248518Y-38213282D01*
X44217847Y-38114420D01*
X44224266Y-38034044D01*
X44262668Y-38039573D01*
X44328510Y-38096132D01*
X44493995Y-38172560D01*
X44610732Y-38171100D01*
X44742868Y-38179047D01*
X44785082Y-38235088D01*
X47268334Y-38235088D01*
X47088222Y-37958544D01*
X46880367Y-37687854D01*
X46690703Y-37438904D01*
X46540834Y-37205335D01*
X46415219Y-36956094D01*
X46298312Y-36660131D01*
X46294291Y-36647984D01*
X45344370Y-36647984D01*
X45330489Y-36813339D01*
X45279236Y-36929465D01*
X45277356Y-36931394D01*
X45169382Y-36995811D01*
X45089170Y-36957383D01*
X45048356Y-36831288D01*
X44095212Y-36831288D01*
X44054077Y-36966252D01*
X44037225Y-36986192D01*
X43974548Y-37043290D01*
X43919563Y-37043580D01*
X43855575Y-37019664D01*
X43789006Y-36940853D01*
X43764690Y-36766189D01*
X43764497Y-36751553D01*
X43760072Y-36609412D01*
X43742555Y-36564173D01*
X43701070Y-36599871D01*
X43679830Y-36627269D01*
X43618460Y-36699531D01*
X43598456Y-36681467D01*
X43596958Y-36637669D01*
X43627189Y-36491441D01*
X43700389Y-36371402D01*
X43790320Y-36320177D01*
X43792403Y-36320147D01*
X43911292Y-36370400D01*
X44010362Y-36496749D01*
X44076154Y-36662583D01*
X44095212Y-36831288D01*
X45048356Y-36831288D01*
X45046213Y-36824668D01*
X45041796Y-36719063D01*
X45041427Y-36572813D01*
X45026167Y-36523139D01*
X44988168Y-36553949D01*
X44971824Y-36575574D01*
X44894455Y-36646360D01*
X44855775Y-36624607D01*
X44875451Y-36529052D01*
X44890548Y-36498137D01*
X44998213Y-36383297D01*
X45136861Y-36338494D01*
X45263184Y-36377533D01*
X45264778Y-36378839D01*
X45322069Y-36485713D01*
X45344370Y-36647984D01*
X46294291Y-36647984D01*
X46174573Y-36286395D01*
X46167490Y-36263703D01*
X46085837Y-36056291D01*
X45496781Y-36056291D01*
X45484351Y-36100027D01*
X45423409Y-36128205D01*
X45363821Y-36079887D01*
X45346736Y-36013983D01*
X45314063Y-35921891D01*
X45234682Y-35797942D01*
X45227412Y-35788564D01*
X45144926Y-35664895D01*
X45143371Y-35612644D01*
X45219917Y-35637423D01*
X45283149Y-35678030D01*
X45392974Y-35789795D01*
X45470941Y-35930052D01*
X45496781Y-36056291D01*
X46085837Y-36056291D01*
X45980918Y-35789781D01*
X45840832Y-35555989D01*
X44009848Y-35555989D01*
X43989747Y-35607385D01*
X43892456Y-35689738D01*
X43815632Y-35745240D01*
X43639271Y-35863859D01*
X43535337Y-35915909D01*
X43489591Y-35907163D01*
X43484070Y-35879664D01*
X43521356Y-35816746D01*
X43615934Y-35708785D01*
X43676217Y-35648055D01*
X43809636Y-35534069D01*
X43903523Y-35498445D01*
X43965446Y-35516147D01*
X44009848Y-35555989D01*
X45840832Y-35555989D01*
X45743515Y-35393576D01*
X45463644Y-35087918D01*
X45338596Y-34991773D01*
X45076263Y-34852241D01*
X44749652Y-34735388D01*
X44407060Y-34655493D01*
X44104138Y-34626814D01*
X43959818Y-34615027D01*
X43904118Y-34583118D01*
X43907403Y-34570369D01*
X43981410Y-34534290D01*
X44121790Y-34514956D01*
X44164734Y-34513925D01*
X44304904Y-34502942D01*
X44382019Y-34475553D01*
X44387181Y-34465106D01*
X44342012Y-34416940D01*
X44220200Y-34325994D01*
X44042288Y-34206924D01*
X43899839Y-34117427D01*
X43617756Y-33954893D01*
X43395599Y-33853328D01*
X43206659Y-33801328D01*
X43138131Y-33792204D01*
X42965942Y-33784596D01*
X42837408Y-33812002D01*
G36*
X38804883Y-42777907D02*
X38683507Y-42826141D01*
X38541024Y-42900260D01*
X38349948Y-43014194D01*
X38256260Y-43103899D01*
X38251313Y-43183882D01*
X38323125Y-43265903D01*
X38463915Y-43444897D01*
X38553638Y-43682468D01*
X38583401Y-43936217D01*
X38544309Y-44163748D01*
X38521866Y-44213200D01*
X38394452Y-44340897D01*
X38199898Y-44389601D01*
X37950805Y-44360221D01*
X37659775Y-44253669D01*
X37440005Y-44134964D01*
X37251931Y-44025777D01*
X37115506Y-43967917D01*
X36988286Y-43950335D01*
X36827826Y-43961986D01*
X36792103Y-43966339D01*
X36643117Y-43987327D01*
X36547384Y-44019131D01*
X36498690Y-44081619D01*
X36490819Y-44194656D01*
X36517556Y-44378108D01*
X36572685Y-44651841D01*
X36574653Y-44661368D01*
X36776250Y-45372735D01*
X37079306Y-46041139D01*
X37486239Y-46670916D01*
X37999463Y-47266400D01*
X38061376Y-47328866D01*
X38664389Y-47854481D01*
X39314270Y-48277791D01*
X40008617Y-48597749D01*
X40745028Y-48813302D01*
X41521101Y-48923401D01*
X41734292Y-48934812D01*
X42031543Y-48939848D01*
X42322490Y-48935260D01*
X42568116Y-48922141D01*
X42695923Y-48907879D01*
X43003070Y-48845950D01*
X43354748Y-48754581D01*
X43722409Y-48643238D01*
X44077506Y-48521385D01*
X44391492Y-48398487D01*
X44635821Y-48284008D01*
X44713648Y-48238906D01*
X44761594Y-48164457D01*
X44716244Y-48056884D01*
X44574184Y-47910998D01*
X44412528Y-47781151D01*
X44139156Y-47560920D01*
X43944982Y-47367442D01*
X43808513Y-47176430D01*
X43723946Y-47003033D01*
X43657064Y-46860196D01*
X43600981Y-46774038D01*
X43583700Y-46762581D01*
X43514286Y-46777278D01*
X43363485Y-46816789D01*
X43158177Y-46873946D01*
X43052085Y-46904405D01*
X42640419Y-47002470D01*
X42196173Y-47072449D01*
X41760702Y-47109759D01*
X41375361Y-47109817D01*
X41272796Y-47101580D01*
X41142981Y-47086606D01*
X41090530Y-47074762D01*
X41124078Y-47063426D01*
X41252256Y-47049972D01*
X41483698Y-47031776D01*
X41508514Y-47029919D01*
X42231743Y-46933023D01*
X42936651Y-46756468D01*
X43406687Y-46586370D01*
X43613448Y-46498337D01*
X43731662Y-46438427D01*
X43777526Y-46392662D01*
X43767240Y-46347066D01*
X43732786Y-46304975D01*
X43674791Y-46257694D01*
X43535577Y-46151718D01*
X43325379Y-45994532D01*
X43054435Y-45793621D01*
X42732980Y-45556468D01*
X42371251Y-45290559D01*
X41979485Y-45003378D01*
X41567918Y-44702410D01*
X41146786Y-44395138D01*
X40726326Y-44089048D01*
X40316775Y-43791623D01*
X39928368Y-43510349D01*
X39571343Y-43252709D01*
X39255936Y-43026189D01*
X38992383Y-42838272D01*
X38960380Y-42815593D01*
X38886511Y-42776544D01*
X38804883Y-42777907D01*
X38804883Y-42777907D01*
G37*
X38804883Y-42777907D02*
X38683507Y-42826141D01*
X38541024Y-42900260D01*
X38349948Y-43014194D01*
X38256260Y-43103899D01*
X38251313Y-43183882D01*
X38323125Y-43265903D01*
X38463915Y-43444897D01*
X38553638Y-43682468D01*
X38583401Y-43936217D01*
X38544309Y-44163748D01*
X38521866Y-44213200D01*
X38394452Y-44340897D01*
X38199898Y-44389601D01*
X37950805Y-44360221D01*
X37659775Y-44253669D01*
X37440005Y-44134964D01*
X37251931Y-44025777D01*
X37115506Y-43967917D01*
X36988286Y-43950335D01*
X36827826Y-43961986D01*
X36792103Y-43966339D01*
X36643117Y-43987327D01*
X36547384Y-44019131D01*
X36498690Y-44081619D01*
X36490819Y-44194656D01*
X36517556Y-44378108D01*
X36572685Y-44651841D01*
X36574653Y-44661368D01*
X36776250Y-45372735D01*
X37079306Y-46041139D01*
X37486239Y-46670916D01*
X37999463Y-47266400D01*
X38061376Y-47328866D01*
X38664389Y-47854481D01*
X39314270Y-48277791D01*
X40008617Y-48597749D01*
X40745028Y-48813302D01*
X41521101Y-48923401D01*
X41734292Y-48934812D01*
X42031543Y-48939848D01*
X42322490Y-48935260D01*
X42568116Y-48922141D01*
X42695923Y-48907879D01*
X43003070Y-48845950D01*
X43354748Y-48754581D01*
X43722409Y-48643238D01*
X44077506Y-48521385D01*
X44391492Y-48398487D01*
X44635821Y-48284008D01*
X44713648Y-48238906D01*
X44761594Y-48164457D01*
X44716244Y-48056884D01*
X44574184Y-47910998D01*
X44412528Y-47781151D01*
X44139156Y-47560920D01*
X43944982Y-47367442D01*
X43808513Y-47176430D01*
X43723946Y-47003033D01*
X43657064Y-46860196D01*
X43600981Y-46774038D01*
X43583700Y-46762581D01*
X43514286Y-46777278D01*
X43363485Y-46816789D01*
X43158177Y-46873946D01*
X43052085Y-46904405D01*
X42640419Y-47002470D01*
X42196173Y-47072449D01*
X41760702Y-47109759D01*
X41375361Y-47109817D01*
X41272796Y-47101580D01*
X41142981Y-47086606D01*
X41090530Y-47074762D01*
X41124078Y-47063426D01*
X41252256Y-47049972D01*
X41483698Y-47031776D01*
X41508514Y-47029919D01*
X42231743Y-46933023D01*
X42936651Y-46756468D01*
X43406687Y-46586370D01*
X43613448Y-46498337D01*
X43731662Y-46438427D01*
X43777526Y-46392662D01*
X43767240Y-46347066D01*
X43732786Y-46304975D01*
X43674791Y-46257694D01*
X43535577Y-46151718D01*
X43325379Y-45994532D01*
X43054435Y-45793621D01*
X42732980Y-45556468D01*
X42371251Y-45290559D01*
X41979485Y-45003378D01*
X41567918Y-44702410D01*
X41146786Y-44395138D01*
X40726326Y-44089048D01*
X40316775Y-43791623D01*
X39928368Y-43510349D01*
X39571343Y-43252709D01*
X39255936Y-43026189D01*
X38992383Y-42838272D01*
X38960380Y-42815593D01*
X38886511Y-42776544D01*
X38804883Y-42777907D01*
G04 #@! TD*
M02*
