G04 #@! TF.GenerationSoftware,KiCad,Pcbnew,5.0.2-bee76a0~70~ubuntu18.04.1*
G04 #@! TF.CreationDate,2019-10-12T02:21:46+09:00*
G04 #@! TF.ProjectId,RPi_Hat,5250695f-4861-4742-9e6b-696361645f70,rev?*
G04 #@! TF.SameCoordinates,Original*
G04 #@! TF.FileFunction,Soldermask,Top*
G04 #@! TF.FilePolarity,Negative*
%FSLAX46Y46*%
G04 Gerber Fmt 4.6, Leading zero omitted, Abs format (unit mm)*
G04 Created by KiCad (PCBNEW 5.0.2-bee76a0~70~ubuntu18.04.1) date 2019年10月12日 02時21分46秒*
%MOMM*%
%LPD*%
G01*
G04 APERTURE LIST*
%ADD10C,0.100000*%
G04 APERTURE END LIST*
D10*
G36*
X82524599Y-66489421D02*
X82724237Y-66529131D01*
X83288401Y-66762815D01*
X83796135Y-67102072D01*
X84227928Y-67533865D01*
X84567185Y-68041599D01*
X84800869Y-68605763D01*
X84800869Y-68605764D01*
X84909864Y-69153717D01*
X84920000Y-69204677D01*
X84920000Y-69815323D01*
X84800869Y-70414237D01*
X84567185Y-70978401D01*
X84227928Y-71486135D01*
X83796135Y-71917928D01*
X83288401Y-72257185D01*
X82724237Y-72490869D01*
X82524599Y-72530579D01*
X82125325Y-72610000D01*
X81514675Y-72610000D01*
X81115401Y-72530579D01*
X80915763Y-72490869D01*
X80351599Y-72257185D01*
X79843865Y-71917928D01*
X79412072Y-71486135D01*
X79072815Y-70978401D01*
X78839131Y-70414237D01*
X78720000Y-69815323D01*
X78720000Y-69204677D01*
X78730137Y-69153717D01*
X78839131Y-68605764D01*
X78839131Y-68605763D01*
X79072815Y-68041599D01*
X79412072Y-67533865D01*
X79843865Y-67102072D01*
X80351599Y-66762815D01*
X80915763Y-66529131D01*
X81115401Y-66489421D01*
X81514675Y-66410000D01*
X82125325Y-66410000D01*
X82524599Y-66489421D01*
X82524599Y-66489421D01*
G37*
G36*
X24524599Y-66489421D02*
X24724237Y-66529131D01*
X25288401Y-66762815D01*
X25796135Y-67102072D01*
X26227928Y-67533865D01*
X26567185Y-68041599D01*
X26800869Y-68605763D01*
X26800869Y-68605764D01*
X26909864Y-69153717D01*
X26920000Y-69204677D01*
X26920000Y-69815323D01*
X26800869Y-70414237D01*
X26567185Y-70978401D01*
X26227928Y-71486135D01*
X25796135Y-71917928D01*
X25288401Y-72257185D01*
X24724237Y-72490869D01*
X24524599Y-72530579D01*
X24125325Y-72610000D01*
X23514675Y-72610000D01*
X23115401Y-72530579D01*
X22915763Y-72490869D01*
X22351599Y-72257185D01*
X21843865Y-71917928D01*
X21412072Y-71486135D01*
X21072815Y-70978401D01*
X20839131Y-70414237D01*
X20720000Y-69815323D01*
X20720000Y-69204677D01*
X20730137Y-69153717D01*
X20839131Y-68605764D01*
X20839131Y-68605763D01*
X21072815Y-68041599D01*
X21412072Y-67533865D01*
X21843865Y-67102072D01*
X22351599Y-66762815D01*
X22915763Y-66529131D01*
X23115401Y-66489421D01*
X23514675Y-66410000D01*
X24125325Y-66410000D01*
X24524599Y-66489421D01*
X24524599Y-66489421D01*
G37*
G36*
X32650000Y-69480000D02*
X30850000Y-69480000D01*
X30850000Y-67680000D01*
X32650000Y-67680000D01*
X32650000Y-69480000D01*
X32650000Y-69480000D01*
G37*
G36*
X34552521Y-67714586D02*
X34716309Y-67782429D01*
X34863720Y-67880926D01*
X34989074Y-68006280D01*
X35087571Y-68153691D01*
X35155414Y-68317479D01*
X35190000Y-68491356D01*
X35190000Y-68668644D01*
X35155414Y-68842521D01*
X35087571Y-69006309D01*
X34989074Y-69153720D01*
X34863720Y-69279074D01*
X34716309Y-69377571D01*
X34552521Y-69445414D01*
X34378644Y-69480000D01*
X34201356Y-69480000D01*
X34027479Y-69445414D01*
X33863691Y-69377571D01*
X33716280Y-69279074D01*
X33590926Y-69153720D01*
X33492429Y-69006309D01*
X33424586Y-68842521D01*
X33390000Y-68668644D01*
X33390000Y-68491356D01*
X33424586Y-68317479D01*
X33492429Y-68153691D01*
X33590926Y-68006280D01*
X33716280Y-67880926D01*
X33863691Y-67782429D01*
X34027479Y-67714586D01*
X34201356Y-67680000D01*
X34378644Y-67680000D01*
X34552521Y-67714586D01*
X34552521Y-67714586D01*
G37*
G36*
X39000000Y-69480000D02*
X37200000Y-69480000D01*
X37200000Y-67680000D01*
X39000000Y-67680000D01*
X39000000Y-69480000D01*
X39000000Y-69480000D01*
G37*
G36*
X40902521Y-67714586D02*
X41066309Y-67782429D01*
X41213720Y-67880926D01*
X41339074Y-68006280D01*
X41437571Y-68153691D01*
X41505414Y-68317479D01*
X41540000Y-68491356D01*
X41540000Y-68668644D01*
X41505414Y-68842521D01*
X41437571Y-69006309D01*
X41339074Y-69153720D01*
X41213720Y-69279074D01*
X41066309Y-69377571D01*
X40902521Y-69445414D01*
X40728644Y-69480000D01*
X40551356Y-69480000D01*
X40377479Y-69445414D01*
X40213691Y-69377571D01*
X40066280Y-69279074D01*
X39940926Y-69153720D01*
X39842429Y-69006309D01*
X39774586Y-68842521D01*
X39740000Y-68668644D01*
X39740000Y-68491356D01*
X39774586Y-68317479D01*
X39842429Y-68153691D01*
X39940926Y-68006280D01*
X40066280Y-67880926D01*
X40213691Y-67782429D01*
X40377479Y-67714586D01*
X40551356Y-67680000D01*
X40728644Y-67680000D01*
X40902521Y-67714586D01*
X40902521Y-67714586D01*
G37*
G36*
X44715000Y-69480000D02*
X42915000Y-69480000D01*
X42915000Y-67680000D01*
X44715000Y-67680000D01*
X44715000Y-69480000D01*
X44715000Y-69480000D01*
G37*
G36*
X46617521Y-67714586D02*
X46781309Y-67782429D01*
X46928720Y-67880926D01*
X47054074Y-68006280D01*
X47152571Y-68153691D01*
X47220414Y-68317479D01*
X47255000Y-68491356D01*
X47255000Y-68668644D01*
X47220414Y-68842521D01*
X47152571Y-69006309D01*
X47054074Y-69153720D01*
X46928720Y-69279074D01*
X46781309Y-69377571D01*
X46617521Y-69445414D01*
X46443644Y-69480000D01*
X46266356Y-69480000D01*
X46092479Y-69445414D01*
X45928691Y-69377571D01*
X45781280Y-69279074D01*
X45655926Y-69153720D01*
X45557429Y-69006309D01*
X45489586Y-68842521D01*
X45455000Y-68668644D01*
X45455000Y-68491356D01*
X45489586Y-68317479D01*
X45557429Y-68153691D01*
X45655926Y-68006280D01*
X45781280Y-67880926D01*
X45928691Y-67782429D01*
X46092479Y-67714586D01*
X46266356Y-67680000D01*
X46443644Y-67680000D01*
X46617521Y-67714586D01*
X46617521Y-67714586D01*
G37*
G36*
X51065000Y-69480000D02*
X49265000Y-69480000D01*
X49265000Y-67680000D01*
X51065000Y-67680000D01*
X51065000Y-69480000D01*
X51065000Y-69480000D01*
G37*
G36*
X52967521Y-67714586D02*
X53131309Y-67782429D01*
X53278720Y-67880926D01*
X53404074Y-68006280D01*
X53502571Y-68153691D01*
X53570414Y-68317479D01*
X53605000Y-68491356D01*
X53605000Y-68668644D01*
X53570414Y-68842521D01*
X53502571Y-69006309D01*
X53404074Y-69153720D01*
X53278720Y-69279074D01*
X53131309Y-69377571D01*
X52967521Y-69445414D01*
X52793644Y-69480000D01*
X52616356Y-69480000D01*
X52442479Y-69445414D01*
X52278691Y-69377571D01*
X52131280Y-69279074D01*
X52005926Y-69153720D01*
X51907429Y-69006309D01*
X51839586Y-68842521D01*
X51805000Y-68668644D01*
X51805000Y-68491356D01*
X51839586Y-68317479D01*
X51907429Y-68153691D01*
X52005926Y-68006280D01*
X52131280Y-67880926D01*
X52278691Y-67782429D01*
X52442479Y-67714586D01*
X52616356Y-67680000D01*
X52793644Y-67680000D01*
X52967521Y-67714586D01*
X52967521Y-67714586D01*
G37*
G36*
X57415000Y-69480000D02*
X55615000Y-69480000D01*
X55615000Y-67680000D01*
X57415000Y-67680000D01*
X57415000Y-69480000D01*
X57415000Y-69480000D01*
G37*
G36*
X59317521Y-67714586D02*
X59481309Y-67782429D01*
X59628720Y-67880926D01*
X59754074Y-68006280D01*
X59852571Y-68153691D01*
X59920414Y-68317479D01*
X59955000Y-68491356D01*
X59955000Y-68668644D01*
X59920414Y-68842521D01*
X59852571Y-69006309D01*
X59754074Y-69153720D01*
X59628720Y-69279074D01*
X59481309Y-69377571D01*
X59317521Y-69445414D01*
X59143644Y-69480000D01*
X58966356Y-69480000D01*
X58792479Y-69445414D01*
X58628691Y-69377571D01*
X58481280Y-69279074D01*
X58355926Y-69153720D01*
X58257429Y-69006309D01*
X58189586Y-68842521D01*
X58155000Y-68668644D01*
X58155000Y-68491356D01*
X58189586Y-68317479D01*
X58257429Y-68153691D01*
X58355926Y-68006280D01*
X58481280Y-67880926D01*
X58628691Y-67782429D01*
X58792479Y-67714586D01*
X58966356Y-67680000D01*
X59143644Y-67680000D01*
X59317521Y-67714586D01*
X59317521Y-67714586D01*
G37*
G36*
X32650000Y-63130000D02*
X30850000Y-63130000D01*
X30850000Y-61330000D01*
X32650000Y-61330000D01*
X32650000Y-63130000D01*
X32650000Y-63130000D01*
G37*
G36*
X59317521Y-61364586D02*
X59481309Y-61432429D01*
X59628720Y-61530926D01*
X59754074Y-61656280D01*
X59852571Y-61803691D01*
X59920414Y-61967479D01*
X59955000Y-62141356D01*
X59955000Y-62318644D01*
X59920414Y-62492521D01*
X59852571Y-62656309D01*
X59754074Y-62803720D01*
X59628720Y-62929074D01*
X59481309Y-63027571D01*
X59317521Y-63095414D01*
X59143644Y-63130000D01*
X58966356Y-63130000D01*
X58792479Y-63095414D01*
X58628691Y-63027571D01*
X58481280Y-62929074D01*
X58355926Y-62803720D01*
X58257429Y-62656309D01*
X58189586Y-62492521D01*
X58155000Y-62318644D01*
X58155000Y-62141356D01*
X58189586Y-61967479D01*
X58257429Y-61803691D01*
X58355926Y-61656280D01*
X58481280Y-61530926D01*
X58628691Y-61432429D01*
X58792479Y-61364586D01*
X58966356Y-61330000D01*
X59143644Y-61330000D01*
X59317521Y-61364586D01*
X59317521Y-61364586D01*
G37*
G36*
X57415000Y-63130000D02*
X55615000Y-63130000D01*
X55615000Y-61330000D01*
X57415000Y-61330000D01*
X57415000Y-63130000D01*
X57415000Y-63130000D01*
G37*
G36*
X51065000Y-63130000D02*
X49265000Y-63130000D01*
X49265000Y-61330000D01*
X51065000Y-61330000D01*
X51065000Y-63130000D01*
X51065000Y-63130000D01*
G37*
G36*
X52967521Y-61364586D02*
X53131309Y-61432429D01*
X53278720Y-61530926D01*
X53404074Y-61656280D01*
X53502571Y-61803691D01*
X53570414Y-61967479D01*
X53605000Y-62141356D01*
X53605000Y-62318644D01*
X53570414Y-62492521D01*
X53502571Y-62656309D01*
X53404074Y-62803720D01*
X53278720Y-62929074D01*
X53131309Y-63027571D01*
X52967521Y-63095414D01*
X52793644Y-63130000D01*
X52616356Y-63130000D01*
X52442479Y-63095414D01*
X52278691Y-63027571D01*
X52131280Y-62929074D01*
X52005926Y-62803720D01*
X51907429Y-62656309D01*
X51839586Y-62492521D01*
X51805000Y-62318644D01*
X51805000Y-62141356D01*
X51839586Y-61967479D01*
X51907429Y-61803691D01*
X52005926Y-61656280D01*
X52131280Y-61530926D01*
X52278691Y-61432429D01*
X52442479Y-61364586D01*
X52616356Y-61330000D01*
X52793644Y-61330000D01*
X52967521Y-61364586D01*
X52967521Y-61364586D01*
G37*
G36*
X44715000Y-63130000D02*
X42915000Y-63130000D01*
X42915000Y-61330000D01*
X44715000Y-61330000D01*
X44715000Y-63130000D01*
X44715000Y-63130000D01*
G37*
G36*
X46617521Y-61364586D02*
X46781309Y-61432429D01*
X46928720Y-61530926D01*
X47054074Y-61656280D01*
X47152571Y-61803691D01*
X47220414Y-61967479D01*
X47255000Y-62141356D01*
X47255000Y-62318644D01*
X47220414Y-62492521D01*
X47152571Y-62656309D01*
X47054074Y-62803720D01*
X46928720Y-62929074D01*
X46781309Y-63027571D01*
X46617521Y-63095414D01*
X46443644Y-63130000D01*
X46266356Y-63130000D01*
X46092479Y-63095414D01*
X45928691Y-63027571D01*
X45781280Y-62929074D01*
X45655926Y-62803720D01*
X45557429Y-62656309D01*
X45489586Y-62492521D01*
X45455000Y-62318644D01*
X45455000Y-62141356D01*
X45489586Y-61967479D01*
X45557429Y-61803691D01*
X45655926Y-61656280D01*
X45781280Y-61530926D01*
X45928691Y-61432429D01*
X46092479Y-61364586D01*
X46266356Y-61330000D01*
X46443644Y-61330000D01*
X46617521Y-61364586D01*
X46617521Y-61364586D01*
G37*
G36*
X34552521Y-61364586D02*
X34716309Y-61432429D01*
X34863720Y-61530926D01*
X34989074Y-61656280D01*
X35087571Y-61803691D01*
X35155414Y-61967479D01*
X35190000Y-62141356D01*
X35190000Y-62318644D01*
X35155414Y-62492521D01*
X35087571Y-62656309D01*
X34989074Y-62803720D01*
X34863720Y-62929074D01*
X34716309Y-63027571D01*
X34552521Y-63095414D01*
X34378644Y-63130000D01*
X34201356Y-63130000D01*
X34027479Y-63095414D01*
X33863691Y-63027571D01*
X33716280Y-62929074D01*
X33590926Y-62803720D01*
X33492429Y-62656309D01*
X33424586Y-62492521D01*
X33390000Y-62318644D01*
X33390000Y-62141356D01*
X33424586Y-61967479D01*
X33492429Y-61803691D01*
X33590926Y-61656280D01*
X33716280Y-61530926D01*
X33863691Y-61432429D01*
X34027479Y-61364586D01*
X34201356Y-61330000D01*
X34378644Y-61330000D01*
X34552521Y-61364586D01*
X34552521Y-61364586D01*
G37*
G36*
X39000000Y-63130000D02*
X37200000Y-63130000D01*
X37200000Y-61330000D01*
X39000000Y-61330000D01*
X39000000Y-63130000D01*
X39000000Y-63130000D01*
G37*
G36*
X40902521Y-61364586D02*
X41066309Y-61432429D01*
X41213720Y-61530926D01*
X41339074Y-61656280D01*
X41437571Y-61803691D01*
X41505414Y-61967479D01*
X41540000Y-62141356D01*
X41540000Y-62318644D01*
X41505414Y-62492521D01*
X41437571Y-62656309D01*
X41339074Y-62803720D01*
X41213720Y-62929074D01*
X41066309Y-63027571D01*
X40902521Y-63095414D01*
X40728644Y-63130000D01*
X40551356Y-63130000D01*
X40377479Y-63095414D01*
X40213691Y-63027571D01*
X40066280Y-62929074D01*
X39940926Y-62803720D01*
X39842429Y-62656309D01*
X39774586Y-62492521D01*
X39740000Y-62318644D01*
X39740000Y-62141356D01*
X39774586Y-61967479D01*
X39842429Y-61803691D01*
X39940926Y-61656280D01*
X40066280Y-61530926D01*
X40213691Y-61432429D01*
X40377479Y-61364586D01*
X40551356Y-61330000D01*
X40728644Y-61330000D01*
X40902521Y-61364586D01*
X40902521Y-61364586D01*
G37*
G36*
X45489435Y-52894429D02*
X45586034Y-52913644D01*
X45859017Y-53026717D01*
X46101420Y-53188687D01*
X46104697Y-53190876D01*
X46313624Y-53399803D01*
X46313626Y-53399806D01*
X46477783Y-53645483D01*
X46590856Y-53918466D01*
X46648500Y-54208263D01*
X46648500Y-54503737D01*
X46590856Y-54793534D01*
X46477783Y-55066517D01*
X46315813Y-55308920D01*
X46313624Y-55312197D01*
X46104697Y-55521124D01*
X46104694Y-55521126D01*
X45859017Y-55685283D01*
X45586034Y-55798356D01*
X45489435Y-55817571D01*
X45296239Y-55856000D01*
X45000761Y-55856000D01*
X44807565Y-55817571D01*
X44710966Y-55798356D01*
X44437983Y-55685283D01*
X44192306Y-55521126D01*
X44192303Y-55521124D01*
X43983376Y-55312197D01*
X43981187Y-55308920D01*
X43819217Y-55066517D01*
X43706144Y-54793534D01*
X43648500Y-54503737D01*
X43648500Y-54208263D01*
X43706144Y-53918466D01*
X43819217Y-53645483D01*
X43983374Y-53399806D01*
X43983376Y-53399803D01*
X44192303Y-53190876D01*
X44195580Y-53188687D01*
X44437983Y-53026717D01*
X44710966Y-52913644D01*
X44807565Y-52894429D01*
X45000761Y-52856000D01*
X45296239Y-52856000D01*
X45489435Y-52894429D01*
X45489435Y-52894429D01*
G37*
G36*
X31916630Y-53772299D02*
X32076855Y-53820903D01*
X32224520Y-53899831D01*
X32353949Y-54006051D01*
X32460169Y-54135480D01*
X32539097Y-54283145D01*
X32587701Y-54443370D01*
X32604112Y-54610000D01*
X32587701Y-54776630D01*
X32539097Y-54936855D01*
X32460169Y-55084520D01*
X32353949Y-55213949D01*
X32224520Y-55320169D01*
X32076855Y-55399097D01*
X31916630Y-55447701D01*
X31791752Y-55460000D01*
X31708248Y-55460000D01*
X31583370Y-55447701D01*
X31423145Y-55399097D01*
X31275480Y-55320169D01*
X31146051Y-55213949D01*
X31039831Y-55084520D01*
X30960903Y-54936855D01*
X30912299Y-54776630D01*
X30895888Y-54610000D01*
X30912299Y-54443370D01*
X30960903Y-54283145D01*
X31039831Y-54135480D01*
X31146051Y-54006051D01*
X31275480Y-53899831D01*
X31423145Y-53820903D01*
X31583370Y-53772299D01*
X31708248Y-53760000D01*
X31791752Y-53760000D01*
X31916630Y-53772299D01*
X31916630Y-53772299D01*
G37*
G36*
X31916630Y-51232299D02*
X32076855Y-51280903D01*
X32224520Y-51359831D01*
X32353949Y-51466051D01*
X32460169Y-51595480D01*
X32539097Y-51743145D01*
X32587701Y-51903370D01*
X32604112Y-52070000D01*
X32587701Y-52236630D01*
X32539097Y-52396855D01*
X32460169Y-52544520D01*
X32353949Y-52673949D01*
X32224520Y-52780169D01*
X32076855Y-52859097D01*
X31916630Y-52907701D01*
X31791752Y-52920000D01*
X31708248Y-52920000D01*
X31583370Y-52907701D01*
X31423145Y-52859097D01*
X31275480Y-52780169D01*
X31146051Y-52673949D01*
X31039831Y-52544520D01*
X30960903Y-52396855D01*
X30912299Y-52236630D01*
X30895888Y-52070000D01*
X30912299Y-51903370D01*
X30960903Y-51743145D01*
X31039831Y-51595480D01*
X31146051Y-51466051D01*
X31275480Y-51359831D01*
X31423145Y-51280903D01*
X31583370Y-51232299D01*
X31708248Y-51220000D01*
X31791752Y-51220000D01*
X31916630Y-51232299D01*
X31916630Y-51232299D01*
G37*
G36*
X55352950Y-52812950D02*
X53867050Y-52812950D01*
X53867050Y-51327050D01*
X55352950Y-51327050D01*
X55352950Y-52812950D01*
X55352950Y-52812950D01*
G37*
G36*
X57366711Y-51355600D02*
X57501919Y-51411606D01*
X57623604Y-51492913D01*
X57727087Y-51596396D01*
X57808394Y-51718081D01*
X57864400Y-51853289D01*
X57892950Y-51996824D01*
X57892950Y-52143176D01*
X57864400Y-52286711D01*
X57808394Y-52421919D01*
X57727087Y-52543604D01*
X57623604Y-52647087D01*
X57501919Y-52728394D01*
X57366711Y-52784400D01*
X57223176Y-52812950D01*
X57076824Y-52812950D01*
X56933289Y-52784400D01*
X56798081Y-52728394D01*
X56676396Y-52647087D01*
X56572913Y-52543604D01*
X56491606Y-52421919D01*
X56435600Y-52286711D01*
X56407050Y-52143176D01*
X56407050Y-51996824D01*
X56435600Y-51853289D01*
X56491606Y-51718081D01*
X56572913Y-51596396D01*
X56676396Y-51492913D01*
X56798081Y-51411606D01*
X56933289Y-51355600D01*
X57076824Y-51327050D01*
X57223176Y-51327050D01*
X57366711Y-51355600D01*
X57366711Y-51355600D01*
G37*
G36*
X56096711Y-49577600D02*
X56231919Y-49633606D01*
X56353604Y-49714913D01*
X56457087Y-49818396D01*
X56538394Y-49940081D01*
X56594400Y-50075289D01*
X56622950Y-50218824D01*
X56622950Y-50365176D01*
X56594400Y-50508711D01*
X56538394Y-50643919D01*
X56457087Y-50765604D01*
X56353604Y-50869087D01*
X56231919Y-50950394D01*
X56096711Y-51006400D01*
X55953176Y-51034950D01*
X55806824Y-51034950D01*
X55663289Y-51006400D01*
X55528081Y-50950394D01*
X55406396Y-50869087D01*
X55302913Y-50765604D01*
X55221606Y-50643919D01*
X55165600Y-50508711D01*
X55137050Y-50365176D01*
X55137050Y-50218824D01*
X55165600Y-50075289D01*
X55221606Y-49940081D01*
X55302913Y-49818396D01*
X55406396Y-49714913D01*
X55528081Y-49633606D01*
X55663289Y-49577600D01*
X55806824Y-49549050D01*
X55953176Y-49549050D01*
X56096711Y-49577600D01*
X56096711Y-49577600D01*
G37*
G36*
X31916630Y-48692299D02*
X32076855Y-48740903D01*
X32224520Y-48819831D01*
X32353949Y-48926051D01*
X32460169Y-49055480D01*
X32539097Y-49203145D01*
X32587701Y-49363370D01*
X32604112Y-49530000D01*
X32587701Y-49696630D01*
X32539097Y-49856855D01*
X32460169Y-50004520D01*
X32353949Y-50133949D01*
X32224520Y-50240169D01*
X32076855Y-50319097D01*
X31916630Y-50367701D01*
X31791752Y-50380000D01*
X31708248Y-50380000D01*
X31583370Y-50367701D01*
X31423145Y-50319097D01*
X31275480Y-50240169D01*
X31146051Y-50133949D01*
X31039831Y-50004520D01*
X30960903Y-49856855D01*
X30912299Y-49696630D01*
X30895888Y-49530000D01*
X30912299Y-49363370D01*
X30960903Y-49203145D01*
X31039831Y-49055480D01*
X31146051Y-48926051D01*
X31275480Y-48819831D01*
X31423145Y-48740903D01*
X31583370Y-48692299D01*
X31708248Y-48680000D01*
X31791752Y-48680000D01*
X31916630Y-48692299D01*
X31916630Y-48692299D01*
G37*
G36*
X75780000Y-49110000D02*
X74080000Y-49110000D01*
X74080000Y-47410000D01*
X75780000Y-47410000D01*
X75780000Y-49110000D01*
X75780000Y-49110000D01*
G37*
G36*
X31916630Y-46152299D02*
X32076855Y-46200903D01*
X32224520Y-46279831D01*
X32353949Y-46386051D01*
X32460169Y-46515480D01*
X32539097Y-46663145D01*
X32587701Y-46823370D01*
X32604112Y-46990000D01*
X32587701Y-47156630D01*
X32539097Y-47316855D01*
X32460169Y-47464520D01*
X32353949Y-47593949D01*
X32224520Y-47700169D01*
X32076855Y-47779097D01*
X31916630Y-47827701D01*
X31791752Y-47840000D01*
X31708248Y-47840000D01*
X31583370Y-47827701D01*
X31423145Y-47779097D01*
X31275480Y-47700169D01*
X31146051Y-47593949D01*
X31039831Y-47464520D01*
X30960903Y-47316855D01*
X30912299Y-47156630D01*
X30895888Y-46990000D01*
X30912299Y-46823370D01*
X30960903Y-46663145D01*
X31039831Y-46515480D01*
X31146051Y-46386051D01*
X31275480Y-46279831D01*
X31423145Y-46200903D01*
X31583370Y-46152299D01*
X31708248Y-46140000D01*
X31791752Y-46140000D01*
X31916630Y-46152299D01*
X31916630Y-46152299D01*
G37*
G36*
X68207521Y-45489586D02*
X68371309Y-45557429D01*
X68518720Y-45655926D01*
X68644074Y-45781280D01*
X68742571Y-45928691D01*
X68810414Y-46092479D01*
X68845000Y-46266356D01*
X68845000Y-46443644D01*
X68810414Y-46617521D01*
X68742571Y-46781309D01*
X68644074Y-46928720D01*
X68518720Y-47054074D01*
X68371309Y-47152571D01*
X68207521Y-47220414D01*
X68033644Y-47255000D01*
X67856356Y-47255000D01*
X67682479Y-47220414D01*
X67518691Y-47152571D01*
X67371280Y-47054074D01*
X67245926Y-46928720D01*
X67147429Y-46781309D01*
X67079586Y-46617521D01*
X67045000Y-46443644D01*
X67045000Y-46266356D01*
X67079586Y-46092479D01*
X67147429Y-45928691D01*
X67245926Y-45781280D01*
X67371280Y-45655926D01*
X67518691Y-45557429D01*
X67682479Y-45489586D01*
X67856356Y-45455000D01*
X68033644Y-45455000D01*
X68207521Y-45489586D01*
X68207521Y-45489586D01*
G37*
G36*
X66305000Y-47255000D02*
X64505000Y-47255000D01*
X64505000Y-45455000D01*
X66305000Y-45455000D01*
X66305000Y-47255000D01*
X66305000Y-47255000D01*
G37*
G36*
X75096630Y-44882299D02*
X75256855Y-44930903D01*
X75404520Y-45009831D01*
X75533949Y-45116051D01*
X75640169Y-45245480D01*
X75719097Y-45393145D01*
X75767701Y-45553370D01*
X75784112Y-45720000D01*
X75767701Y-45886630D01*
X75719097Y-46046855D01*
X75640169Y-46194520D01*
X75533949Y-46323949D01*
X75404520Y-46430169D01*
X75256855Y-46509097D01*
X75096630Y-46557701D01*
X74971752Y-46570000D01*
X74888248Y-46570000D01*
X74763370Y-46557701D01*
X74603145Y-46509097D01*
X74455480Y-46430169D01*
X74326051Y-46323949D01*
X74219831Y-46194520D01*
X74140903Y-46046855D01*
X74092299Y-45886630D01*
X74075888Y-45720000D01*
X74092299Y-45553370D01*
X74140903Y-45393145D01*
X74219831Y-45245480D01*
X74326051Y-45116051D01*
X74455480Y-45009831D01*
X74603145Y-44930903D01*
X74763370Y-44882299D01*
X74888248Y-44870000D01*
X74971752Y-44870000D01*
X75096630Y-44882299D01*
X75096630Y-44882299D01*
G37*
G36*
X31916630Y-43612299D02*
X32076855Y-43660903D01*
X32224520Y-43739831D01*
X32353949Y-43846051D01*
X32460169Y-43975480D01*
X32539097Y-44123145D01*
X32587701Y-44283370D01*
X32604112Y-44450000D01*
X32587701Y-44616630D01*
X32539097Y-44776855D01*
X32460169Y-44924520D01*
X32353949Y-45053949D01*
X32224520Y-45160169D01*
X32076855Y-45239097D01*
X31916630Y-45287701D01*
X31791752Y-45300000D01*
X31708248Y-45300000D01*
X31583370Y-45287701D01*
X31423145Y-45239097D01*
X31275480Y-45160169D01*
X31146051Y-45053949D01*
X31039831Y-44924520D01*
X30960903Y-44776855D01*
X30912299Y-44616630D01*
X30895888Y-44450000D01*
X30912299Y-44283370D01*
X30960903Y-44123145D01*
X31039831Y-43975480D01*
X31146051Y-43846051D01*
X31275480Y-43739831D01*
X31423145Y-43660903D01*
X31583370Y-43612299D01*
X31708248Y-43600000D01*
X31791752Y-43600000D01*
X31916630Y-43612299D01*
X31916630Y-43612299D01*
G37*
G36*
X75177934Y-42362664D02*
X75332627Y-42426740D01*
X75471847Y-42519764D01*
X75590236Y-42638153D01*
X75683260Y-42777373D01*
X75747336Y-42932066D01*
X75780000Y-43096281D01*
X75780000Y-43263719D01*
X75747336Y-43427934D01*
X75683260Y-43582627D01*
X75590236Y-43721847D01*
X75471847Y-43840236D01*
X75332627Y-43933260D01*
X75177934Y-43997336D01*
X75013719Y-44030000D01*
X74846281Y-44030000D01*
X74682066Y-43997336D01*
X74527373Y-43933260D01*
X74388153Y-43840236D01*
X74269764Y-43721847D01*
X74176740Y-43582627D01*
X74112664Y-43427934D01*
X74080000Y-43263719D01*
X74080000Y-43096281D01*
X74112664Y-42932066D01*
X74176740Y-42777373D01*
X74269764Y-42638153D01*
X74388153Y-42519764D01*
X74527373Y-42426740D01*
X74682066Y-42362664D01*
X74846281Y-42330000D01*
X75013719Y-42330000D01*
X75177934Y-42362664D01*
X75177934Y-42362664D01*
G37*
G36*
X31916630Y-41072299D02*
X32076855Y-41120903D01*
X32224520Y-41199831D01*
X32353949Y-41306051D01*
X32460169Y-41435480D01*
X32539097Y-41583145D01*
X32587701Y-41743370D01*
X32604112Y-41910000D01*
X32587701Y-42076630D01*
X32539097Y-42236855D01*
X32460169Y-42384520D01*
X32353949Y-42513949D01*
X32224520Y-42620169D01*
X32076855Y-42699097D01*
X31916630Y-42747701D01*
X31791752Y-42760000D01*
X31708248Y-42760000D01*
X31583370Y-42747701D01*
X31423145Y-42699097D01*
X31275480Y-42620169D01*
X31146051Y-42513949D01*
X31039831Y-42384520D01*
X30960903Y-42236855D01*
X30912299Y-42076630D01*
X30895888Y-41910000D01*
X30912299Y-41743370D01*
X30960903Y-41583145D01*
X31039831Y-41435480D01*
X31146051Y-41306051D01*
X31275480Y-41199831D01*
X31423145Y-41120903D01*
X31583370Y-41072299D01*
X31708248Y-41060000D01*
X31791752Y-41060000D01*
X31916630Y-41072299D01*
X31916630Y-41072299D01*
G37*
G36*
X55190000Y-42490000D02*
X54030000Y-42490000D01*
X54030000Y-41330000D01*
X55190000Y-41330000D01*
X55190000Y-42490000D01*
X55190000Y-42490000D01*
G37*
G36*
X57319180Y-41352289D02*
X57424734Y-41396011D01*
X57519729Y-41459485D01*
X57600515Y-41540271D01*
X57663989Y-41635266D01*
X57707711Y-41740820D01*
X57730000Y-41852874D01*
X57730000Y-41967126D01*
X57707711Y-42079180D01*
X57663989Y-42184734D01*
X57600515Y-42279729D01*
X57519729Y-42360515D01*
X57424734Y-42423989D01*
X57319180Y-42467711D01*
X57207126Y-42490000D01*
X57092874Y-42490000D01*
X56980820Y-42467711D01*
X56875266Y-42423989D01*
X56780271Y-42360515D01*
X56699485Y-42279729D01*
X56636011Y-42184734D01*
X56592289Y-42079180D01*
X56570000Y-41967126D01*
X56570000Y-41852874D01*
X56592289Y-41740820D01*
X56636011Y-41635266D01*
X56699485Y-41540271D01*
X56780271Y-41459485D01*
X56875266Y-41396011D01*
X56980820Y-41352289D01*
X57092874Y-41330000D01*
X57207126Y-41330000D01*
X57319180Y-41352289D01*
X57319180Y-41352289D01*
G37*
G36*
X27835066Y-41349685D02*
X27858515Y-41356798D01*
X27882901Y-41359200D01*
X28982849Y-41359200D01*
X28980715Y-41363192D01*
X28973602Y-41386641D01*
X28971200Y-41411027D01*
X28971200Y-42307373D01*
X28973602Y-42331759D01*
X28980715Y-42355208D01*
X28982849Y-42359200D01*
X27955000Y-42359200D01*
X27930614Y-42361602D01*
X27907165Y-42368715D01*
X27896155Y-42374600D01*
X27867501Y-42374600D01*
X27843115Y-42377002D01*
X27831200Y-42380616D01*
X27819285Y-42377002D01*
X27794899Y-42374600D01*
X26830000Y-42374600D01*
X26830000Y-41374600D01*
X27258171Y-41374600D01*
X27282556Y-41372198D01*
X27320754Y-41364600D01*
X27419246Y-41364600D01*
X27457444Y-41372198D01*
X27481829Y-41374600D01*
X27684773Y-41374600D01*
X27709159Y-41372198D01*
X27732608Y-41365085D01*
X27743618Y-41359200D01*
X27779499Y-41359200D01*
X27803885Y-41356798D01*
X27827334Y-41349685D01*
X27831200Y-41347619D01*
X27835066Y-41349685D01*
X27835066Y-41349685D01*
G37*
G36*
X56049180Y-39955289D02*
X56154734Y-39999011D01*
X56249729Y-40062485D01*
X56330515Y-40143271D01*
X56393989Y-40238266D01*
X56437711Y-40343820D01*
X56460000Y-40455874D01*
X56460000Y-40570126D01*
X56437711Y-40682180D01*
X56393989Y-40787734D01*
X56330515Y-40882729D01*
X56249729Y-40963515D01*
X56154734Y-41026989D01*
X56049180Y-41070711D01*
X55937126Y-41093000D01*
X55822874Y-41093000D01*
X55710820Y-41070711D01*
X55605266Y-41026989D01*
X55510271Y-40963515D01*
X55429485Y-40882729D01*
X55366011Y-40787734D01*
X55322289Y-40682180D01*
X55300000Y-40570126D01*
X55300000Y-40455874D01*
X55322289Y-40343820D01*
X55366011Y-40238266D01*
X55429485Y-40143271D01*
X55510271Y-40062485D01*
X55605266Y-39999011D01*
X55710820Y-39955289D01*
X55822874Y-39933000D01*
X55937126Y-39933000D01*
X56049180Y-39955289D01*
X56049180Y-39955289D01*
G37*
G36*
X31916630Y-38532299D02*
X32076855Y-38580903D01*
X32224520Y-38659831D01*
X32353949Y-38766051D01*
X32460169Y-38895480D01*
X32539097Y-39043145D01*
X32587701Y-39203370D01*
X32604112Y-39370000D01*
X32587701Y-39536630D01*
X32539097Y-39696855D01*
X32460169Y-39844520D01*
X32353949Y-39973949D01*
X32224520Y-40080169D01*
X32076855Y-40159097D01*
X31916630Y-40207701D01*
X31791752Y-40220000D01*
X31708248Y-40220000D01*
X31583370Y-40207701D01*
X31423145Y-40159097D01*
X31275480Y-40080169D01*
X31146051Y-39973949D01*
X31039831Y-39844520D01*
X30960903Y-39696855D01*
X30912299Y-39536630D01*
X30895888Y-39370000D01*
X30912299Y-39203370D01*
X30960903Y-39043145D01*
X31039831Y-38895480D01*
X31146051Y-38766051D01*
X31275480Y-38659831D01*
X31423145Y-38580903D01*
X31583370Y-38532299D01*
X31708248Y-38520000D01*
X31791752Y-38520000D01*
X31916630Y-38532299D01*
X31916630Y-38532299D01*
G37*
G36*
X31916630Y-35992299D02*
X32076855Y-36040903D01*
X32224520Y-36119831D01*
X32353949Y-36226051D01*
X32460169Y-36355480D01*
X32539097Y-36503145D01*
X32587701Y-36663370D01*
X32604112Y-36830000D01*
X32587701Y-36996630D01*
X32539097Y-37156855D01*
X32460169Y-37304520D01*
X32353949Y-37433949D01*
X32224520Y-37540169D01*
X32076855Y-37619097D01*
X31916630Y-37667701D01*
X31791752Y-37680000D01*
X31708248Y-37680000D01*
X31583370Y-37667701D01*
X31423145Y-37619097D01*
X31275480Y-37540169D01*
X31146051Y-37433949D01*
X31039831Y-37304520D01*
X30960903Y-37156855D01*
X30912299Y-36996630D01*
X30895888Y-36830000D01*
X30912299Y-36663370D01*
X30960903Y-36503145D01*
X31039831Y-36355480D01*
X31146051Y-36226051D01*
X31275480Y-36119831D01*
X31423145Y-36040903D01*
X31583370Y-35992299D01*
X31708248Y-35980000D01*
X31791752Y-35980000D01*
X31916630Y-35992299D01*
X31916630Y-35992299D01*
G37*
G36*
X54776630Y-35357299D02*
X54936855Y-35405903D01*
X55084520Y-35484831D01*
X55213949Y-35591051D01*
X55320169Y-35720480D01*
X55399097Y-35868145D01*
X55447701Y-36028370D01*
X55464112Y-36195000D01*
X55447701Y-36361630D01*
X55399097Y-36521855D01*
X55320169Y-36669520D01*
X55213949Y-36798949D01*
X55084520Y-36905169D01*
X54936855Y-36984097D01*
X54776630Y-37032701D01*
X54651752Y-37045000D01*
X54568248Y-37045000D01*
X54443370Y-37032701D01*
X54283145Y-36984097D01*
X54135480Y-36905169D01*
X54006051Y-36798949D01*
X53899831Y-36669520D01*
X53820903Y-36521855D01*
X53772299Y-36361630D01*
X53755888Y-36195000D01*
X53772299Y-36028370D01*
X53820903Y-35868145D01*
X53899831Y-35720480D01*
X54006051Y-35591051D01*
X54135480Y-35484831D01*
X54283145Y-35405903D01*
X54443370Y-35357299D01*
X54568248Y-35345000D01*
X54651752Y-35345000D01*
X54776630Y-35357299D01*
X54776630Y-35357299D01*
G37*
G36*
X62396630Y-34087299D02*
X62556855Y-34135903D01*
X62704520Y-34214831D01*
X62833949Y-34321051D01*
X62940169Y-34450480D01*
X63019097Y-34598145D01*
X63067701Y-34758370D01*
X63084112Y-34925000D01*
X63067701Y-35091630D01*
X63019097Y-35251855D01*
X62940169Y-35399520D01*
X62833949Y-35528949D01*
X62704520Y-35635169D01*
X62556855Y-35714097D01*
X62396630Y-35762701D01*
X62271752Y-35775000D01*
X62188248Y-35775000D01*
X62063370Y-35762701D01*
X61903145Y-35714097D01*
X61755480Y-35635169D01*
X61626051Y-35528949D01*
X61519831Y-35399520D01*
X61440903Y-35251855D01*
X61392299Y-35091630D01*
X61375888Y-34925000D01*
X61392299Y-34758370D01*
X61440903Y-34598145D01*
X61519831Y-34450480D01*
X61626051Y-34321051D01*
X61755480Y-34214831D01*
X61903145Y-34135903D01*
X62063370Y-34087299D01*
X62188248Y-34075000D01*
X62271752Y-34075000D01*
X62396630Y-34087299D01*
X62396630Y-34087299D01*
G37*
G36*
X70016630Y-34087299D02*
X70176855Y-34135903D01*
X70324520Y-34214831D01*
X70453949Y-34321051D01*
X70560169Y-34450480D01*
X70639097Y-34598145D01*
X70687701Y-34758370D01*
X70704112Y-34925000D01*
X70687701Y-35091630D01*
X70639097Y-35251855D01*
X70560169Y-35399520D01*
X70453949Y-35528949D01*
X70324520Y-35635169D01*
X70176855Y-35714097D01*
X70016630Y-35762701D01*
X69891752Y-35775000D01*
X69808248Y-35775000D01*
X69683370Y-35762701D01*
X69523145Y-35714097D01*
X69375480Y-35635169D01*
X69246051Y-35528949D01*
X69139831Y-35399520D01*
X69060903Y-35251855D01*
X69012299Y-35091630D01*
X68995888Y-34925000D01*
X69012299Y-34758370D01*
X69060903Y-34598145D01*
X69139831Y-34450480D01*
X69246051Y-34321051D01*
X69375480Y-34214831D01*
X69523145Y-34135903D01*
X69683370Y-34087299D01*
X69808248Y-34075000D01*
X69891752Y-34075000D01*
X70016630Y-34087299D01*
X70016630Y-34087299D01*
G37*
G36*
X78320000Y-35775000D02*
X76620000Y-35775000D01*
X76620000Y-34075000D01*
X78320000Y-34075000D01*
X78320000Y-35775000D01*
X78320000Y-35775000D01*
G37*
G36*
X32600000Y-35140000D02*
X30900000Y-35140000D01*
X30900000Y-33440000D01*
X32600000Y-33440000D01*
X32600000Y-35140000D01*
X32600000Y-35140000D01*
G37*
G36*
X54776630Y-32817299D02*
X54936855Y-32865903D01*
X55084520Y-32944831D01*
X55213949Y-33051051D01*
X55320169Y-33180480D01*
X55399097Y-33328145D01*
X55447701Y-33488370D01*
X55464112Y-33655000D01*
X55447701Y-33821630D01*
X55399097Y-33981855D01*
X55320169Y-34129520D01*
X55213949Y-34258949D01*
X55084520Y-34365169D01*
X54936855Y-34444097D01*
X54776630Y-34492701D01*
X54651752Y-34505000D01*
X54568248Y-34505000D01*
X54443370Y-34492701D01*
X54283145Y-34444097D01*
X54135480Y-34365169D01*
X54006051Y-34258949D01*
X53899831Y-34129520D01*
X53820903Y-33981855D01*
X53772299Y-33821630D01*
X53755888Y-33655000D01*
X53772299Y-33488370D01*
X53820903Y-33328145D01*
X53899831Y-33180480D01*
X54006051Y-33051051D01*
X54135480Y-32944831D01*
X54283145Y-32865903D01*
X54443370Y-32817299D01*
X54568248Y-32805000D01*
X54651752Y-32805000D01*
X54776630Y-32817299D01*
X54776630Y-32817299D01*
G37*
G36*
X45489435Y-30542429D02*
X45586034Y-30561644D01*
X45859017Y-30674717D01*
X45889372Y-30695000D01*
X46104697Y-30838876D01*
X46313624Y-31047803D01*
X46313626Y-31047806D01*
X46477783Y-31293483D01*
X46590856Y-31566466D01*
X46595442Y-31589520D01*
X46648500Y-31856261D01*
X46648500Y-32151739D01*
X46610071Y-32344935D01*
X46590856Y-32441534D01*
X46477783Y-32714517D01*
X46323891Y-32944831D01*
X46313624Y-32960197D01*
X46104697Y-33169124D01*
X46104694Y-33169126D01*
X45859017Y-33333283D01*
X45586034Y-33446356D01*
X45489435Y-33465571D01*
X45296239Y-33504000D01*
X45000761Y-33504000D01*
X44807565Y-33465571D01*
X44710966Y-33446356D01*
X44437983Y-33333283D01*
X44192306Y-33169126D01*
X44192303Y-33169124D01*
X43983376Y-32960197D01*
X43973109Y-32944831D01*
X43819217Y-32714517D01*
X43706144Y-32441534D01*
X43686929Y-32344935D01*
X43648500Y-32151739D01*
X43648500Y-31856261D01*
X43701558Y-31589520D01*
X43706144Y-31566466D01*
X43819217Y-31293483D01*
X43983374Y-31047806D01*
X43983376Y-31047803D01*
X44192303Y-30838876D01*
X44407628Y-30695000D01*
X44437983Y-30674717D01*
X44710966Y-30561644D01*
X44807565Y-30542429D01*
X45000761Y-30504000D01*
X45296239Y-30504000D01*
X45489435Y-30542429D01*
X45489435Y-30542429D01*
G37*
G36*
X78320000Y-33235000D02*
X76620000Y-33235000D01*
X76620000Y-31535000D01*
X78320000Y-31535000D01*
X78320000Y-33235000D01*
X78320000Y-33235000D01*
G37*
G36*
X70016630Y-31547299D02*
X70176855Y-31595903D01*
X70324520Y-31674831D01*
X70453949Y-31781051D01*
X70560169Y-31910480D01*
X70639097Y-32058145D01*
X70687701Y-32218370D01*
X70704112Y-32385000D01*
X70687701Y-32551630D01*
X70639097Y-32711855D01*
X70560169Y-32859520D01*
X70453949Y-32988949D01*
X70324520Y-33095169D01*
X70176855Y-33174097D01*
X70016630Y-33222701D01*
X69891752Y-33235000D01*
X69808248Y-33235000D01*
X69683370Y-33222701D01*
X69523145Y-33174097D01*
X69375480Y-33095169D01*
X69246051Y-32988949D01*
X69139831Y-32859520D01*
X69060903Y-32711855D01*
X69012299Y-32551630D01*
X68995888Y-32385000D01*
X69012299Y-32218370D01*
X69060903Y-32058145D01*
X69139831Y-31910480D01*
X69246051Y-31781051D01*
X69375480Y-31674831D01*
X69523145Y-31595903D01*
X69683370Y-31547299D01*
X69808248Y-31535000D01*
X69891752Y-31535000D01*
X70016630Y-31547299D01*
X70016630Y-31547299D01*
G37*
G36*
X62396630Y-31547299D02*
X62556855Y-31595903D01*
X62704520Y-31674831D01*
X62833949Y-31781051D01*
X62940169Y-31910480D01*
X63019097Y-32058145D01*
X63067701Y-32218370D01*
X63084112Y-32385000D01*
X63067701Y-32551630D01*
X63019097Y-32711855D01*
X62940169Y-32859520D01*
X62833949Y-32988949D01*
X62704520Y-33095169D01*
X62556855Y-33174097D01*
X62396630Y-33222701D01*
X62271752Y-33235000D01*
X62188248Y-33235000D01*
X62063370Y-33222701D01*
X61903145Y-33174097D01*
X61755480Y-33095169D01*
X61626051Y-32988949D01*
X61519831Y-32859520D01*
X61440903Y-32711855D01*
X61392299Y-32551630D01*
X61375888Y-32385000D01*
X61392299Y-32218370D01*
X61440903Y-32058145D01*
X61519831Y-31910480D01*
X61626051Y-31781051D01*
X61755480Y-31674831D01*
X61903145Y-31595903D01*
X62063370Y-31547299D01*
X62188248Y-31535000D01*
X62271752Y-31535000D01*
X62396630Y-31547299D01*
X62396630Y-31547299D01*
G37*
G36*
X31997934Y-30932664D02*
X32152627Y-30996740D01*
X32291847Y-31089764D01*
X32410236Y-31208153D01*
X32503260Y-31347373D01*
X32567336Y-31502066D01*
X32600000Y-31666281D01*
X32600000Y-31833719D01*
X32567336Y-31997934D01*
X32503260Y-32152627D01*
X32410236Y-32291847D01*
X32291847Y-32410236D01*
X32152627Y-32503260D01*
X31997934Y-32567336D01*
X31833719Y-32600000D01*
X31666281Y-32600000D01*
X31502066Y-32567336D01*
X31347373Y-32503260D01*
X31208153Y-32410236D01*
X31089764Y-32291847D01*
X30996740Y-32152627D01*
X30932664Y-31997934D01*
X30900000Y-31833719D01*
X30900000Y-31666281D01*
X30932664Y-31502066D01*
X30996740Y-31347373D01*
X31089764Y-31208153D01*
X31208153Y-31089764D01*
X31347373Y-30996740D01*
X31502066Y-30932664D01*
X31666281Y-30900000D01*
X31833719Y-30900000D01*
X31997934Y-30932664D01*
X31997934Y-30932664D01*
G37*
G36*
X54776630Y-30277299D02*
X54936855Y-30325903D01*
X55084520Y-30404831D01*
X55213949Y-30511051D01*
X55320169Y-30640480D01*
X55399097Y-30788145D01*
X55447701Y-30948370D01*
X55464112Y-31115000D01*
X55447701Y-31281630D01*
X55399097Y-31441855D01*
X55320169Y-31589520D01*
X55213949Y-31718949D01*
X55084520Y-31825169D01*
X54936855Y-31904097D01*
X54776630Y-31952701D01*
X54651752Y-31965000D01*
X54568248Y-31965000D01*
X54443370Y-31952701D01*
X54283145Y-31904097D01*
X54135480Y-31825169D01*
X54006051Y-31718949D01*
X53899831Y-31589520D01*
X53820903Y-31441855D01*
X53772299Y-31281630D01*
X53755888Y-31115000D01*
X53772299Y-30948370D01*
X53820903Y-30788145D01*
X53899831Y-30640480D01*
X54006051Y-30511051D01*
X54135480Y-30404831D01*
X54283145Y-30325903D01*
X54443370Y-30277299D01*
X54568248Y-30265000D01*
X54651752Y-30265000D01*
X54776630Y-30277299D01*
X54776630Y-30277299D01*
G37*
G36*
X70097934Y-29027664D02*
X70252627Y-29091740D01*
X70391847Y-29184764D01*
X70510236Y-29303153D01*
X70603260Y-29442373D01*
X70667336Y-29597066D01*
X70700000Y-29761281D01*
X70700000Y-29928719D01*
X70667336Y-30092934D01*
X70603260Y-30247627D01*
X70510236Y-30386847D01*
X70391847Y-30505236D01*
X70252627Y-30598260D01*
X70097934Y-30662336D01*
X69933719Y-30695000D01*
X69766281Y-30695000D01*
X69602066Y-30662336D01*
X69447373Y-30598260D01*
X69308153Y-30505236D01*
X69189764Y-30386847D01*
X69096740Y-30247627D01*
X69032664Y-30092934D01*
X69000000Y-29928719D01*
X69000000Y-29761281D01*
X69032664Y-29597066D01*
X69096740Y-29442373D01*
X69189764Y-29303153D01*
X69308153Y-29184764D01*
X69447373Y-29091740D01*
X69602066Y-29027664D01*
X69766281Y-28995000D01*
X69933719Y-28995000D01*
X70097934Y-29027664D01*
X70097934Y-29027664D01*
G37*
G36*
X62477934Y-29027664D02*
X62632627Y-29091740D01*
X62771847Y-29184764D01*
X62890236Y-29303153D01*
X62983260Y-29442373D01*
X63047336Y-29597066D01*
X63080000Y-29761281D01*
X63080000Y-29928719D01*
X63047336Y-30092934D01*
X62983260Y-30247627D01*
X62890236Y-30386847D01*
X62771847Y-30505236D01*
X62632627Y-30598260D01*
X62477934Y-30662336D01*
X62313719Y-30695000D01*
X62146281Y-30695000D01*
X61982066Y-30662336D01*
X61827373Y-30598260D01*
X61688153Y-30505236D01*
X61569764Y-30386847D01*
X61476740Y-30247627D01*
X61412664Y-30092934D01*
X61380000Y-29928719D01*
X61380000Y-29761281D01*
X61412664Y-29597066D01*
X61476740Y-29442373D01*
X61569764Y-29303153D01*
X61688153Y-29184764D01*
X61827373Y-29091740D01*
X61982066Y-29027664D01*
X62146281Y-28995000D01*
X62313719Y-28995000D01*
X62477934Y-29027664D01*
X62477934Y-29027664D01*
G37*
G36*
X78320000Y-30695000D02*
X76620000Y-30695000D01*
X76620000Y-28995000D01*
X78320000Y-28995000D01*
X78320000Y-30695000D01*
X78320000Y-30695000D01*
G37*
G36*
X55460000Y-29425000D02*
X53760000Y-29425000D01*
X53760000Y-27725000D01*
X55460000Y-27725000D01*
X55460000Y-29425000D01*
X55460000Y-29425000D01*
G37*
G36*
X24524599Y-17489421D02*
X24724237Y-17529131D01*
X25288401Y-17762815D01*
X25796135Y-18102072D01*
X26227928Y-18533865D01*
X26567185Y-19041599D01*
X26786920Y-19572088D01*
X26800869Y-19605764D01*
X26920000Y-20204675D01*
X26920000Y-20815325D01*
X26850169Y-21166388D01*
X26800869Y-21414237D01*
X26567185Y-21978401D01*
X26227928Y-22486135D01*
X25796135Y-22917928D01*
X25288401Y-23257185D01*
X24724237Y-23490869D01*
X24524599Y-23530579D01*
X24125325Y-23610000D01*
X23514675Y-23610000D01*
X23115401Y-23530579D01*
X22915763Y-23490869D01*
X22351599Y-23257185D01*
X21843865Y-22917928D01*
X21412072Y-22486135D01*
X21072815Y-21978401D01*
X20839131Y-21414237D01*
X20789831Y-21166388D01*
X20720000Y-20815325D01*
X20720000Y-20204675D01*
X20839131Y-19605764D01*
X20853080Y-19572088D01*
X21072815Y-19041599D01*
X21412072Y-18533865D01*
X21843865Y-18102072D01*
X22351599Y-17762815D01*
X22915763Y-17529131D01*
X23115401Y-17489421D01*
X23514675Y-17410000D01*
X24125325Y-17410000D01*
X24524599Y-17489421D01*
X24524599Y-17489421D01*
G37*
G36*
X82524599Y-17489421D02*
X82724237Y-17529131D01*
X83288401Y-17762815D01*
X83796135Y-18102072D01*
X84227928Y-18533865D01*
X84567185Y-19041599D01*
X84786920Y-19572088D01*
X84800869Y-19605764D01*
X84920000Y-20204675D01*
X84920000Y-20815325D01*
X84850169Y-21166388D01*
X84800869Y-21414237D01*
X84567185Y-21978401D01*
X84227928Y-22486135D01*
X83796135Y-22917928D01*
X83288401Y-23257185D01*
X82724237Y-23490869D01*
X82524599Y-23530579D01*
X82125325Y-23610000D01*
X81514675Y-23610000D01*
X81115401Y-23530579D01*
X80915763Y-23490869D01*
X80351599Y-23257185D01*
X79843865Y-22917928D01*
X79412072Y-22486135D01*
X79072815Y-21978401D01*
X78839131Y-21414237D01*
X78789831Y-21166388D01*
X78720000Y-20815325D01*
X78720000Y-20204675D01*
X78839131Y-19605764D01*
X78853080Y-19572088D01*
X79072815Y-19041599D01*
X79412072Y-18533865D01*
X79843865Y-18102072D01*
X80351599Y-17762815D01*
X80915763Y-17529131D01*
X81115401Y-17489421D01*
X81514675Y-17410000D01*
X82125325Y-17410000D01*
X82524599Y-17489421D01*
X82524599Y-17489421D01*
G37*
G36*
X29553600Y-22643600D02*
X27826400Y-22643600D01*
X27826400Y-20916400D01*
X29553600Y-20916400D01*
X29553600Y-22643600D01*
X29553600Y-22643600D01*
G37*
G36*
X64334712Y-20920565D02*
X64419295Y-20928896D01*
X64539727Y-20965429D01*
X64582088Y-20978279D01*
X64732112Y-21058468D01*
X64863612Y-21166388D01*
X64971532Y-21297888D01*
X65051721Y-21447912D01*
X65051722Y-21447916D01*
X65101104Y-21610705D01*
X65117778Y-21780000D01*
X65101104Y-21949295D01*
X65064571Y-22069727D01*
X65051721Y-22112088D01*
X64971532Y-22262112D01*
X64863612Y-22393612D01*
X64732112Y-22501532D01*
X64582088Y-22581721D01*
X64539727Y-22594571D01*
X64419295Y-22631104D01*
X64334712Y-22639435D01*
X64292421Y-22643600D01*
X64207579Y-22643600D01*
X64165288Y-22639435D01*
X64080705Y-22631104D01*
X63960273Y-22594571D01*
X63917912Y-22581721D01*
X63767888Y-22501532D01*
X63636388Y-22393612D01*
X63528468Y-22262112D01*
X63448279Y-22112088D01*
X63435429Y-22069727D01*
X63398896Y-21949295D01*
X63382222Y-21780000D01*
X63398896Y-21610705D01*
X63448278Y-21447916D01*
X63448279Y-21447912D01*
X63528468Y-21297888D01*
X63636388Y-21166388D01*
X63767888Y-21058468D01*
X63917912Y-20978279D01*
X63960273Y-20965429D01*
X64080705Y-20928896D01*
X64165288Y-20920565D01*
X64207579Y-20916400D01*
X64292421Y-20916400D01*
X64334712Y-20920565D01*
X64334712Y-20920565D01*
G37*
G36*
X54174712Y-20920565D02*
X54259295Y-20928896D01*
X54379727Y-20965429D01*
X54422088Y-20978279D01*
X54572112Y-21058468D01*
X54703612Y-21166388D01*
X54811532Y-21297888D01*
X54891721Y-21447912D01*
X54891722Y-21447916D01*
X54941104Y-21610705D01*
X54957778Y-21780000D01*
X54941104Y-21949295D01*
X54904571Y-22069727D01*
X54891721Y-22112088D01*
X54811532Y-22262112D01*
X54703612Y-22393612D01*
X54572112Y-22501532D01*
X54422088Y-22581721D01*
X54379727Y-22594571D01*
X54259295Y-22631104D01*
X54174712Y-22639435D01*
X54132421Y-22643600D01*
X54047579Y-22643600D01*
X54005288Y-22639435D01*
X53920705Y-22631104D01*
X53800273Y-22594571D01*
X53757912Y-22581721D01*
X53607888Y-22501532D01*
X53476388Y-22393612D01*
X53368468Y-22262112D01*
X53288279Y-22112088D01*
X53275429Y-22069727D01*
X53238896Y-21949295D01*
X53222222Y-21780000D01*
X53238896Y-21610705D01*
X53288278Y-21447916D01*
X53288279Y-21447912D01*
X53368468Y-21297888D01*
X53476388Y-21166388D01*
X53607888Y-21058468D01*
X53757912Y-20978279D01*
X53800273Y-20965429D01*
X53920705Y-20928896D01*
X54005288Y-20920565D01*
X54047579Y-20916400D01*
X54132421Y-20916400D01*
X54174712Y-20920565D01*
X54174712Y-20920565D01*
G37*
G36*
X56714712Y-20920565D02*
X56799295Y-20928896D01*
X56919727Y-20965429D01*
X56962088Y-20978279D01*
X57112112Y-21058468D01*
X57243612Y-21166388D01*
X57351532Y-21297888D01*
X57431721Y-21447912D01*
X57431722Y-21447916D01*
X57481104Y-21610705D01*
X57497778Y-21780000D01*
X57481104Y-21949295D01*
X57444571Y-22069727D01*
X57431721Y-22112088D01*
X57351532Y-22262112D01*
X57243612Y-22393612D01*
X57112112Y-22501532D01*
X56962088Y-22581721D01*
X56919727Y-22594571D01*
X56799295Y-22631104D01*
X56714712Y-22639435D01*
X56672421Y-22643600D01*
X56587579Y-22643600D01*
X56545288Y-22639435D01*
X56460705Y-22631104D01*
X56340273Y-22594571D01*
X56297912Y-22581721D01*
X56147888Y-22501532D01*
X56016388Y-22393612D01*
X55908468Y-22262112D01*
X55828279Y-22112088D01*
X55815429Y-22069727D01*
X55778896Y-21949295D01*
X55762222Y-21780000D01*
X55778896Y-21610705D01*
X55828278Y-21447916D01*
X55828279Y-21447912D01*
X55908468Y-21297888D01*
X56016388Y-21166388D01*
X56147888Y-21058468D01*
X56297912Y-20978279D01*
X56340273Y-20965429D01*
X56460705Y-20928896D01*
X56545288Y-20920565D01*
X56587579Y-20916400D01*
X56672421Y-20916400D01*
X56714712Y-20920565D01*
X56714712Y-20920565D01*
G37*
G36*
X59254712Y-20920565D02*
X59339295Y-20928896D01*
X59459727Y-20965429D01*
X59502088Y-20978279D01*
X59652112Y-21058468D01*
X59783612Y-21166388D01*
X59891532Y-21297888D01*
X59971721Y-21447912D01*
X59971722Y-21447916D01*
X60021104Y-21610705D01*
X60037778Y-21780000D01*
X60021104Y-21949295D01*
X59984571Y-22069727D01*
X59971721Y-22112088D01*
X59891532Y-22262112D01*
X59783612Y-22393612D01*
X59652112Y-22501532D01*
X59502088Y-22581721D01*
X59459727Y-22594571D01*
X59339295Y-22631104D01*
X59254712Y-22639435D01*
X59212421Y-22643600D01*
X59127579Y-22643600D01*
X59085288Y-22639435D01*
X59000705Y-22631104D01*
X58880273Y-22594571D01*
X58837912Y-22581721D01*
X58687888Y-22501532D01*
X58556388Y-22393612D01*
X58448468Y-22262112D01*
X58368279Y-22112088D01*
X58355429Y-22069727D01*
X58318896Y-21949295D01*
X58302222Y-21780000D01*
X58318896Y-21610705D01*
X58368278Y-21447916D01*
X58368279Y-21447912D01*
X58448468Y-21297888D01*
X58556388Y-21166388D01*
X58687888Y-21058468D01*
X58837912Y-20978279D01*
X58880273Y-20965429D01*
X59000705Y-20928896D01*
X59085288Y-20920565D01*
X59127579Y-20916400D01*
X59212421Y-20916400D01*
X59254712Y-20920565D01*
X59254712Y-20920565D01*
G37*
G36*
X61794712Y-20920565D02*
X61879295Y-20928896D01*
X61999727Y-20965429D01*
X62042088Y-20978279D01*
X62192112Y-21058468D01*
X62323612Y-21166388D01*
X62431532Y-21297888D01*
X62511721Y-21447912D01*
X62511722Y-21447916D01*
X62561104Y-21610705D01*
X62577778Y-21780000D01*
X62561104Y-21949295D01*
X62524571Y-22069727D01*
X62511721Y-22112088D01*
X62431532Y-22262112D01*
X62323612Y-22393612D01*
X62192112Y-22501532D01*
X62042088Y-22581721D01*
X61999727Y-22594571D01*
X61879295Y-22631104D01*
X61794712Y-22639435D01*
X61752421Y-22643600D01*
X61667579Y-22643600D01*
X61625288Y-22639435D01*
X61540705Y-22631104D01*
X61420273Y-22594571D01*
X61377912Y-22581721D01*
X61227888Y-22501532D01*
X61096388Y-22393612D01*
X60988468Y-22262112D01*
X60908279Y-22112088D01*
X60895429Y-22069727D01*
X60858896Y-21949295D01*
X60842222Y-21780000D01*
X60858896Y-21610705D01*
X60908278Y-21447916D01*
X60908279Y-21447912D01*
X60988468Y-21297888D01*
X61096388Y-21166388D01*
X61227888Y-21058468D01*
X61377912Y-20978279D01*
X61420273Y-20965429D01*
X61540705Y-20928896D01*
X61625288Y-20920565D01*
X61667579Y-20916400D01*
X61752421Y-20916400D01*
X61794712Y-20920565D01*
X61794712Y-20920565D01*
G37*
G36*
X66874712Y-20920565D02*
X66959295Y-20928896D01*
X67079727Y-20965429D01*
X67122088Y-20978279D01*
X67272112Y-21058468D01*
X67403612Y-21166388D01*
X67511532Y-21297888D01*
X67591721Y-21447912D01*
X67591722Y-21447916D01*
X67641104Y-21610705D01*
X67657778Y-21780000D01*
X67641104Y-21949295D01*
X67604571Y-22069727D01*
X67591721Y-22112088D01*
X67511532Y-22262112D01*
X67403612Y-22393612D01*
X67272112Y-22501532D01*
X67122088Y-22581721D01*
X67079727Y-22594571D01*
X66959295Y-22631104D01*
X66874712Y-22639435D01*
X66832421Y-22643600D01*
X66747579Y-22643600D01*
X66705288Y-22639435D01*
X66620705Y-22631104D01*
X66500273Y-22594571D01*
X66457912Y-22581721D01*
X66307888Y-22501532D01*
X66176388Y-22393612D01*
X66068468Y-22262112D01*
X65988279Y-22112088D01*
X65975429Y-22069727D01*
X65938896Y-21949295D01*
X65922222Y-21780000D01*
X65938896Y-21610705D01*
X65988278Y-21447916D01*
X65988279Y-21447912D01*
X66068468Y-21297888D01*
X66176388Y-21166388D01*
X66307888Y-21058468D01*
X66457912Y-20978279D01*
X66500273Y-20965429D01*
X66620705Y-20928896D01*
X66705288Y-20920565D01*
X66747579Y-20916400D01*
X66832421Y-20916400D01*
X66874712Y-20920565D01*
X66874712Y-20920565D01*
G37*
G36*
X69414712Y-20920565D02*
X69499295Y-20928896D01*
X69619727Y-20965429D01*
X69662088Y-20978279D01*
X69812112Y-21058468D01*
X69943612Y-21166388D01*
X70051532Y-21297888D01*
X70131721Y-21447912D01*
X70131722Y-21447916D01*
X70181104Y-21610705D01*
X70197778Y-21780000D01*
X70181104Y-21949295D01*
X70144571Y-22069727D01*
X70131721Y-22112088D01*
X70051532Y-22262112D01*
X69943612Y-22393612D01*
X69812112Y-22501532D01*
X69662088Y-22581721D01*
X69619727Y-22594571D01*
X69499295Y-22631104D01*
X69414712Y-22639435D01*
X69372421Y-22643600D01*
X69287579Y-22643600D01*
X69245288Y-22639435D01*
X69160705Y-22631104D01*
X69040273Y-22594571D01*
X68997912Y-22581721D01*
X68847888Y-22501532D01*
X68716388Y-22393612D01*
X68608468Y-22262112D01*
X68528279Y-22112088D01*
X68515429Y-22069727D01*
X68478896Y-21949295D01*
X68462222Y-21780000D01*
X68478896Y-21610705D01*
X68528278Y-21447916D01*
X68528279Y-21447912D01*
X68608468Y-21297888D01*
X68716388Y-21166388D01*
X68847888Y-21058468D01*
X68997912Y-20978279D01*
X69040273Y-20965429D01*
X69160705Y-20928896D01*
X69245288Y-20920565D01*
X69287579Y-20916400D01*
X69372421Y-20916400D01*
X69414712Y-20920565D01*
X69414712Y-20920565D01*
G37*
G36*
X77034712Y-20920565D02*
X77119295Y-20928896D01*
X77239727Y-20965429D01*
X77282088Y-20978279D01*
X77432112Y-21058468D01*
X77563612Y-21166388D01*
X77671532Y-21297888D01*
X77751721Y-21447912D01*
X77751722Y-21447916D01*
X77801104Y-21610705D01*
X77817778Y-21780000D01*
X77801104Y-21949295D01*
X77764571Y-22069727D01*
X77751721Y-22112088D01*
X77671532Y-22262112D01*
X77563612Y-22393612D01*
X77432112Y-22501532D01*
X77282088Y-22581721D01*
X77239727Y-22594571D01*
X77119295Y-22631104D01*
X77034712Y-22639435D01*
X76992421Y-22643600D01*
X76907579Y-22643600D01*
X76865288Y-22639435D01*
X76780705Y-22631104D01*
X76660273Y-22594571D01*
X76617912Y-22581721D01*
X76467888Y-22501532D01*
X76336388Y-22393612D01*
X76228468Y-22262112D01*
X76148279Y-22112088D01*
X76135429Y-22069727D01*
X76098896Y-21949295D01*
X76082222Y-21780000D01*
X76098896Y-21610705D01*
X76148278Y-21447916D01*
X76148279Y-21447912D01*
X76228468Y-21297888D01*
X76336388Y-21166388D01*
X76467888Y-21058468D01*
X76617912Y-20978279D01*
X76660273Y-20965429D01*
X76780705Y-20928896D01*
X76865288Y-20920565D01*
X76907579Y-20916400D01*
X76992421Y-20916400D01*
X77034712Y-20920565D01*
X77034712Y-20920565D01*
G37*
G36*
X71954712Y-20920565D02*
X72039295Y-20928896D01*
X72159727Y-20965429D01*
X72202088Y-20978279D01*
X72352112Y-21058468D01*
X72483612Y-21166388D01*
X72591532Y-21297888D01*
X72671721Y-21447912D01*
X72671722Y-21447916D01*
X72721104Y-21610705D01*
X72737778Y-21780000D01*
X72721104Y-21949295D01*
X72684571Y-22069727D01*
X72671721Y-22112088D01*
X72591532Y-22262112D01*
X72483612Y-22393612D01*
X72352112Y-22501532D01*
X72202088Y-22581721D01*
X72159727Y-22594571D01*
X72039295Y-22631104D01*
X71954712Y-22639435D01*
X71912421Y-22643600D01*
X71827579Y-22643600D01*
X71785288Y-22639435D01*
X71700705Y-22631104D01*
X71580273Y-22594571D01*
X71537912Y-22581721D01*
X71387888Y-22501532D01*
X71256388Y-22393612D01*
X71148468Y-22262112D01*
X71068279Y-22112088D01*
X71055429Y-22069727D01*
X71018896Y-21949295D01*
X71002222Y-21780000D01*
X71018896Y-21610705D01*
X71068278Y-21447916D01*
X71068279Y-21447912D01*
X71148468Y-21297888D01*
X71256388Y-21166388D01*
X71387888Y-21058468D01*
X71537912Y-20978279D01*
X71580273Y-20965429D01*
X71700705Y-20928896D01*
X71785288Y-20920565D01*
X71827579Y-20916400D01*
X71912421Y-20916400D01*
X71954712Y-20920565D01*
X71954712Y-20920565D01*
G37*
G36*
X31314712Y-20920565D02*
X31399295Y-20928896D01*
X31519727Y-20965429D01*
X31562088Y-20978279D01*
X31712112Y-21058468D01*
X31843612Y-21166388D01*
X31951532Y-21297888D01*
X32031721Y-21447912D01*
X32031722Y-21447916D01*
X32081104Y-21610705D01*
X32097778Y-21780000D01*
X32081104Y-21949295D01*
X32044571Y-22069727D01*
X32031721Y-22112088D01*
X31951532Y-22262112D01*
X31843612Y-22393612D01*
X31712112Y-22501532D01*
X31562088Y-22581721D01*
X31519727Y-22594571D01*
X31399295Y-22631104D01*
X31314712Y-22639435D01*
X31272421Y-22643600D01*
X31187579Y-22643600D01*
X31145288Y-22639435D01*
X31060705Y-22631104D01*
X30940273Y-22594571D01*
X30897912Y-22581721D01*
X30747888Y-22501532D01*
X30616388Y-22393612D01*
X30508468Y-22262112D01*
X30428279Y-22112088D01*
X30415429Y-22069727D01*
X30378896Y-21949295D01*
X30362222Y-21780000D01*
X30378896Y-21610705D01*
X30428278Y-21447916D01*
X30428279Y-21447912D01*
X30508468Y-21297888D01*
X30616388Y-21166388D01*
X30747888Y-21058468D01*
X30897912Y-20978279D01*
X30940273Y-20965429D01*
X31060705Y-20928896D01*
X31145288Y-20920565D01*
X31187579Y-20916400D01*
X31272421Y-20916400D01*
X31314712Y-20920565D01*
X31314712Y-20920565D01*
G37*
G36*
X51634712Y-20920565D02*
X51719295Y-20928896D01*
X51839727Y-20965429D01*
X51882088Y-20978279D01*
X52032112Y-21058468D01*
X52163612Y-21166388D01*
X52271532Y-21297888D01*
X52351721Y-21447912D01*
X52351722Y-21447916D01*
X52401104Y-21610705D01*
X52417778Y-21780000D01*
X52401104Y-21949295D01*
X52364571Y-22069727D01*
X52351721Y-22112088D01*
X52271532Y-22262112D01*
X52163612Y-22393612D01*
X52032112Y-22501532D01*
X51882088Y-22581721D01*
X51839727Y-22594571D01*
X51719295Y-22631104D01*
X51634712Y-22639435D01*
X51592421Y-22643600D01*
X51507579Y-22643600D01*
X51465288Y-22639435D01*
X51380705Y-22631104D01*
X51260273Y-22594571D01*
X51217912Y-22581721D01*
X51067888Y-22501532D01*
X50936388Y-22393612D01*
X50828468Y-22262112D01*
X50748279Y-22112088D01*
X50735429Y-22069727D01*
X50698896Y-21949295D01*
X50682222Y-21780000D01*
X50698896Y-21610705D01*
X50748278Y-21447916D01*
X50748279Y-21447912D01*
X50828468Y-21297888D01*
X50936388Y-21166388D01*
X51067888Y-21058468D01*
X51217912Y-20978279D01*
X51260273Y-20965429D01*
X51380705Y-20928896D01*
X51465288Y-20920565D01*
X51507579Y-20916400D01*
X51592421Y-20916400D01*
X51634712Y-20920565D01*
X51634712Y-20920565D01*
G37*
G36*
X41474712Y-20920565D02*
X41559295Y-20928896D01*
X41679727Y-20965429D01*
X41722088Y-20978279D01*
X41872112Y-21058468D01*
X42003612Y-21166388D01*
X42111532Y-21297888D01*
X42191721Y-21447912D01*
X42191722Y-21447916D01*
X42241104Y-21610705D01*
X42257778Y-21780000D01*
X42241104Y-21949295D01*
X42204571Y-22069727D01*
X42191721Y-22112088D01*
X42111532Y-22262112D01*
X42003612Y-22393612D01*
X41872112Y-22501532D01*
X41722088Y-22581721D01*
X41679727Y-22594571D01*
X41559295Y-22631104D01*
X41474712Y-22639435D01*
X41432421Y-22643600D01*
X41347579Y-22643600D01*
X41305288Y-22639435D01*
X41220705Y-22631104D01*
X41100273Y-22594571D01*
X41057912Y-22581721D01*
X40907888Y-22501532D01*
X40776388Y-22393612D01*
X40668468Y-22262112D01*
X40588279Y-22112088D01*
X40575429Y-22069727D01*
X40538896Y-21949295D01*
X40522222Y-21780000D01*
X40538896Y-21610705D01*
X40588278Y-21447916D01*
X40588279Y-21447912D01*
X40668468Y-21297888D01*
X40776388Y-21166388D01*
X40907888Y-21058468D01*
X41057912Y-20978279D01*
X41100273Y-20965429D01*
X41220705Y-20928896D01*
X41305288Y-20920565D01*
X41347579Y-20916400D01*
X41432421Y-20916400D01*
X41474712Y-20920565D01*
X41474712Y-20920565D01*
G37*
G36*
X74494712Y-20920565D02*
X74579295Y-20928896D01*
X74699727Y-20965429D01*
X74742088Y-20978279D01*
X74892112Y-21058468D01*
X75023612Y-21166388D01*
X75131532Y-21297888D01*
X75211721Y-21447912D01*
X75211722Y-21447916D01*
X75261104Y-21610705D01*
X75277778Y-21780000D01*
X75261104Y-21949295D01*
X75224571Y-22069727D01*
X75211721Y-22112088D01*
X75131532Y-22262112D01*
X75023612Y-22393612D01*
X74892112Y-22501532D01*
X74742088Y-22581721D01*
X74699727Y-22594571D01*
X74579295Y-22631104D01*
X74494712Y-22639435D01*
X74452421Y-22643600D01*
X74367579Y-22643600D01*
X74325288Y-22639435D01*
X74240705Y-22631104D01*
X74120273Y-22594571D01*
X74077912Y-22581721D01*
X73927888Y-22501532D01*
X73796388Y-22393612D01*
X73688468Y-22262112D01*
X73608279Y-22112088D01*
X73595429Y-22069727D01*
X73558896Y-21949295D01*
X73542222Y-21780000D01*
X73558896Y-21610705D01*
X73608278Y-21447916D01*
X73608279Y-21447912D01*
X73688468Y-21297888D01*
X73796388Y-21166388D01*
X73927888Y-21058468D01*
X74077912Y-20978279D01*
X74120273Y-20965429D01*
X74240705Y-20928896D01*
X74325288Y-20920565D01*
X74367579Y-20916400D01*
X74452421Y-20916400D01*
X74494712Y-20920565D01*
X74494712Y-20920565D01*
G37*
G36*
X38934712Y-20920565D02*
X39019295Y-20928896D01*
X39139727Y-20965429D01*
X39182088Y-20978279D01*
X39332112Y-21058468D01*
X39463612Y-21166388D01*
X39571532Y-21297888D01*
X39651721Y-21447912D01*
X39651722Y-21447916D01*
X39701104Y-21610705D01*
X39717778Y-21780000D01*
X39701104Y-21949295D01*
X39664571Y-22069727D01*
X39651721Y-22112088D01*
X39571532Y-22262112D01*
X39463612Y-22393612D01*
X39332112Y-22501532D01*
X39182088Y-22581721D01*
X39139727Y-22594571D01*
X39019295Y-22631104D01*
X38934712Y-22639435D01*
X38892421Y-22643600D01*
X38807579Y-22643600D01*
X38765288Y-22639435D01*
X38680705Y-22631104D01*
X38560273Y-22594571D01*
X38517912Y-22581721D01*
X38367888Y-22501532D01*
X38236388Y-22393612D01*
X38128468Y-22262112D01*
X38048279Y-22112088D01*
X38035429Y-22069727D01*
X37998896Y-21949295D01*
X37982222Y-21780000D01*
X37998896Y-21610705D01*
X38048278Y-21447916D01*
X38048279Y-21447912D01*
X38128468Y-21297888D01*
X38236388Y-21166388D01*
X38367888Y-21058468D01*
X38517912Y-20978279D01*
X38560273Y-20965429D01*
X38680705Y-20928896D01*
X38765288Y-20920565D01*
X38807579Y-20916400D01*
X38892421Y-20916400D01*
X38934712Y-20920565D01*
X38934712Y-20920565D01*
G37*
G36*
X44014712Y-20920565D02*
X44099295Y-20928896D01*
X44219727Y-20965429D01*
X44262088Y-20978279D01*
X44412112Y-21058468D01*
X44543612Y-21166388D01*
X44651532Y-21297888D01*
X44731721Y-21447912D01*
X44731722Y-21447916D01*
X44781104Y-21610705D01*
X44797778Y-21780000D01*
X44781104Y-21949295D01*
X44744571Y-22069727D01*
X44731721Y-22112088D01*
X44651532Y-22262112D01*
X44543612Y-22393612D01*
X44412112Y-22501532D01*
X44262088Y-22581721D01*
X44219727Y-22594571D01*
X44099295Y-22631104D01*
X44014712Y-22639435D01*
X43972421Y-22643600D01*
X43887579Y-22643600D01*
X43845288Y-22639435D01*
X43760705Y-22631104D01*
X43640273Y-22594571D01*
X43597912Y-22581721D01*
X43447888Y-22501532D01*
X43316388Y-22393612D01*
X43208468Y-22262112D01*
X43128279Y-22112088D01*
X43115429Y-22069727D01*
X43078896Y-21949295D01*
X43062222Y-21780000D01*
X43078896Y-21610705D01*
X43128278Y-21447916D01*
X43128279Y-21447912D01*
X43208468Y-21297888D01*
X43316388Y-21166388D01*
X43447888Y-21058468D01*
X43597912Y-20978279D01*
X43640273Y-20965429D01*
X43760705Y-20928896D01*
X43845288Y-20920565D01*
X43887579Y-20916400D01*
X43972421Y-20916400D01*
X44014712Y-20920565D01*
X44014712Y-20920565D01*
G37*
G36*
X36394712Y-20920565D02*
X36479295Y-20928896D01*
X36599727Y-20965429D01*
X36642088Y-20978279D01*
X36792112Y-21058468D01*
X36923612Y-21166388D01*
X37031532Y-21297888D01*
X37111721Y-21447912D01*
X37111722Y-21447916D01*
X37161104Y-21610705D01*
X37177778Y-21780000D01*
X37161104Y-21949295D01*
X37124571Y-22069727D01*
X37111721Y-22112088D01*
X37031532Y-22262112D01*
X36923612Y-22393612D01*
X36792112Y-22501532D01*
X36642088Y-22581721D01*
X36599727Y-22594571D01*
X36479295Y-22631104D01*
X36394712Y-22639435D01*
X36352421Y-22643600D01*
X36267579Y-22643600D01*
X36225288Y-22639435D01*
X36140705Y-22631104D01*
X36020273Y-22594571D01*
X35977912Y-22581721D01*
X35827888Y-22501532D01*
X35696388Y-22393612D01*
X35588468Y-22262112D01*
X35508279Y-22112088D01*
X35495429Y-22069727D01*
X35458896Y-21949295D01*
X35442222Y-21780000D01*
X35458896Y-21610705D01*
X35508278Y-21447916D01*
X35508279Y-21447912D01*
X35588468Y-21297888D01*
X35696388Y-21166388D01*
X35827888Y-21058468D01*
X35977912Y-20978279D01*
X36020273Y-20965429D01*
X36140705Y-20928896D01*
X36225288Y-20920565D01*
X36267579Y-20916400D01*
X36352421Y-20916400D01*
X36394712Y-20920565D01*
X36394712Y-20920565D01*
G37*
G36*
X46554712Y-20920565D02*
X46639295Y-20928896D01*
X46759727Y-20965429D01*
X46802088Y-20978279D01*
X46952112Y-21058468D01*
X47083612Y-21166388D01*
X47191532Y-21297888D01*
X47271721Y-21447912D01*
X47271722Y-21447916D01*
X47321104Y-21610705D01*
X47337778Y-21780000D01*
X47321104Y-21949295D01*
X47284571Y-22069727D01*
X47271721Y-22112088D01*
X47191532Y-22262112D01*
X47083612Y-22393612D01*
X46952112Y-22501532D01*
X46802088Y-22581721D01*
X46759727Y-22594571D01*
X46639295Y-22631104D01*
X46554712Y-22639435D01*
X46512421Y-22643600D01*
X46427579Y-22643600D01*
X46385288Y-22639435D01*
X46300705Y-22631104D01*
X46180273Y-22594571D01*
X46137912Y-22581721D01*
X45987888Y-22501532D01*
X45856388Y-22393612D01*
X45748468Y-22262112D01*
X45668279Y-22112088D01*
X45655429Y-22069727D01*
X45618896Y-21949295D01*
X45602222Y-21780000D01*
X45618896Y-21610705D01*
X45668278Y-21447916D01*
X45668279Y-21447912D01*
X45748468Y-21297888D01*
X45856388Y-21166388D01*
X45987888Y-21058468D01*
X46137912Y-20978279D01*
X46180273Y-20965429D01*
X46300705Y-20928896D01*
X46385288Y-20920565D01*
X46427579Y-20916400D01*
X46512421Y-20916400D01*
X46554712Y-20920565D01*
X46554712Y-20920565D01*
G37*
G36*
X33854712Y-20920565D02*
X33939295Y-20928896D01*
X34059727Y-20965429D01*
X34102088Y-20978279D01*
X34252112Y-21058468D01*
X34383612Y-21166388D01*
X34491532Y-21297888D01*
X34571721Y-21447912D01*
X34571722Y-21447916D01*
X34621104Y-21610705D01*
X34637778Y-21780000D01*
X34621104Y-21949295D01*
X34584571Y-22069727D01*
X34571721Y-22112088D01*
X34491532Y-22262112D01*
X34383612Y-22393612D01*
X34252112Y-22501532D01*
X34102088Y-22581721D01*
X34059727Y-22594571D01*
X33939295Y-22631104D01*
X33854712Y-22639435D01*
X33812421Y-22643600D01*
X33727579Y-22643600D01*
X33685288Y-22639435D01*
X33600705Y-22631104D01*
X33480273Y-22594571D01*
X33437912Y-22581721D01*
X33287888Y-22501532D01*
X33156388Y-22393612D01*
X33048468Y-22262112D01*
X32968279Y-22112088D01*
X32955429Y-22069727D01*
X32918896Y-21949295D01*
X32902222Y-21780000D01*
X32918896Y-21610705D01*
X32968278Y-21447916D01*
X32968279Y-21447912D01*
X33048468Y-21297888D01*
X33156388Y-21166388D01*
X33287888Y-21058468D01*
X33437912Y-20978279D01*
X33480273Y-20965429D01*
X33600705Y-20928896D01*
X33685288Y-20920565D01*
X33727579Y-20916400D01*
X33812421Y-20916400D01*
X33854712Y-20920565D01*
X33854712Y-20920565D01*
G37*
G36*
X49094712Y-20920565D02*
X49179295Y-20928896D01*
X49299727Y-20965429D01*
X49342088Y-20978279D01*
X49492112Y-21058468D01*
X49623612Y-21166388D01*
X49731532Y-21297888D01*
X49811721Y-21447912D01*
X49811722Y-21447916D01*
X49861104Y-21610705D01*
X49877778Y-21780000D01*
X49861104Y-21949295D01*
X49824571Y-22069727D01*
X49811721Y-22112088D01*
X49731532Y-22262112D01*
X49623612Y-22393612D01*
X49492112Y-22501532D01*
X49342088Y-22581721D01*
X49299727Y-22594571D01*
X49179295Y-22631104D01*
X49094712Y-22639435D01*
X49052421Y-22643600D01*
X48967579Y-22643600D01*
X48925288Y-22639435D01*
X48840705Y-22631104D01*
X48720273Y-22594571D01*
X48677912Y-22581721D01*
X48527888Y-22501532D01*
X48396388Y-22393612D01*
X48288468Y-22262112D01*
X48208279Y-22112088D01*
X48195429Y-22069727D01*
X48158896Y-21949295D01*
X48142222Y-21780000D01*
X48158896Y-21610705D01*
X48208278Y-21447916D01*
X48208279Y-21447912D01*
X48288468Y-21297888D01*
X48396388Y-21166388D01*
X48527888Y-21058468D01*
X48677912Y-20978279D01*
X48720273Y-20965429D01*
X48840705Y-20928896D01*
X48925288Y-20920565D01*
X48967579Y-20916400D01*
X49052421Y-20916400D01*
X49094712Y-20920565D01*
X49094712Y-20920565D01*
G37*
G36*
X64334712Y-18380565D02*
X64419295Y-18388896D01*
X64539727Y-18425429D01*
X64582088Y-18438279D01*
X64732112Y-18518468D01*
X64863612Y-18626388D01*
X64971532Y-18757888D01*
X65051721Y-18907912D01*
X65051722Y-18907916D01*
X65101104Y-19070705D01*
X65117778Y-19240000D01*
X65101104Y-19409295D01*
X65064571Y-19529727D01*
X65051721Y-19572088D01*
X64971532Y-19722112D01*
X64863612Y-19853612D01*
X64732112Y-19961532D01*
X64582088Y-20041721D01*
X64539727Y-20054571D01*
X64419295Y-20091104D01*
X64334712Y-20099435D01*
X64292421Y-20103600D01*
X64207579Y-20103600D01*
X64165288Y-20099435D01*
X64080705Y-20091104D01*
X63960273Y-20054571D01*
X63917912Y-20041721D01*
X63767888Y-19961532D01*
X63636388Y-19853612D01*
X63528468Y-19722112D01*
X63448279Y-19572088D01*
X63435429Y-19529727D01*
X63398896Y-19409295D01*
X63382222Y-19240000D01*
X63398896Y-19070705D01*
X63448278Y-18907916D01*
X63448279Y-18907912D01*
X63528468Y-18757888D01*
X63636388Y-18626388D01*
X63767888Y-18518468D01*
X63917912Y-18438279D01*
X63960273Y-18425429D01*
X64080705Y-18388896D01*
X64165288Y-18380565D01*
X64207579Y-18376400D01*
X64292421Y-18376400D01*
X64334712Y-18380565D01*
X64334712Y-18380565D01*
G37*
G36*
X61794712Y-18380565D02*
X61879295Y-18388896D01*
X61999727Y-18425429D01*
X62042088Y-18438279D01*
X62192112Y-18518468D01*
X62323612Y-18626388D01*
X62431532Y-18757888D01*
X62511721Y-18907912D01*
X62511722Y-18907916D01*
X62561104Y-19070705D01*
X62577778Y-19240000D01*
X62561104Y-19409295D01*
X62524571Y-19529727D01*
X62511721Y-19572088D01*
X62431532Y-19722112D01*
X62323612Y-19853612D01*
X62192112Y-19961532D01*
X62042088Y-20041721D01*
X61999727Y-20054571D01*
X61879295Y-20091104D01*
X61794712Y-20099435D01*
X61752421Y-20103600D01*
X61667579Y-20103600D01*
X61625288Y-20099435D01*
X61540705Y-20091104D01*
X61420273Y-20054571D01*
X61377912Y-20041721D01*
X61227888Y-19961532D01*
X61096388Y-19853612D01*
X60988468Y-19722112D01*
X60908279Y-19572088D01*
X60895429Y-19529727D01*
X60858896Y-19409295D01*
X60842222Y-19240000D01*
X60858896Y-19070705D01*
X60908278Y-18907916D01*
X60908279Y-18907912D01*
X60988468Y-18757888D01*
X61096388Y-18626388D01*
X61227888Y-18518468D01*
X61377912Y-18438279D01*
X61420273Y-18425429D01*
X61540705Y-18388896D01*
X61625288Y-18380565D01*
X61667579Y-18376400D01*
X61752421Y-18376400D01*
X61794712Y-18380565D01*
X61794712Y-18380565D01*
G37*
G36*
X59254712Y-18380565D02*
X59339295Y-18388896D01*
X59459727Y-18425429D01*
X59502088Y-18438279D01*
X59652112Y-18518468D01*
X59783612Y-18626388D01*
X59891532Y-18757888D01*
X59971721Y-18907912D01*
X59971722Y-18907916D01*
X60021104Y-19070705D01*
X60037778Y-19240000D01*
X60021104Y-19409295D01*
X59984571Y-19529727D01*
X59971721Y-19572088D01*
X59891532Y-19722112D01*
X59783612Y-19853612D01*
X59652112Y-19961532D01*
X59502088Y-20041721D01*
X59459727Y-20054571D01*
X59339295Y-20091104D01*
X59254712Y-20099435D01*
X59212421Y-20103600D01*
X59127579Y-20103600D01*
X59085288Y-20099435D01*
X59000705Y-20091104D01*
X58880273Y-20054571D01*
X58837912Y-20041721D01*
X58687888Y-19961532D01*
X58556388Y-19853612D01*
X58448468Y-19722112D01*
X58368279Y-19572088D01*
X58355429Y-19529727D01*
X58318896Y-19409295D01*
X58302222Y-19240000D01*
X58318896Y-19070705D01*
X58368278Y-18907916D01*
X58368279Y-18907912D01*
X58448468Y-18757888D01*
X58556388Y-18626388D01*
X58687888Y-18518468D01*
X58837912Y-18438279D01*
X58880273Y-18425429D01*
X59000705Y-18388896D01*
X59085288Y-18380565D01*
X59127579Y-18376400D01*
X59212421Y-18376400D01*
X59254712Y-18380565D01*
X59254712Y-18380565D01*
G37*
G36*
X56714712Y-18380565D02*
X56799295Y-18388896D01*
X56919727Y-18425429D01*
X56962088Y-18438279D01*
X57112112Y-18518468D01*
X57243612Y-18626388D01*
X57351532Y-18757888D01*
X57431721Y-18907912D01*
X57431722Y-18907916D01*
X57481104Y-19070705D01*
X57497778Y-19240000D01*
X57481104Y-19409295D01*
X57444571Y-19529727D01*
X57431721Y-19572088D01*
X57351532Y-19722112D01*
X57243612Y-19853612D01*
X57112112Y-19961532D01*
X56962088Y-20041721D01*
X56919727Y-20054571D01*
X56799295Y-20091104D01*
X56714712Y-20099435D01*
X56672421Y-20103600D01*
X56587579Y-20103600D01*
X56545288Y-20099435D01*
X56460705Y-20091104D01*
X56340273Y-20054571D01*
X56297912Y-20041721D01*
X56147888Y-19961532D01*
X56016388Y-19853612D01*
X55908468Y-19722112D01*
X55828279Y-19572088D01*
X55815429Y-19529727D01*
X55778896Y-19409295D01*
X55762222Y-19240000D01*
X55778896Y-19070705D01*
X55828278Y-18907916D01*
X55828279Y-18907912D01*
X55908468Y-18757888D01*
X56016388Y-18626388D01*
X56147888Y-18518468D01*
X56297912Y-18438279D01*
X56340273Y-18425429D01*
X56460705Y-18388896D01*
X56545288Y-18380565D01*
X56587579Y-18376400D01*
X56672421Y-18376400D01*
X56714712Y-18380565D01*
X56714712Y-18380565D01*
G37*
G36*
X54174712Y-18380565D02*
X54259295Y-18388896D01*
X54379727Y-18425429D01*
X54422088Y-18438279D01*
X54572112Y-18518468D01*
X54703612Y-18626388D01*
X54811532Y-18757888D01*
X54891721Y-18907912D01*
X54891722Y-18907916D01*
X54941104Y-19070705D01*
X54957778Y-19240000D01*
X54941104Y-19409295D01*
X54904571Y-19529727D01*
X54891721Y-19572088D01*
X54811532Y-19722112D01*
X54703612Y-19853612D01*
X54572112Y-19961532D01*
X54422088Y-20041721D01*
X54379727Y-20054571D01*
X54259295Y-20091104D01*
X54174712Y-20099435D01*
X54132421Y-20103600D01*
X54047579Y-20103600D01*
X54005288Y-20099435D01*
X53920705Y-20091104D01*
X53800273Y-20054571D01*
X53757912Y-20041721D01*
X53607888Y-19961532D01*
X53476388Y-19853612D01*
X53368468Y-19722112D01*
X53288279Y-19572088D01*
X53275429Y-19529727D01*
X53238896Y-19409295D01*
X53222222Y-19240000D01*
X53238896Y-19070705D01*
X53288278Y-18907916D01*
X53288279Y-18907912D01*
X53368468Y-18757888D01*
X53476388Y-18626388D01*
X53607888Y-18518468D01*
X53757912Y-18438279D01*
X53800273Y-18425429D01*
X53920705Y-18388896D01*
X54005288Y-18380565D01*
X54047579Y-18376400D01*
X54132421Y-18376400D01*
X54174712Y-18380565D01*
X54174712Y-18380565D01*
G37*
G36*
X51634712Y-18380565D02*
X51719295Y-18388896D01*
X51839727Y-18425429D01*
X51882088Y-18438279D01*
X52032112Y-18518468D01*
X52163612Y-18626388D01*
X52271532Y-18757888D01*
X52351721Y-18907912D01*
X52351722Y-18907916D01*
X52401104Y-19070705D01*
X52417778Y-19240000D01*
X52401104Y-19409295D01*
X52364571Y-19529727D01*
X52351721Y-19572088D01*
X52271532Y-19722112D01*
X52163612Y-19853612D01*
X52032112Y-19961532D01*
X51882088Y-20041721D01*
X51839727Y-20054571D01*
X51719295Y-20091104D01*
X51634712Y-20099435D01*
X51592421Y-20103600D01*
X51507579Y-20103600D01*
X51465288Y-20099435D01*
X51380705Y-20091104D01*
X51260273Y-20054571D01*
X51217912Y-20041721D01*
X51067888Y-19961532D01*
X50936388Y-19853612D01*
X50828468Y-19722112D01*
X50748279Y-19572088D01*
X50735429Y-19529727D01*
X50698896Y-19409295D01*
X50682222Y-19240000D01*
X50698896Y-19070705D01*
X50748278Y-18907916D01*
X50748279Y-18907912D01*
X50828468Y-18757888D01*
X50936388Y-18626388D01*
X51067888Y-18518468D01*
X51217912Y-18438279D01*
X51260273Y-18425429D01*
X51380705Y-18388896D01*
X51465288Y-18380565D01*
X51507579Y-18376400D01*
X51592421Y-18376400D01*
X51634712Y-18380565D01*
X51634712Y-18380565D01*
G37*
G36*
X33854712Y-18380565D02*
X33939295Y-18388896D01*
X34059727Y-18425429D01*
X34102088Y-18438279D01*
X34252112Y-18518468D01*
X34383612Y-18626388D01*
X34491532Y-18757888D01*
X34571721Y-18907912D01*
X34571722Y-18907916D01*
X34621104Y-19070705D01*
X34637778Y-19240000D01*
X34621104Y-19409295D01*
X34584571Y-19529727D01*
X34571721Y-19572088D01*
X34491532Y-19722112D01*
X34383612Y-19853612D01*
X34252112Y-19961532D01*
X34102088Y-20041721D01*
X34059727Y-20054571D01*
X33939295Y-20091104D01*
X33854712Y-20099435D01*
X33812421Y-20103600D01*
X33727579Y-20103600D01*
X33685288Y-20099435D01*
X33600705Y-20091104D01*
X33480273Y-20054571D01*
X33437912Y-20041721D01*
X33287888Y-19961532D01*
X33156388Y-19853612D01*
X33048468Y-19722112D01*
X32968279Y-19572088D01*
X32955429Y-19529727D01*
X32918896Y-19409295D01*
X32902222Y-19240000D01*
X32918896Y-19070705D01*
X32968278Y-18907916D01*
X32968279Y-18907912D01*
X33048468Y-18757888D01*
X33156388Y-18626388D01*
X33287888Y-18518468D01*
X33437912Y-18438279D01*
X33480273Y-18425429D01*
X33600705Y-18388896D01*
X33685288Y-18380565D01*
X33727579Y-18376400D01*
X33812421Y-18376400D01*
X33854712Y-18380565D01*
X33854712Y-18380565D01*
G37*
G36*
X36394712Y-18380565D02*
X36479295Y-18388896D01*
X36599727Y-18425429D01*
X36642088Y-18438279D01*
X36792112Y-18518468D01*
X36923612Y-18626388D01*
X37031532Y-18757888D01*
X37111721Y-18907912D01*
X37111722Y-18907916D01*
X37161104Y-19070705D01*
X37177778Y-19240000D01*
X37161104Y-19409295D01*
X37124571Y-19529727D01*
X37111721Y-19572088D01*
X37031532Y-19722112D01*
X36923612Y-19853612D01*
X36792112Y-19961532D01*
X36642088Y-20041721D01*
X36599727Y-20054571D01*
X36479295Y-20091104D01*
X36394712Y-20099435D01*
X36352421Y-20103600D01*
X36267579Y-20103600D01*
X36225288Y-20099435D01*
X36140705Y-20091104D01*
X36020273Y-20054571D01*
X35977912Y-20041721D01*
X35827888Y-19961532D01*
X35696388Y-19853612D01*
X35588468Y-19722112D01*
X35508279Y-19572088D01*
X35495429Y-19529727D01*
X35458896Y-19409295D01*
X35442222Y-19240000D01*
X35458896Y-19070705D01*
X35508278Y-18907916D01*
X35508279Y-18907912D01*
X35588468Y-18757888D01*
X35696388Y-18626388D01*
X35827888Y-18518468D01*
X35977912Y-18438279D01*
X36020273Y-18425429D01*
X36140705Y-18388896D01*
X36225288Y-18380565D01*
X36267579Y-18376400D01*
X36352421Y-18376400D01*
X36394712Y-18380565D01*
X36394712Y-18380565D01*
G37*
G36*
X49094712Y-18380565D02*
X49179295Y-18388896D01*
X49299727Y-18425429D01*
X49342088Y-18438279D01*
X49492112Y-18518468D01*
X49623612Y-18626388D01*
X49731532Y-18757888D01*
X49811721Y-18907912D01*
X49811722Y-18907916D01*
X49861104Y-19070705D01*
X49877778Y-19240000D01*
X49861104Y-19409295D01*
X49824571Y-19529727D01*
X49811721Y-19572088D01*
X49731532Y-19722112D01*
X49623612Y-19853612D01*
X49492112Y-19961532D01*
X49342088Y-20041721D01*
X49299727Y-20054571D01*
X49179295Y-20091104D01*
X49094712Y-20099435D01*
X49052421Y-20103600D01*
X48967579Y-20103600D01*
X48925288Y-20099435D01*
X48840705Y-20091104D01*
X48720273Y-20054571D01*
X48677912Y-20041721D01*
X48527888Y-19961532D01*
X48396388Y-19853612D01*
X48288468Y-19722112D01*
X48208279Y-19572088D01*
X48195429Y-19529727D01*
X48158896Y-19409295D01*
X48142222Y-19240000D01*
X48158896Y-19070705D01*
X48208278Y-18907916D01*
X48208279Y-18907912D01*
X48288468Y-18757888D01*
X48396388Y-18626388D01*
X48527888Y-18518468D01*
X48677912Y-18438279D01*
X48720273Y-18425429D01*
X48840705Y-18388896D01*
X48925288Y-18380565D01*
X48967579Y-18376400D01*
X49052421Y-18376400D01*
X49094712Y-18380565D01*
X49094712Y-18380565D01*
G37*
G36*
X38934712Y-18380565D02*
X39019295Y-18388896D01*
X39139727Y-18425429D01*
X39182088Y-18438279D01*
X39332112Y-18518468D01*
X39463612Y-18626388D01*
X39571532Y-18757888D01*
X39651721Y-18907912D01*
X39651722Y-18907916D01*
X39701104Y-19070705D01*
X39717778Y-19240000D01*
X39701104Y-19409295D01*
X39664571Y-19529727D01*
X39651721Y-19572088D01*
X39571532Y-19722112D01*
X39463612Y-19853612D01*
X39332112Y-19961532D01*
X39182088Y-20041721D01*
X39139727Y-20054571D01*
X39019295Y-20091104D01*
X38934712Y-20099435D01*
X38892421Y-20103600D01*
X38807579Y-20103600D01*
X38765288Y-20099435D01*
X38680705Y-20091104D01*
X38560273Y-20054571D01*
X38517912Y-20041721D01*
X38367888Y-19961532D01*
X38236388Y-19853612D01*
X38128468Y-19722112D01*
X38048279Y-19572088D01*
X38035429Y-19529727D01*
X37998896Y-19409295D01*
X37982222Y-19240000D01*
X37998896Y-19070705D01*
X38048278Y-18907916D01*
X38048279Y-18907912D01*
X38128468Y-18757888D01*
X38236388Y-18626388D01*
X38367888Y-18518468D01*
X38517912Y-18438279D01*
X38560273Y-18425429D01*
X38680705Y-18388896D01*
X38765288Y-18380565D01*
X38807579Y-18376400D01*
X38892421Y-18376400D01*
X38934712Y-18380565D01*
X38934712Y-18380565D01*
G37*
G36*
X41474712Y-18380565D02*
X41559295Y-18388896D01*
X41679727Y-18425429D01*
X41722088Y-18438279D01*
X41872112Y-18518468D01*
X42003612Y-18626388D01*
X42111532Y-18757888D01*
X42191721Y-18907912D01*
X42191722Y-18907916D01*
X42241104Y-19070705D01*
X42257778Y-19240000D01*
X42241104Y-19409295D01*
X42204571Y-19529727D01*
X42191721Y-19572088D01*
X42111532Y-19722112D01*
X42003612Y-19853612D01*
X41872112Y-19961532D01*
X41722088Y-20041721D01*
X41679727Y-20054571D01*
X41559295Y-20091104D01*
X41474712Y-20099435D01*
X41432421Y-20103600D01*
X41347579Y-20103600D01*
X41305288Y-20099435D01*
X41220705Y-20091104D01*
X41100273Y-20054571D01*
X41057912Y-20041721D01*
X40907888Y-19961532D01*
X40776388Y-19853612D01*
X40668468Y-19722112D01*
X40588279Y-19572088D01*
X40575429Y-19529727D01*
X40538896Y-19409295D01*
X40522222Y-19240000D01*
X40538896Y-19070705D01*
X40588278Y-18907916D01*
X40588279Y-18907912D01*
X40668468Y-18757888D01*
X40776388Y-18626388D01*
X40907888Y-18518468D01*
X41057912Y-18438279D01*
X41100273Y-18425429D01*
X41220705Y-18388896D01*
X41305288Y-18380565D01*
X41347579Y-18376400D01*
X41432421Y-18376400D01*
X41474712Y-18380565D01*
X41474712Y-18380565D01*
G37*
G36*
X46554712Y-18380565D02*
X46639295Y-18388896D01*
X46759727Y-18425429D01*
X46802088Y-18438279D01*
X46952112Y-18518468D01*
X47083612Y-18626388D01*
X47191532Y-18757888D01*
X47271721Y-18907912D01*
X47271722Y-18907916D01*
X47321104Y-19070705D01*
X47337778Y-19240000D01*
X47321104Y-19409295D01*
X47284571Y-19529727D01*
X47271721Y-19572088D01*
X47191532Y-19722112D01*
X47083612Y-19853612D01*
X46952112Y-19961532D01*
X46802088Y-20041721D01*
X46759727Y-20054571D01*
X46639295Y-20091104D01*
X46554712Y-20099435D01*
X46512421Y-20103600D01*
X46427579Y-20103600D01*
X46385288Y-20099435D01*
X46300705Y-20091104D01*
X46180273Y-20054571D01*
X46137912Y-20041721D01*
X45987888Y-19961532D01*
X45856388Y-19853612D01*
X45748468Y-19722112D01*
X45668279Y-19572088D01*
X45655429Y-19529727D01*
X45618896Y-19409295D01*
X45602222Y-19240000D01*
X45618896Y-19070705D01*
X45668278Y-18907916D01*
X45668279Y-18907912D01*
X45748468Y-18757888D01*
X45856388Y-18626388D01*
X45987888Y-18518468D01*
X46137912Y-18438279D01*
X46180273Y-18425429D01*
X46300705Y-18388896D01*
X46385288Y-18380565D01*
X46427579Y-18376400D01*
X46512421Y-18376400D01*
X46554712Y-18380565D01*
X46554712Y-18380565D01*
G37*
G36*
X44014712Y-18380565D02*
X44099295Y-18388896D01*
X44219727Y-18425429D01*
X44262088Y-18438279D01*
X44412112Y-18518468D01*
X44543612Y-18626388D01*
X44651532Y-18757888D01*
X44731721Y-18907912D01*
X44731722Y-18907916D01*
X44781104Y-19070705D01*
X44797778Y-19240000D01*
X44781104Y-19409295D01*
X44744571Y-19529727D01*
X44731721Y-19572088D01*
X44651532Y-19722112D01*
X44543612Y-19853612D01*
X44412112Y-19961532D01*
X44262088Y-20041721D01*
X44219727Y-20054571D01*
X44099295Y-20091104D01*
X44014712Y-20099435D01*
X43972421Y-20103600D01*
X43887579Y-20103600D01*
X43845288Y-20099435D01*
X43760705Y-20091104D01*
X43640273Y-20054571D01*
X43597912Y-20041721D01*
X43447888Y-19961532D01*
X43316388Y-19853612D01*
X43208468Y-19722112D01*
X43128279Y-19572088D01*
X43115429Y-19529727D01*
X43078896Y-19409295D01*
X43062222Y-19240000D01*
X43078896Y-19070705D01*
X43128278Y-18907916D01*
X43128279Y-18907912D01*
X43208468Y-18757888D01*
X43316388Y-18626388D01*
X43447888Y-18518468D01*
X43597912Y-18438279D01*
X43640273Y-18425429D01*
X43760705Y-18388896D01*
X43845288Y-18380565D01*
X43887579Y-18376400D01*
X43972421Y-18376400D01*
X44014712Y-18380565D01*
X44014712Y-18380565D01*
G37*
G36*
X31314712Y-18380565D02*
X31399295Y-18388896D01*
X31519727Y-18425429D01*
X31562088Y-18438279D01*
X31712112Y-18518468D01*
X31843612Y-18626388D01*
X31951532Y-18757888D01*
X32031721Y-18907912D01*
X32031722Y-18907916D01*
X32081104Y-19070705D01*
X32097778Y-19240000D01*
X32081104Y-19409295D01*
X32044571Y-19529727D01*
X32031721Y-19572088D01*
X31951532Y-19722112D01*
X31843612Y-19853612D01*
X31712112Y-19961532D01*
X31562088Y-20041721D01*
X31519727Y-20054571D01*
X31399295Y-20091104D01*
X31314712Y-20099435D01*
X31272421Y-20103600D01*
X31187579Y-20103600D01*
X31145288Y-20099435D01*
X31060705Y-20091104D01*
X30940273Y-20054571D01*
X30897912Y-20041721D01*
X30747888Y-19961532D01*
X30616388Y-19853612D01*
X30508468Y-19722112D01*
X30428279Y-19572088D01*
X30415429Y-19529727D01*
X30378896Y-19409295D01*
X30362222Y-19240000D01*
X30378896Y-19070705D01*
X30428278Y-18907916D01*
X30428279Y-18907912D01*
X30508468Y-18757888D01*
X30616388Y-18626388D01*
X30747888Y-18518468D01*
X30897912Y-18438279D01*
X30940273Y-18425429D01*
X31060705Y-18388896D01*
X31145288Y-18380565D01*
X31187579Y-18376400D01*
X31272421Y-18376400D01*
X31314712Y-18380565D01*
X31314712Y-18380565D01*
G37*
G36*
X71954712Y-18380565D02*
X72039295Y-18388896D01*
X72159727Y-18425429D01*
X72202088Y-18438279D01*
X72352112Y-18518468D01*
X72483612Y-18626388D01*
X72591532Y-18757888D01*
X72671721Y-18907912D01*
X72671722Y-18907916D01*
X72721104Y-19070705D01*
X72737778Y-19240000D01*
X72721104Y-19409295D01*
X72684571Y-19529727D01*
X72671721Y-19572088D01*
X72591532Y-19722112D01*
X72483612Y-19853612D01*
X72352112Y-19961532D01*
X72202088Y-20041721D01*
X72159727Y-20054571D01*
X72039295Y-20091104D01*
X71954712Y-20099435D01*
X71912421Y-20103600D01*
X71827579Y-20103600D01*
X71785288Y-20099435D01*
X71700705Y-20091104D01*
X71580273Y-20054571D01*
X71537912Y-20041721D01*
X71387888Y-19961532D01*
X71256388Y-19853612D01*
X71148468Y-19722112D01*
X71068279Y-19572088D01*
X71055429Y-19529727D01*
X71018896Y-19409295D01*
X71002222Y-19240000D01*
X71018896Y-19070705D01*
X71068278Y-18907916D01*
X71068279Y-18907912D01*
X71148468Y-18757888D01*
X71256388Y-18626388D01*
X71387888Y-18518468D01*
X71537912Y-18438279D01*
X71580273Y-18425429D01*
X71700705Y-18388896D01*
X71785288Y-18380565D01*
X71827579Y-18376400D01*
X71912421Y-18376400D01*
X71954712Y-18380565D01*
X71954712Y-18380565D01*
G37*
G36*
X69414712Y-18380565D02*
X69499295Y-18388896D01*
X69619727Y-18425429D01*
X69662088Y-18438279D01*
X69812112Y-18518468D01*
X69943612Y-18626388D01*
X70051532Y-18757888D01*
X70131721Y-18907912D01*
X70131722Y-18907916D01*
X70181104Y-19070705D01*
X70197778Y-19240000D01*
X70181104Y-19409295D01*
X70144571Y-19529727D01*
X70131721Y-19572088D01*
X70051532Y-19722112D01*
X69943612Y-19853612D01*
X69812112Y-19961532D01*
X69662088Y-20041721D01*
X69619727Y-20054571D01*
X69499295Y-20091104D01*
X69414712Y-20099435D01*
X69372421Y-20103600D01*
X69287579Y-20103600D01*
X69245288Y-20099435D01*
X69160705Y-20091104D01*
X69040273Y-20054571D01*
X68997912Y-20041721D01*
X68847888Y-19961532D01*
X68716388Y-19853612D01*
X68608468Y-19722112D01*
X68528279Y-19572088D01*
X68515429Y-19529727D01*
X68478896Y-19409295D01*
X68462222Y-19240000D01*
X68478896Y-19070705D01*
X68528278Y-18907916D01*
X68528279Y-18907912D01*
X68608468Y-18757888D01*
X68716388Y-18626388D01*
X68847888Y-18518468D01*
X68997912Y-18438279D01*
X69040273Y-18425429D01*
X69160705Y-18388896D01*
X69245288Y-18380565D01*
X69287579Y-18376400D01*
X69372421Y-18376400D01*
X69414712Y-18380565D01*
X69414712Y-18380565D01*
G37*
G36*
X66874712Y-18380565D02*
X66959295Y-18388896D01*
X67079727Y-18425429D01*
X67122088Y-18438279D01*
X67272112Y-18518468D01*
X67403612Y-18626388D01*
X67511532Y-18757888D01*
X67591721Y-18907912D01*
X67591722Y-18907916D01*
X67641104Y-19070705D01*
X67657778Y-19240000D01*
X67641104Y-19409295D01*
X67604571Y-19529727D01*
X67591721Y-19572088D01*
X67511532Y-19722112D01*
X67403612Y-19853612D01*
X67272112Y-19961532D01*
X67122088Y-20041721D01*
X67079727Y-20054571D01*
X66959295Y-20091104D01*
X66874712Y-20099435D01*
X66832421Y-20103600D01*
X66747579Y-20103600D01*
X66705288Y-20099435D01*
X66620705Y-20091104D01*
X66500273Y-20054571D01*
X66457912Y-20041721D01*
X66307888Y-19961532D01*
X66176388Y-19853612D01*
X66068468Y-19722112D01*
X65988279Y-19572088D01*
X65975429Y-19529727D01*
X65938896Y-19409295D01*
X65922222Y-19240000D01*
X65938896Y-19070705D01*
X65988278Y-18907916D01*
X65988279Y-18907912D01*
X66068468Y-18757888D01*
X66176388Y-18626388D01*
X66307888Y-18518468D01*
X66457912Y-18438279D01*
X66500273Y-18425429D01*
X66620705Y-18388896D01*
X66705288Y-18380565D01*
X66747579Y-18376400D01*
X66832421Y-18376400D01*
X66874712Y-18380565D01*
X66874712Y-18380565D01*
G37*
G36*
X77034712Y-18380565D02*
X77119295Y-18388896D01*
X77239727Y-18425429D01*
X77282088Y-18438279D01*
X77432112Y-18518468D01*
X77563612Y-18626388D01*
X77671532Y-18757888D01*
X77751721Y-18907912D01*
X77751722Y-18907916D01*
X77801104Y-19070705D01*
X77817778Y-19240000D01*
X77801104Y-19409295D01*
X77764571Y-19529727D01*
X77751721Y-19572088D01*
X77671532Y-19722112D01*
X77563612Y-19853612D01*
X77432112Y-19961532D01*
X77282088Y-20041721D01*
X77239727Y-20054571D01*
X77119295Y-20091104D01*
X77034712Y-20099435D01*
X76992421Y-20103600D01*
X76907579Y-20103600D01*
X76865288Y-20099435D01*
X76780705Y-20091104D01*
X76660273Y-20054571D01*
X76617912Y-20041721D01*
X76467888Y-19961532D01*
X76336388Y-19853612D01*
X76228468Y-19722112D01*
X76148279Y-19572088D01*
X76135429Y-19529727D01*
X76098896Y-19409295D01*
X76082222Y-19240000D01*
X76098896Y-19070705D01*
X76148278Y-18907916D01*
X76148279Y-18907912D01*
X76228468Y-18757888D01*
X76336388Y-18626388D01*
X76467888Y-18518468D01*
X76617912Y-18438279D01*
X76660273Y-18425429D01*
X76780705Y-18388896D01*
X76865288Y-18380565D01*
X76907579Y-18376400D01*
X76992421Y-18376400D01*
X77034712Y-18380565D01*
X77034712Y-18380565D01*
G37*
G36*
X74494712Y-18380565D02*
X74579295Y-18388896D01*
X74699727Y-18425429D01*
X74742088Y-18438279D01*
X74892112Y-18518468D01*
X75023612Y-18626388D01*
X75131532Y-18757888D01*
X75211721Y-18907912D01*
X75211722Y-18907916D01*
X75261104Y-19070705D01*
X75277778Y-19240000D01*
X75261104Y-19409295D01*
X75224571Y-19529727D01*
X75211721Y-19572088D01*
X75131532Y-19722112D01*
X75023612Y-19853612D01*
X74892112Y-19961532D01*
X74742088Y-20041721D01*
X74699727Y-20054571D01*
X74579295Y-20091104D01*
X74494712Y-20099435D01*
X74452421Y-20103600D01*
X74367579Y-20103600D01*
X74325288Y-20099435D01*
X74240705Y-20091104D01*
X74120273Y-20054571D01*
X74077912Y-20041721D01*
X73927888Y-19961532D01*
X73796388Y-19853612D01*
X73688468Y-19722112D01*
X73608279Y-19572088D01*
X73595429Y-19529727D01*
X73558896Y-19409295D01*
X73542222Y-19240000D01*
X73558896Y-19070705D01*
X73608278Y-18907916D01*
X73608279Y-18907912D01*
X73688468Y-18757888D01*
X73796388Y-18626388D01*
X73927888Y-18518468D01*
X74077912Y-18438279D01*
X74120273Y-18425429D01*
X74240705Y-18388896D01*
X74325288Y-18380565D01*
X74367579Y-18376400D01*
X74452421Y-18376400D01*
X74494712Y-18380565D01*
X74494712Y-18380565D01*
G37*
G36*
X28774712Y-18380565D02*
X28859295Y-18388896D01*
X28979727Y-18425429D01*
X29022088Y-18438279D01*
X29172112Y-18518468D01*
X29303612Y-18626388D01*
X29411532Y-18757888D01*
X29491721Y-18907912D01*
X29491722Y-18907916D01*
X29541104Y-19070705D01*
X29557778Y-19240000D01*
X29541104Y-19409295D01*
X29504571Y-19529727D01*
X29491721Y-19572088D01*
X29411532Y-19722112D01*
X29303612Y-19853612D01*
X29172112Y-19961532D01*
X29022088Y-20041721D01*
X28979727Y-20054571D01*
X28859295Y-20091104D01*
X28774712Y-20099435D01*
X28732421Y-20103600D01*
X28647579Y-20103600D01*
X28605288Y-20099435D01*
X28520705Y-20091104D01*
X28400273Y-20054571D01*
X28357912Y-20041721D01*
X28207888Y-19961532D01*
X28076388Y-19853612D01*
X27968468Y-19722112D01*
X27888279Y-19572088D01*
X27875429Y-19529727D01*
X27838896Y-19409295D01*
X27822222Y-19240000D01*
X27838896Y-19070705D01*
X27888278Y-18907916D01*
X27888279Y-18907912D01*
X27968468Y-18757888D01*
X28076388Y-18626388D01*
X28207888Y-18518468D01*
X28357912Y-18438279D01*
X28400273Y-18425429D01*
X28520705Y-18388896D01*
X28605288Y-18380565D01*
X28647579Y-18376400D01*
X28732421Y-18376400D01*
X28774712Y-18380565D01*
X28774712Y-18380565D01*
G37*
M02*
